%FSDAX24Y24*%
%MOIN*%
%SFA1B1*%

%IPPOS*%
%ADD66R,0.059100X0.059100*%
%ADD67C,0.059100*%
%ADD69C,0.110200*%
%ADD73C,0.018000*%
%ADD74C,0.027000*%
%ADD75C,0.075000*%
%ADD76C,0.150000*%
%LNarray-1*%
%LPD*%
G36*
X011400Y031842D02*
X038592D01*
Y030305*
X038542Y030297*
X038532Y030331*
X038476Y030436*
X038401Y030527*
X038309Y030602*
X038205Y030658*
X038091Y030692*
X037974Y030704*
X037856Y030692*
X037742Y030658*
X037638Y030602*
X037546Y030527*
X037471Y030436*
X037416Y030331*
X037381Y030218*
X037370Y030100*
X037381Y029982*
X037416Y029869*
X037471Y029764*
X037546Y029673*
X037638Y029598*
X037742Y029542*
X037856Y029508*
X037974Y029496*
X038091Y029508*
X038205Y029542*
X038309Y029598*
X038401Y029673*
X038476Y029764*
X038532Y029869*
X038542Y029903*
X038592Y029895*
Y012155*
X038542Y012147*
X038532Y012181*
X038476Y012286*
X038401Y012377*
X038309Y012452*
X038205Y012508*
X038091Y012542*
X037974Y012554*
X037856Y012542*
X037742Y012508*
X037638Y012452*
X037546Y012377*
X037471Y012286*
X037416Y012181*
X037381Y012068*
X037370Y011950*
X037381Y011832*
X037416Y011719*
X037471Y011614*
X037546Y011523*
X037638Y011448*
X037742Y011392*
X037856Y011358*
X037974Y011346*
X038091Y011358*
X038205Y011392*
X038309Y011448*
X038401Y011523*
X038476Y011614*
X038532Y011719*
X038542Y011753*
X038592Y011745*
Y010158*
X011400*
X011393Y010157*
X011205Y010171*
X011016Y010217*
X010835Y010292*
X010669Y010394*
X010520Y010520*
X010394Y010669*
X010292Y010835*
X010217Y011016*
X010171Y011205*
X010157Y011393*
X010158Y011400*
Y015047*
X010205Y015055*
X010208*
X010895*
Y015745*
X010208*
X010205*
X010158Y015753*
Y030600*
X010157Y030607*
X010171Y030795*
X010217Y030984*
X010292Y031165*
X010394Y031331*
X010520Y031480*
X010669Y031606*
X010835Y031708*
X011016Y031783*
X011205Y031829*
X011393Y031843*
X011400Y031842*
G37*
G36*
X017906Y033174D02*
X017827Y033227D01*
X017774Y033306*
X017757Y033393*
X017758Y033400*
Y036250*
X017746Y036310*
X017712Y036362*
X017660Y036396*
X017600Y036408*
X010400*
X010393Y036407*
X010306Y036424*
X010227Y036477*
X010174Y036556*
X010157Y036643*
X010158Y036650*
Y053600*
X010157Y053607*
X010171Y053795*
X010217Y053984*
X010292Y054165*
X010394Y054331*
X010520Y054480*
X010669Y054606*
X010835Y054708*
X011016Y054783*
X011205Y054829*
X011393Y054843*
X011400Y054842*
X038350*
X038357Y054843*
X038444Y054826*
X038523Y054773*
X038576Y054694*
X038585Y054647*
X038592Y054600*
Y054551*
Y033400*
X038593Y033393*
X038576Y033306*
X038523Y033227*
X038444Y033174*
X038357Y033157*
X038350Y033158*
X018000*
X017993Y033157*
X017906Y033174*
G37*
%LNarray-2*%
%LPC*%
G36*
X026550Y020743D02*
X026495Y020732D01*
X026449Y020701*
X026418Y020655*
X026407Y020600*
X026418Y020545*
X026449Y020499*
X026495Y020468*
X026550Y020457*
X026605Y020468*
X026651Y020499*
X026682Y020545*
X026693Y020600*
X026682Y020655*
X026651Y020701*
X026605Y020732*
X026550Y020743*
G37*
G36*
X024600Y020643D02*
X024545Y020632D01*
X024499Y020601*
X024468Y020555*
X024457Y020500*
X024468Y020445*
X024499Y020399*
X024545Y020368*
X024600Y020357*
X024655Y020368*
X024701Y020399*
X024732Y020445*
X024743Y020500*
X024732Y020555*
X024701Y020601*
X024655Y020632*
X024600Y020643*
G37*
G36*
X025800Y020893D02*
X025745Y020882D01*
X025699Y020851*
X025668Y020805*
X025657Y020750*
X025668Y020695*
X025688Y020666*
X025699Y020649*
X025677Y020603*
X025674Y020601*
X025643Y020555*
X025632Y020500*
X025643Y020445*
X025674Y020399*
X025720Y020368*
X025775Y020357*
X025829Y020368*
X025876Y020399*
X025907Y020445*
X025918Y020500*
X025907Y020555*
X025887Y020584*
X025876Y020601*
X025897Y020647*
X025901Y020649*
X025932Y020695*
X025943Y020750*
X025932Y020805*
X025901Y020851*
X025855Y020882*
X025800Y020893*
G37*
G36*
X026350Y021093D02*
X026295Y021082D01*
X026249Y021051*
X026218Y021005*
X026207Y020950*
X026218Y020895*
X026249Y020849*
X026295Y020818*
X026350Y020807*
X026405Y020818*
X026451Y020849*
X026482Y020895*
X026493Y020950*
X026482Y021005*
X026451Y021051*
X026405Y021082*
X026350Y021093*
G37*
G36*
X013150Y021393D02*
X013095Y021382D01*
X013049Y021351*
X013018Y021305*
X013007Y021250*
X013018Y021195*
X013049Y021149*
X013095Y021118*
X013150Y021107*
X013205Y021118*
X013251Y021149*
X013282Y021195*
X013293Y021250*
X013282Y021305*
X013251Y021351*
X013205Y021382*
X013150Y021393*
G37*
G36*
X022950Y020893D02*
X022895Y020882D01*
X022849Y020851*
X022818Y020805*
X022807Y020750*
X022818Y020695*
X022849Y020649*
X022895Y020618*
X022950Y020607*
X023005Y020618*
X023051Y020649*
X023082Y020695*
X023093Y020750*
X023082Y020805*
X023051Y020851*
X023005Y020882*
X022950Y020893*
G37*
G36*
X025100D02*
X025045Y020882D01*
X024999Y020851*
X024968Y020805*
X024957Y020750*
X024968Y020695*
X024999Y020649*
X025045Y020618*
X025100Y020607*
X025155Y020618*
X025201Y020649*
X025232Y020695*
X025243Y020750*
X025232Y020805*
X025201Y020851*
X025155Y020882*
X025100Y020893*
G37*
G36*
X031900Y019743D02*
X031845Y019732D01*
X031799Y019701*
X031768Y019655*
X031757Y019600*
X031768Y019545*
X031799Y019499*
Y019451*
X031768Y019405*
X031757Y019350*
X031768Y019295*
X031799Y019249*
X031845Y019218*
X031900Y019207*
X031955Y019218*
X032001Y019249*
X032032Y019295*
X032043Y019350*
X032032Y019405*
X032001Y019451*
Y019499*
X032032Y019545*
X032043Y019600*
X032032Y019655*
X032001Y019701*
X031955Y019732*
X031900Y019743*
G37*
G36*
X010637Y020290D02*
X010542Y020278D01*
X010453Y020241*
X010377Y020182*
X010318Y020106*
X010281Y020017*
X010269Y019922*
X010281Y019827*
X010318Y019738*
X010377Y019662*
X010453Y019603*
X010542Y019566*
X010637Y019554*
X010732Y019566*
X010821Y019603*
X010897Y019662*
X010956Y019738*
X010993Y019827*
X011005Y019922*
X010993Y020017*
X010956Y020106*
X010897Y020182*
X010821Y020241*
X010732Y020278*
X010637Y020290*
G37*
G36*
X035400Y019698D02*
X035310Y019686D01*
X035226Y019652*
X035154Y019596*
X035098Y019524*
X035064Y019440*
X035052Y019350*
X035064Y019260*
X035098Y019176*
X035154Y019104*
X035226Y019048*
X035310Y019014*
X035400Y019002*
X035490Y019014*
X035574Y019048*
X035646Y019104*
X035702Y019176*
X035736Y019260*
X035748Y019350*
X035736Y019440*
X035702Y019524*
X035646Y019596*
X035574Y019652*
X035490Y019686*
X035400Y019698*
G37*
G36*
X031350Y019093D02*
X031295Y019082D01*
X031249Y019051*
X031201*
X031155Y019082*
X031100Y019093*
X031045Y019082*
X030999Y019051*
X030968Y019005*
X030957Y018950*
X030968Y018895*
X030999Y018849*
X031045Y018818*
X031100Y018807*
X031155Y018818*
X031201Y018849*
X031249*
X031295Y018818*
X031350Y018807*
X031405Y018818*
X031451Y018849*
X031482Y018895*
X031493Y018950*
X031482Y019005*
X031451Y019051*
X031405Y019082*
X031350Y019093*
G37*
G36*
X034745Y020695D02*
X034055D01*
Y020005*
X034745*
Y020695*
G37*
G36*
X011700Y020604D02*
X011625Y020595D01*
X011556Y020566*
X011496Y020520*
X011450Y020460*
X011421Y020390*
X011411Y020316*
X011421Y020241*
X011450Y020171*
X011496Y020112*
X011556Y020066*
X011625Y020037*
X011700Y020027*
X011775Y020037*
X011844Y020066*
X011904Y020112*
X011950Y020171*
X011979Y020241*
X011989Y020316*
X011979Y020390*
X011950Y020460*
X011904Y020520*
X011844Y020566*
X011775Y020595*
X011700Y020604*
G37*
G36*
X031350Y020093D02*
X031295Y020082D01*
X031249Y020051*
X031218Y020005*
X031207Y019950*
X031218Y019895*
X031249Y019849*
X031295Y019818*
X031350Y019807*
X031405Y019818*
X031451Y019849*
X031482Y019895*
X031493Y019950*
X031482Y020005*
X031451Y020051*
X031405Y020082*
X031350Y020093*
G37*
G36*
X035400Y020698D02*
X035310Y020686D01*
X035226Y020652*
X035154Y020596*
X035098Y020524*
X035064Y020440*
X035052Y020350*
X035064Y020260*
X035098Y020176*
X035154Y020104*
X035226Y020048*
X035310Y020014*
X035400Y020002*
X035490Y020014*
X035574Y020048*
X035646Y020104*
X035702Y020176*
X035736Y020260*
X035748Y020350*
X035736Y020440*
X035702Y020524*
X035646Y020596*
X035574Y020652*
X035490Y020686*
X035400Y020698*
G37*
G36*
X020500Y021693D02*
X020445Y021682D01*
X020399Y021651*
X020368Y021605*
X020357Y021550*
X020368Y021495*
X020399Y021449*
X020445Y021418*
X020500Y021407*
X020545Y021416*
X020570Y021382*
X020571Y021380*
X020573Y021375*
X020543Y021330*
X020532Y021275*
X020543Y021221*
X020574Y021174*
X020620Y021143*
X020675Y021132*
X020729Y021143*
X020776Y021174*
X020807Y021221*
X020818Y021275*
X020807Y021330*
X020776Y021376*
X020729Y021407*
X020675Y021418*
X020630Y021409*
X020605Y021443*
X020604Y021445*
X020602Y021451*
X020632Y021495*
X020643Y021550*
X020632Y021605*
X020601Y021651*
X020555Y021682*
X020500Y021693*
G37*
G36*
X014250Y023042D02*
X014195Y023031D01*
X014149Y023000*
X014118Y022954*
X014107Y022899*
X014118Y022845*
X014149Y022798*
X014195Y022767*
X014250Y022756*
X014305Y022767*
X014351Y022798*
X014382Y022845*
X014393Y022899*
X014382Y022954*
X014351Y023000*
X014305Y023031*
X014250Y023042*
G37*
G36*
X031700Y022843D02*
X031645Y022832D01*
X031599Y022801*
X031568Y022755*
X031557Y022700*
X031568Y022645*
X031599Y022599*
X031645Y022568*
X031700Y022557*
X031755Y022568*
X031801Y022599*
X031832Y022645*
X031843Y022700*
X031832Y022755*
X031801Y022801*
X031755Y022832*
X031700Y022843*
G37*
G36*
X030350Y022693D02*
X030295Y022682D01*
X030249Y022651*
X030218Y022605*
X030207Y022550*
X030218Y022495*
X030249Y022449*
X030295Y022418*
X030350Y022407*
X030405Y022418*
X030451Y022449*
X030482Y022495*
X030493Y022550*
X030482Y022605*
X030451Y022651*
X030405Y022682*
X030350Y022693*
G37*
G36*
X032200Y023843D02*
X032145Y023832D01*
X032099Y023801*
X032068Y023755*
X032057Y023700*
X032068Y023645*
X032099Y023599*
Y023551*
X032068Y023505*
X032057Y023450*
X032068Y023395*
X032099Y023349*
Y023301*
X032068Y023255*
X032057Y023200*
X032068Y023145*
X032099Y023099*
X032145Y023068*
X032200Y023057*
X032255Y023068*
X032301Y023099*
X032332Y023145*
X032343Y023200*
X032332Y023255*
X032301Y023301*
Y023349*
X032332Y023395*
X032343Y023450*
X032332Y023505*
X032301Y023551*
Y023599*
X032332Y023645*
X032343Y023700*
X032332Y023755*
X032301Y023801*
X032255Y023832*
X032200Y023843*
G37*
G36*
X036850Y023893D02*
X036795Y023882D01*
X036749Y023851*
X036718Y023805*
X036707Y023750*
X036718Y023695*
X036749Y023649*
X036795Y023618*
X036850Y023607*
X036905Y023618*
X036951Y023649*
X036982Y023695*
X036993Y023750*
X036982Y023805*
X036951Y023851*
X036905Y023882*
X036850Y023893*
G37*
G36*
X016900Y024143D02*
X016845Y024132D01*
X016799Y024101*
X016768Y024055*
X016757Y024000*
X016768Y023945*
X016799Y023899*
X016831Y023878*
X016833Y023872*
Y023828*
X016831Y023822*
X016799Y023801*
X016768Y023755*
X016757Y023700*
X016768Y023645*
X016799Y023599*
X016845Y023568*
X016900Y023557*
X016955Y023568*
X017001Y023599*
X017032Y023645*
X017043Y023700*
X017032Y023755*
X017001Y023801*
X016969Y023822*
X016967Y023828*
Y023872*
X016969Y023878*
X017001Y023899*
X017032Y023945*
X017043Y024000*
X017032Y024055*
X017001Y024101*
X016955Y024132*
X016900Y024143*
G37*
G36*
X026150Y024093D02*
X026095Y024082D01*
X026049Y024051*
X026018Y024005*
X026007Y023950*
X026018Y023895*
X026049Y023849*
X026067Y023837*
X026056Y023784*
X026045Y023782*
X025999Y023751*
X025968Y023705*
X025957Y023650*
X025968Y023595*
X025999Y023549*
X026045Y023518*
X026100Y023507*
X026155Y023518*
X026201Y023549*
X026232Y023595*
X026243Y023650*
X026232Y023705*
X026201Y023751*
X026183Y023763*
X026194Y023816*
X026205Y023818*
X026251Y023849*
X026282Y023895*
X026293Y023950*
X026282Y024005*
X026251Y024051*
X026205Y024082*
X026150Y024093*
G37*
G36*
X026200Y022643D02*
X026145Y022632D01*
X026099Y022601*
X026068Y022555*
X026057Y022500*
X026068Y022445*
X026099Y022399*
X026145Y022368*
X026200Y022357*
X026255Y022368*
X026301Y022399*
X026332Y022445*
X026343Y022500*
X026332Y022555*
X026301Y022601*
X026255Y022632*
X026200Y022643*
G37*
G36*
X023450Y021993D02*
X023395Y021982D01*
X023349Y021951*
X023318Y021905*
X023307Y021850*
X023318Y021795*
X023349Y021749*
X023395Y021718*
X023450Y021707*
X023505Y021718*
X023551Y021749*
X023582Y021795*
X023593Y021850*
X023582Y021905*
X023551Y021951*
X023505Y021982*
X023450Y021993*
G37*
G36*
X026350Y022008D02*
X026295Y021998D01*
X026249Y021967*
X026218Y021920*
X026207Y021866*
X026218Y021811*
X026249Y021765*
X026295Y021734*
X026350Y021723*
X026368Y021727*
X026410Y021684*
X026407Y021669*
X026418Y021614*
X026449Y021568*
X026495Y021537*
X026550Y021526*
X026605Y021537*
X026651Y021568*
X026682Y021614*
X026693Y021669*
X026682Y021724*
X026651Y021770*
X026605Y021801*
X026550Y021812*
X026532Y021808*
X026490Y021851*
X026493Y021866*
X026482Y021920*
X026451Y021967*
X026405Y021998*
X026350Y022008*
G37*
G36*
X022850Y022093D02*
X022795Y022082D01*
X022749Y022051*
X022718Y022005*
X022707Y021950*
X022718Y021895*
X022749Y021849*
X022795Y021818*
X022806Y021816*
X022817Y021763*
X022799Y021751*
X022768Y021705*
X022757Y021650*
X022768Y021595*
X022799Y021549*
X022845Y021518*
X022900Y021507*
X022955Y021518*
X023001Y021549*
X023032Y021595*
X023043Y021650*
X023032Y021705*
X023001Y021751*
X022955Y021782*
X022944Y021784*
X022933Y021837*
X022951Y021849*
X022982Y021895*
X022993Y021950*
X022982Y022005*
X022951Y022051*
X022905Y022082*
X022850Y022093*
G37*
G36*
X017100Y022043D02*
X017045Y022032D01*
X016999Y022001*
X016968Y021955*
X016957Y021900*
X016968Y021845*
X016999Y021799*
X017045Y021768*
X017100Y021757*
X017155Y021768*
X017201Y021799*
X017232Y021845*
X017243Y021900*
X017232Y021955*
X017201Y022001*
X017155Y022032*
X017100Y022043*
G37*
G36*
X010637Y023046D02*
X010542Y023034D01*
X010453Y022997*
X010377Y022938*
X010318Y022862*
X010281Y022773*
X010269Y022678*
X010281Y022583*
X010318Y022494*
X010377Y022418*
X010453Y022359*
X010542Y022322*
X010637Y022310*
X010732Y022322*
X010821Y022359*
X010897Y022418*
X010956Y022494*
X010993Y022583*
X011005Y022678*
X010993Y022773*
X010956Y022862*
X010897Y022938*
X010821Y022997*
X010732Y023034*
X010637Y023046*
G37*
G36*
X011700Y022573D02*
X011625Y022563D01*
X011556Y022534*
X011496Y022488*
X011450Y022429*
X011421Y022359*
X011411Y022284*
X011421Y022210*
X011450Y022140*
X011496Y022080*
X011556Y022034*
X011625Y022005*
X011700Y021996*
X011775Y022005*
X011844Y022034*
X011904Y022080*
X011950Y022140*
X011979Y022210*
X011989Y022284*
X011979Y022359*
X011950Y022429*
X011904Y022488*
X011844Y022534*
X011775Y022563*
X011700Y022573*
G37*
G36*
X019000Y022093D02*
X018945Y022082D01*
X018899Y022051*
X018868Y022005*
X018857Y021950*
X018868Y021895*
X018899Y021849*
X018945Y021818*
X019000Y021807*
X019055Y021818*
X019101Y021849*
X019132Y021895*
X019143Y021950*
X019132Y022005*
X019101Y022051*
X019055Y022082*
X019000Y022093*
G37*
G36*
X034400Y019698D02*
X034310Y019686D01*
X034226Y019652*
X034154Y019596*
X034098Y019524*
X034064Y019440*
X034052Y019350*
X034064Y019260*
X034098Y019176*
X034154Y019104*
X034226Y019048*
X034310Y019014*
X034400Y019002*
X034490Y019014*
X034574Y019048*
X034646Y019104*
X034702Y019176*
X034736Y019260*
X034748Y019350*
X034736Y019440*
X034702Y019524*
X034646Y019596*
X034574Y019652*
X034490Y019686*
X034400Y019698*
G37*
G36*
X013350Y015393D02*
X013295Y015382D01*
X013249Y015351*
X013218Y015305*
X013207Y015250*
X013218Y015195*
X013249Y015149*
X013295Y015118*
X013350Y015107*
X013405Y015118*
X013451Y015149*
X013482Y015195*
X013493Y015250*
X013482Y015305*
X013451Y015351*
X013405Y015382*
X013350Y015393*
G37*
G36*
X011550Y015748D02*
X011460Y015736D01*
X011376Y015702*
X011304Y015646*
X011248Y015574*
X011214Y015490*
X011202Y015400*
X011214Y015310*
X011248Y015226*
X011304Y015154*
X011376Y015098*
X011460Y015064*
X011550Y015052*
X011640Y015064*
X011724Y015098*
X011796Y015154*
X011852Y015226*
X011886Y015310*
X011898Y015400*
X011886Y015490*
X011852Y015574*
X011796Y015646*
X011724Y015702*
X011640Y015736*
X011550Y015748*
G37*
G36*
X013350Y015043D02*
X013295Y015032D01*
X013249Y015001*
X013218Y014955*
X013207Y014900*
X013218Y014845*
X013249Y014799*
X013295Y014768*
X013350Y014757*
X013405Y014768*
X013451Y014799*
X013482Y014845*
X013493Y014900*
X013482Y014955*
X013451Y015001*
X013405Y015032*
X013350Y015043*
G37*
G36*
Y015743D02*
X013295Y015732D01*
X013249Y015701*
X013218Y015655*
X013207Y015600*
X013218Y015545*
X013249Y015499*
X013295Y015468*
X013350Y015457*
X013405Y015468*
X013451Y015499*
X013482Y015545*
X013493Y015600*
X013482Y015655*
X013451Y015701*
X013405Y015732*
X013350Y015743*
G37*
G36*
X034400Y016698D02*
X034310Y016686D01*
X034226Y016652*
X034154Y016596*
X034098Y016524*
X034064Y016440*
X034052Y016350*
X034064Y016260*
X034098Y016176*
X034154Y016104*
X034226Y016048*
X034310Y016014*
X034400Y016002*
X034490Y016014*
X034574Y016048*
X034646Y016104*
X034702Y016176*
X034736Y016260*
X034748Y016350*
X034736Y016440*
X034702Y016524*
X034646Y016596*
X034574Y016652*
X034490Y016686*
X034400Y016698*
G37*
G36*
X018150Y016243D02*
X018095Y016232D01*
X018049Y016201*
X018018Y016155*
X018007Y016100*
X018018Y016045*
X018049Y015999*
X018095Y015968*
X018150Y015957*
X018205Y015968*
X018251Y015999*
X018282Y016045*
X018293Y016100*
X018282Y016155*
X018251Y016201*
X018205Y016232*
X018150Y016243*
G37*
G36*
X017850Y015643D02*
X017795Y015632D01*
X017750Y015602*
X017705Y015632*
X017650Y015643*
X017595Y015632*
X017549Y015601*
X017518Y015555*
X017507Y015500*
X017518Y015445*
X017549Y015399*
X017595Y015368*
X017650Y015357*
X017705Y015368*
X017750Y015398*
X017795Y015368*
X017850Y015357*
X017905Y015368*
X017951Y015399*
X017982Y015445*
X017993Y015500*
X017982Y015555*
X017951Y015601*
X017905Y015632*
X017850Y015643*
G37*
G36*
X034795Y015095D02*
X034105D01*
Y014405*
X034795*
Y015095*
G37*
G36*
X011700Y012404D02*
X011625Y012395D01*
X011556Y012366*
X011496Y012320*
X011450Y012260*
X011421Y012190*
X011411Y012116*
X011421Y012041*
X011450Y011971*
X011496Y011912*
X011556Y011866*
X011625Y011837*
X011700Y011827*
X011775Y011837*
X011844Y011866*
X011904Y011912*
X011950Y011971*
X011979Y012041*
X011989Y012116*
X011979Y012190*
X011950Y012260*
X011904Y012320*
X011844Y012366*
X011775Y012395*
X011700Y012404*
G37*
G36*
X010637Y012090D02*
X010542Y012078D01*
X010453Y012041*
X010377Y011982*
X010318Y011906*
X010281Y011817*
X010269Y011722*
X010281Y011627*
X010318Y011538*
X010377Y011462*
X010453Y011403*
X010542Y011366*
X010637Y011354*
X010732Y011366*
X010821Y011403*
X010897Y011462*
X010956Y011538*
X010993Y011627*
X011005Y011722*
X010993Y011817*
X010956Y011906*
X010897Y011982*
X010821Y012041*
X010732Y012078*
X010637Y012090*
G37*
G36*
X031950Y012554D02*
X031832Y012542D01*
X031719Y012508*
X031614Y012452*
X031523Y012377*
X031448Y012286*
X031392Y012181*
X031358Y012068*
X031346Y011950*
X031358Y011832*
X031392Y011719*
X031448Y011614*
X031523Y011523*
X031614Y011448*
X031719Y011392*
X031832Y011358*
X031950Y011346*
X032068Y011358*
X032181Y011392*
X032286Y011448*
X032377Y011523*
X032452Y011614*
X032508Y011719*
X032542Y011832*
X032554Y011950*
X032542Y012068*
X032508Y012181*
X032452Y012286*
X032377Y012377*
X032286Y012452*
X032181Y012508*
X032068Y012542*
X031950Y012554*
G37*
G36*
X014450Y014043D02*
X014395Y014032D01*
X014349Y014001*
X014318Y013955*
X014307Y013900*
X014318Y013845*
X014349Y013799*
X014395Y013768*
X014450Y013757*
X014505Y013768*
X014551Y013799*
X014582Y013845*
X014593Y013900*
X014582Y013955*
X014551Y014001*
X014505Y014032*
X014450Y014043*
G37*
G36*
X014350Y014643D02*
X014295Y014632D01*
X014249Y014601*
X014218Y014555*
X014207Y014500*
X014218Y014445*
X014249Y014399*
X014295Y014368*
X014350Y014357*
X014405Y014368*
X014451Y014399*
X014482Y014445*
X014493Y014500*
X014482Y014555*
X014451Y014601*
X014405Y014632*
X014350Y014643*
G37*
G36*
X010637Y014846D02*
X010542Y014834D01*
X010453Y014797*
X010377Y014738*
X010318Y014662*
X010281Y014573*
X010269Y014478*
X010281Y014383*
X010318Y014294*
X010377Y014218*
X010453Y014159*
X010542Y014122*
X010637Y014110*
X010732Y014122*
X010821Y014159*
X010897Y014218*
X010956Y014294*
X010993Y014383*
X011005Y014478*
X010993Y014573*
X010956Y014662*
X010897Y014738*
X010821Y014797*
X010732Y014834*
X010637Y014846*
G37*
G36*
X011700Y014373D02*
X011625Y014363D01*
X011556Y014334*
X011496Y014288*
X011450Y014229*
X011421Y014159*
X011411Y014084*
X011421Y014010*
X011450Y013940*
X011496Y013880*
X011556Y013834*
X011625Y013805*
X011700Y013796*
X011775Y013805*
X011844Y013834*
X011904Y013880*
X011950Y013940*
X011979Y014010*
X011989Y014084*
X011979Y014159*
X011950Y014229*
X011904Y014288*
X011844Y014334*
X011775Y014363*
X011700Y014373*
G37*
G36*
X028900Y016293D02*
X028845Y016282D01*
X028799Y016251*
X028768Y016205*
X028757Y016150*
X028768Y016095*
X028799Y016049*
X028845Y016018*
X028900Y016007*
X028955Y016018*
X029001Y016049*
X029032Y016095*
X029043Y016150*
X029032Y016205*
X029001Y016251*
X028955Y016282*
X028900Y016293*
G37*
G36*
X035400Y018698D02*
X035310Y018686D01*
X035226Y018652*
X035154Y018596*
X035098Y018524*
X035064Y018440*
X035052Y018350*
X035064Y018260*
X035098Y018176*
X035154Y018104*
X035226Y018048*
X035310Y018014*
X035400Y018002*
X035490Y018014*
X035574Y018048*
X035646Y018104*
X035702Y018176*
X035736Y018260*
X035748Y018350*
X035736Y018440*
X035702Y018524*
X035646Y018596*
X035574Y018652*
X035490Y018686*
X035400Y018698*
G37*
G36*
X034400D02*
X034310Y018686D01*
X034226Y018652*
X034154Y018596*
X034098Y018524*
X034064Y018440*
X034052Y018350*
X034064Y018260*
X034098Y018176*
X034154Y018104*
X034226Y018048*
X034310Y018014*
X034400Y018002*
X034490Y018014*
X034574Y018048*
X034646Y018104*
X034702Y018176*
X034736Y018260*
X034748Y018350*
X034736Y018440*
X034702Y018524*
X034646Y018596*
X034574Y018652*
X034490Y018686*
X034400Y018698*
G37*
G36*
X018200Y018193D02*
X018145Y018182D01*
X018099Y018151*
X018068Y018105*
X018057Y018050*
X018068Y017995*
X018099Y017949*
X018145Y017918*
X018200Y017907*
X018255Y017918*
X018301Y017949*
X018332Y017995*
X018343Y018050*
X018332Y018105*
X018301Y018151*
X018255Y018182*
X018200Y018193*
G37*
G36*
X024500Y018593D02*
X024445Y018582D01*
X024399Y018551*
X024368Y018505*
X024357Y018450*
X024368Y018395*
X024399Y018349*
X024445Y018318*
X024500Y018307*
X024555Y018318*
X024601Y018349*
X024632Y018395*
X024643Y018450*
X024632Y018505*
X024601Y018551*
X024555Y018582*
X024500Y018593*
G37*
G36*
X022400Y019193D02*
X022345Y019182D01*
X022299Y019151*
X022268Y019105*
X022257Y019050*
X022268Y018995*
X022299Y018949*
X022345Y018918*
X022400Y018907*
X022455Y018918*
X022501Y018949*
X022532Y018995*
X022543Y019050*
X022532Y019105*
X022501Y019151*
X022455Y019182*
X022400Y019193*
G37*
G36*
X026650Y018993D02*
X026595Y018982D01*
X026549Y018951*
X026518Y018905*
X026507Y018850*
X026518Y018795*
X026549Y018749*
X026595Y018718*
X026650Y018707*
X026705Y018718*
X026751Y018749*
X026782Y018795*
X026793Y018850*
X026782Y018905*
X026751Y018951*
X026705Y018982*
X026650Y018993*
G37*
G36*
X032600Y018743D02*
X032545Y018732D01*
X032499Y018701*
X032468Y018655*
X032457Y018600*
X032468Y018545*
X032499Y018499*
X032545Y018468*
X032600Y018457*
X032655Y018468*
X032701Y018499*
X032732Y018545*
X032743Y018600*
X032732Y018655*
X032701Y018701*
X032655Y018732*
X032600Y018743*
G37*
G36*
X017300Y018193D02*
X017245Y018182D01*
X017199Y018151*
X017168Y018105*
X017157Y018050*
X017168Y017995*
X017199Y017949*
X017245Y017918*
X017300Y017907*
X017355Y017918*
X017401Y017949*
X017432Y017995*
X017443Y018050*
X017432Y018105*
X017401Y018151*
X017355Y018182*
X017300Y018193*
G37*
G36*
X013750Y016943D02*
X013695Y016932D01*
X013649Y016901*
X013601*
X013555Y016932*
X013500Y016943*
X013445Y016932*
X013399Y016901*
X013368Y016855*
X013357Y016800*
X013368Y016745*
X013399Y016699*
X013445Y016668*
X013500Y016657*
X013555Y016668*
X013601Y016699*
X013649*
X013695Y016668*
X013750Y016657*
X013805Y016668*
X013851Y016699*
X013882Y016745*
X013893Y016800*
X013882Y016855*
X013851Y016901*
X013805Y016932*
X013750Y016943*
G37*
G36*
X032050D02*
X031995Y016932D01*
X031949Y016901*
X031918Y016855*
X031907Y016800*
X031918Y016745*
X031949Y016699*
X031995Y016668*
X032050Y016657*
X032105Y016668*
X032151Y016699*
X032182Y016745*
X032193Y016800*
X032182Y016855*
X032151Y016901*
X032105Y016932*
X032050Y016943*
G37*
G36*
X010950Y017828D02*
X010818Y017815D01*
X010690Y017777*
X010573Y017714*
X010470Y017630*
X010386Y017527*
X010323Y017410*
X010285Y017282*
X010272Y017150*
X010285Y017018*
X010323Y016890*
X010386Y016773*
X010470Y016670*
X010573Y016586*
X010690Y016523*
X010818Y016485*
X010950Y016472*
X011082Y016485*
X011210Y016523*
X011327Y016586*
X011430Y016670*
X011514Y016773*
X011577Y016890*
X011615Y017018*
X011628Y017150*
X011615Y017282*
X011577Y017410*
X011514Y017527*
X011430Y017630*
X011327Y017714*
X011210Y017777*
X011082Y017815*
X010950Y017828*
G37*
G36*
X034400Y017698D02*
X034310Y017686D01*
X034226Y017652*
X034154Y017596*
X034098Y017524*
X034064Y017440*
X034052Y017350*
X034064Y017260*
X034098Y017176*
X034154Y017104*
X034226Y017048*
X034310Y017014*
X034400Y017002*
X034490Y017014*
X034574Y017048*
X034646Y017104*
X034702Y017176*
X034736Y017260*
X034748Y017350*
X034736Y017440*
X034702Y017524*
X034646Y017596*
X034574Y017652*
X034490Y017686*
X034400Y017698*
G37*
G36*
X019000Y018043D02*
X018945Y018032D01*
X018899Y018001*
X018868Y017955*
X018857Y017900*
X018868Y017845*
X018899Y017799*
Y017751*
X018868Y017705*
X018857Y017650*
X018868Y017595*
X018899Y017549*
X018945Y017518*
X019000Y017507*
X019055Y017518*
X019101Y017549*
X019132Y017595*
X019143Y017650*
X019132Y017705*
X019101Y017751*
Y017799*
X019132Y017845*
X019143Y017900*
X019132Y017955*
X019101Y018001*
X019055Y018032*
X019000Y018043*
G37*
G36*
X028500Y017393D02*
X028445Y017382D01*
X028399Y017351*
X028368Y017305*
X028357Y017250*
X028368Y017195*
X028399Y017149*
X028445Y017118*
X028500Y017107*
X028555Y017118*
X028601Y017149*
X028632Y017195*
X028643Y017250*
X028632Y017305*
X028601Y017351*
X028555Y017382*
X028500Y017393*
G37*
G36*
X035400Y017698D02*
X035310Y017686D01*
X035226Y017652*
X035154Y017596*
X035098Y017524*
X035064Y017440*
X035052Y017350*
X035064Y017260*
X035098Y017176*
X035154Y017104*
X035226Y017048*
X035310Y017014*
X035400Y017002*
X035490Y017014*
X035574Y017048*
X035646Y017104*
X035702Y017176*
X035736Y017260*
X035748Y017350*
X035736Y017440*
X035702Y017524*
X035646Y017596*
X035574Y017652*
X035490Y017686*
X035400Y017698*
G37*
G36*
X014250Y029476D02*
X014108Y029457D01*
X013977Y029403*
X013863Y029316*
X013776Y029203*
X013722Y029071*
X013703Y028929*
X013722Y028788*
X013776Y028656*
X013863Y028542*
X013977Y028456*
X014108Y028401*
X014250Y028382*
X014392Y028401*
X014523Y028456*
X014637Y028542*
X014724Y028656*
X014778Y028788*
X014797Y028929*
X014778Y029071*
X014724Y029203*
X014637Y029316*
X014523Y029403*
X014392Y029457*
X014250Y029476*
G37*
G36*
X034000Y028143D02*
X033945Y028132D01*
X033899Y028101*
X033868Y028055*
X033858Y028006*
X033836Y027990*
X033811Y027978*
X033805Y027982*
X033750Y027993*
X033695Y027982*
X033649Y027951*
X033618Y027905*
X033607Y027850*
X033618Y027795*
X033649Y027749*
X033695Y027718*
X033750Y027707*
X033805Y027718*
X033851Y027749*
X033882Y027795*
X033892Y027844*
X033914Y027860*
X033939Y027872*
X033945Y027868*
X034000Y027857*
X034055Y027868*
X034101Y027899*
X034132Y027945*
X034143Y028000*
X034132Y028055*
X034101Y028101*
X034055Y028132*
X034000Y028143*
G37*
G36*
X024200Y028193D02*
X024145Y028182D01*
X024099Y028151*
X024068Y028105*
X024057Y028050*
X024068Y027995*
X024099Y027949*
X024145Y027918*
X024200Y027907*
X024255Y027918*
X024301Y027949*
X024332Y027995*
X024343Y028050*
X024332Y028105*
X024301Y028151*
X024255Y028182*
X024200Y028193*
G37*
G36*
X017006Y029476D02*
X016864Y029457D01*
X016732Y029403*
X016619Y029316*
X016532Y029203*
X016478Y029071*
X016459Y028929*
X016478Y028788*
X016532Y028656*
X016619Y028542*
X016732Y028456*
X016864Y028401*
X017006Y028382*
X017147Y028401*
X017279Y028456*
X017393Y028542*
X017479Y028656*
X017534Y028788*
X017553Y028929*
X017534Y029071*
X017479Y029203*
X017393Y029316*
X017279Y029403*
X017147Y029457*
X017006Y029476*
G37*
G36*
X021650Y029843D02*
X021595Y029832D01*
X021549Y029801*
X021518Y029755*
X021507Y029700*
X021518Y029645*
X021549Y029599*
X021595Y029568*
X021650Y029557*
X021705Y029568*
X021751Y029599*
X021782Y029645*
X021793Y029700*
X021782Y029755*
X021751Y029801*
X021705Y029832*
X021650Y029843*
G37*
G36*
X020850D02*
X020795Y029832D01*
X020749Y029801*
X020718Y029755*
X020707Y029700*
X020718Y029645*
X020749Y029599*
X020795Y029568*
X020850Y029557*
X020905Y029568*
X020951Y029599*
X020982Y029645*
X020993Y029700*
X020982Y029755*
X020951Y029801*
X020905Y029832*
X020850Y029843*
G37*
G36*
X015850Y029643D02*
X015795Y029632D01*
X015749Y029601*
X015718Y029555*
X015707Y029500*
X015718Y029445*
X015749Y029399*
Y029351*
X015718Y029305*
X015707Y029250*
X015718Y029195*
X015749Y029149*
X015795Y029118*
X015850Y029107*
X015905Y029118*
X015951Y029149*
X015982Y029195*
X015993Y029250*
X015982Y029305*
X015951Y029351*
Y029399*
X015982Y029445*
X015993Y029500*
X015982Y029555*
X015951Y029601*
X015905Y029632*
X015850Y029643*
G37*
G36*
X023700Y028193D02*
X023645Y028182D01*
X023599Y028151*
X023568Y028105*
X023557Y028050*
X023568Y027995*
X023599Y027949*
X023645Y027918*
X023700Y027907*
X023755Y027918*
X023801Y027949*
X023832Y027995*
X023843Y028050*
X023832Y028105*
X023801Y028151*
X023755Y028182*
X023700Y028193*
G37*
G36*
X010637Y027796D02*
X010542Y027784D01*
X010453Y027747*
X010377Y027688*
X010318Y027612*
X010281Y027523*
X010269Y027428*
X010281Y027333*
X010318Y027244*
X010377Y027168*
X010453Y027109*
X010542Y027072*
X010637Y027060*
X010732Y027072*
X010821Y027109*
X010897Y027168*
X010956Y027244*
X010993Y027333*
X011005Y027428*
X010993Y027523*
X010956Y027612*
X010897Y027688*
X010821Y027747*
X010732Y027784*
X010637Y027796*
G37*
G36*
X017850Y027443D02*
X017795Y027432D01*
X017749Y027401*
X017718Y027355*
X017707Y027300*
X017718Y027245*
X017749Y027199*
Y027151*
X017718Y027105*
X017707Y027050*
X017718Y026995*
X017749Y026949*
X017795Y026918*
X017850Y026907*
X017905Y026918*
X017951Y026949*
X017982Y026995*
X017993Y027050*
X017982Y027105*
X017951Y027151*
Y027199*
X017982Y027245*
X017993Y027300*
X017982Y027355*
X017951Y027401*
X017905Y027432*
X017850Y027443*
G37*
G36*
X038113Y027546D02*
X038018Y027534D01*
X037929Y027497*
X037853Y027438*
X037794Y027362*
X037757Y027273*
X037745Y027178*
X037757Y027083*
X037794Y026994*
X037853Y026918*
X037929Y026859*
X038018Y026822*
X038113Y026810*
X038208Y026822*
X038297Y026859*
X038373Y026918*
X038432Y026994*
X038469Y027083*
X038481Y027178*
X038469Y027273*
X038432Y027362*
X038373Y027438*
X038297Y027497*
X038208Y027534*
X038113Y027546*
G37*
G36*
X013450Y027643D02*
X013395Y027632D01*
X013349Y027601*
X013318Y027555*
X013307Y027500*
X013311Y027482*
X013268Y027439*
X013250Y027443*
X013195Y027432*
X013149Y027401*
X013118Y027355*
X013107Y027300*
X013111Y027282*
X013068Y027239*
X013050Y027243*
X012995Y027232*
X012949Y027201*
X012918Y027155*
X012907Y027100*
X012918Y027045*
X012949Y026999*
X012995Y026968*
X013050Y026957*
X013105Y026968*
X013151Y026999*
X013182Y027045*
X013193Y027100*
X013189Y027118*
X013232Y027161*
X013250Y027157*
X013305Y027168*
X013351Y027199*
X013382Y027245*
X013393Y027300*
X013389Y027318*
X013432Y027361*
X013450Y027357*
X013505Y027368*
X013551Y027399*
X013582Y027445*
X013593Y027500*
X013582Y027555*
X013551Y027601*
X013505Y027632*
X013450Y027643*
G37*
G36*
X036900Y027943D02*
X036845Y027932D01*
X036799Y027901*
X036768Y027855*
X036757Y027800*
X036768Y027745*
X036783Y027723*
X036763Y027693*
X036750Y027683*
X036700Y027693*
X036645Y027682*
X036599Y027651*
X036568Y027605*
X036557Y027550*
X036568Y027495*
X036599Y027449*
X036645Y027418*
X036700Y027407*
X036755Y027418*
X036801Y027449*
X036832Y027495*
X036843Y027550*
X036832Y027605*
X036817Y027627*
X036837Y027657*
X036850Y027667*
X036900Y027657*
X036955Y027668*
X037001Y027699*
X037032Y027745*
X037043Y027800*
X037032Y027855*
X037001Y027901*
X036955Y027932*
X036900Y027943*
G37*
G36*
X017750Y028093D02*
X017695Y028082D01*
X017649Y028051*
X017618Y028005*
X017607Y027950*
X017618Y027895*
X017649Y027849*
X017667Y027837*
X017692Y027809*
X017680Y027773*
X017668Y027755*
X017657Y027700*
X017668Y027645*
X017699Y027599*
X017745Y027568*
X017800Y027557*
X017855Y027568*
X017901Y027599*
X017932Y027645*
X017943Y027700*
X017932Y027755*
X017901Y027801*
X017883Y027813*
X017858Y027841*
X017870Y027877*
X017882Y027895*
X017893Y027950*
X017882Y028005*
X017851Y028051*
X017805Y028082*
X017750Y028093*
G37*
G36*
X012750Y027793D02*
X012695Y027782D01*
X012649Y027751*
X012618Y027705*
X012607Y027650*
X012618Y027595*
X012649Y027549*
X012695Y027518*
X012750Y027507*
X012805Y027518*
X012851Y027549*
X012882Y027595*
X012893Y027650*
X012882Y027705*
X012851Y027751*
X012805Y027782*
X012750Y027793*
G37*
G36*
X022450Y029843D02*
X022395Y029832D01*
X022349Y029801*
X022318Y029755*
X022307Y029700*
X022318Y029645*
X022349Y029599*
X022395Y029568*
X022450Y029557*
X022505Y029568*
X022551Y029599*
X022582Y029645*
X022593Y029700*
X022582Y029755*
X022551Y029801*
X022505Y029832*
X022450Y029843*
G37*
G36*
X023250Y030943D02*
X023195Y030932D01*
X023149Y030901*
X023118Y030855*
X023107Y030800*
X023118Y030745*
X023149Y030699*
X023195Y030668*
X023250Y030657*
X023305Y030668*
X023351Y030699*
X023382Y030745*
X023393Y030800*
X023382Y030855*
X023351Y030901*
X023305Y030932*
X023250Y030943*
G37*
G36*
X022450D02*
X022395Y030932D01*
X022349Y030901*
X022318Y030855*
X022307Y030800*
X022318Y030745*
X022349Y030699*
X022395Y030668*
X022450Y030657*
X022505Y030668*
X022551Y030699*
X022582Y030745*
X022593Y030800*
X022582Y030855*
X022551Y030901*
X022505Y030932*
X022450Y030943*
G37*
G36*
X021700D02*
X021645Y030932D01*
X021599Y030901*
X021568Y030855*
X021557Y030800*
X021568Y030745*
X021599Y030699*
X021645Y030668*
X021700Y030657*
X021755Y030668*
X021801Y030699*
X021832Y030745*
X021843Y030800*
X021832Y030855*
X021801Y030901*
X021755Y030932*
X021700Y030943*
G37*
G36*
X024050D02*
X023995Y030932D01*
X023949Y030901*
X023918Y030855*
X023907Y030800*
X023918Y030745*
X023949Y030699*
X023995Y030668*
X024050Y030657*
X024105Y030668*
X024151Y030699*
X024182Y030745*
X024193Y030800*
X024182Y030855*
X024151Y030901*
X024105Y030932*
X024050Y030943*
G37*
G36*
X026100Y031143D02*
X026045Y031132D01*
X026000Y031102*
X025955Y031132*
X025900Y031143*
X025845Y031132*
X025799Y031101*
X025768Y031055*
X025757Y031000*
X025759Y030992*
X025750Y030943*
X025695Y030932*
X025649Y030901*
X025618Y030855*
X025607Y030800*
X025618Y030745*
X025649Y030699*
X025695Y030668*
X025750Y030657*
X025805Y030668*
X025851Y030699*
X025882Y030745*
X025893Y030800*
X025891Y030808*
X025900Y030857*
X025955Y030868*
X026000Y030898*
X026045Y030868*
X026100Y030857*
X026109Y030808*
X026107Y030800*
X026118Y030745*
X026149Y030699*
X026195Y030668*
X026250Y030657*
X026305Y030668*
X026351Y030699*
X026382Y030745*
X026393Y030800*
X026382Y030855*
X026351Y030901*
X026305Y030932*
X026250Y030943*
X026241Y030992*
X026243Y031000*
X026232Y031055*
X026201Y031101*
X026155Y031132*
X026100Y031143*
G37*
G36*
X019450Y030943D02*
X019395Y030932D01*
X019349Y030901*
X019328Y030869*
X019322Y030867*
X019278*
X019272Y030869*
X019251Y030901*
X019205Y030932*
X019150Y030943*
X019095Y030932*
X019049Y030901*
X019018Y030855*
X019007Y030800*
X019018Y030745*
X019049Y030699*
X019095Y030668*
X019150Y030657*
X019205Y030668*
X019251Y030699*
X019272Y030731*
X019278Y030733*
X019322*
X019328Y030731*
X019349Y030699*
X019395Y030668*
X019450Y030657*
X019505Y030668*
X019551Y030699*
X019582Y030745*
X019593Y030800*
X019582Y030855*
X019551Y030901*
X019505Y030932*
X019450Y030943*
G37*
G36*
X024800D02*
X024745Y030932D01*
X024699Y030901*
X024668Y030855*
X024657Y030800*
X024668Y030745*
X024699Y030699*
X024745Y030668*
X024800Y030657*
X024855Y030668*
X024901Y030699*
X024932Y030745*
X024943Y030800*
X024932Y030855*
X024901Y030901*
X024855Y030932*
X024800Y030943*
G37*
G36*
X021000D02*
X020945Y030932D01*
X020899Y030901*
X020868Y030855*
X020857Y030800*
X020868Y030745*
X020899Y030699*
X020945Y030668*
X021000Y030657*
X021055Y030668*
X021101Y030699*
X021132Y030745*
X021143Y030800*
X021132Y030855*
X021101Y030901*
X021055Y030932*
X021000Y030943*
G37*
G36*
X014537Y030348D02*
X014447Y030336D01*
X014363Y030302*
X014291Y030246*
X014236Y030174*
X014201Y030090*
X014189Y030000*
X014201Y029910*
X014236Y029826*
X014291Y029754*
X014363Y029698*
X014447Y029664*
X014537Y029652*
X014628Y029664*
X014712Y029698*
X014784Y029754*
X014839Y029826*
X014874Y029910*
X014886Y030000*
X014874Y030090*
X014839Y030174*
X014784Y030246*
X014712Y030302*
X014628Y030336*
X014537Y030348*
G37*
G36*
X024800Y029843D02*
X024745Y029832D01*
X024699Y029801*
X024668Y029755*
X024657Y029700*
X024668Y029645*
X024699Y029599*
X024745Y029568*
X024800Y029557*
X024855Y029568*
X024901Y029599*
X024932Y029645*
X024943Y029700*
X024932Y029755*
X024901Y029801*
X024855Y029832*
X024800Y029843*
G37*
G36*
X024050D02*
X023995Y029832D01*
X023949Y029801*
X023918Y029755*
X023907Y029700*
X023918Y029645*
X023949Y029599*
X023995Y029568*
X024050Y029557*
X024105Y029568*
X024151Y029599*
X024182Y029645*
X024193Y029700*
X024182Y029755*
X024151Y029801*
X024105Y029832*
X024050Y029843*
G37*
G36*
X015325Y030348D02*
X015235Y030336D01*
X015151Y030302*
X015079Y030246*
X015023Y030174*
X014988Y030090*
X014977Y030000*
X014988Y029910*
X015023Y029826*
X015079Y029754*
X015151Y029698*
X015235Y029664*
X015325Y029652*
X015415Y029664*
X015499Y029698*
X015571Y029754*
X015626Y029826*
X015661Y029910*
X015673Y030000*
X015661Y030090*
X015626Y030174*
X015571Y030246*
X015499Y030302*
X015415Y030336*
X015325Y030348*
G37*
G36*
X017006Y031618D02*
X016864Y031599D01*
X016732Y031544*
X016619Y031458*
X016532Y031344*
X016478Y031212*
X016459Y031071*
X016478Y030929*
X016532Y030797*
X016619Y030684*
X016732Y030597*
X016864Y030543*
X017006Y030524*
X017147Y030543*
X017279Y030597*
X017393Y030684*
X017479Y030797*
X017534Y030929*
X017553Y031071*
X017534Y031212*
X017479Y031344*
X017393Y031458*
X017279Y031544*
X017147Y031599*
X017006Y031618*
G37*
G36*
X014250D02*
X014108Y031599D01*
X013977Y031544*
X013863Y031458*
X013776Y031344*
X013722Y031212*
X013703Y031071*
X013722Y030929*
X013776Y030797*
X013863Y030684*
X013977Y030597*
X014108Y030543*
X014250Y030524*
X014392Y030543*
X014523Y030597*
X014637Y030684*
X014724Y030797*
X014778Y030929*
X014797Y031071*
X014778Y031212*
X014724Y031344*
X014637Y031458*
X014523Y031544*
X014392Y031599*
X014250Y031618*
G37*
G36*
X016112Y030348D02*
X016022Y030336D01*
X015938Y030302*
X015866Y030246*
X015811Y030174*
X015776Y030090*
X015764Y030000*
X015776Y029910*
X015811Y029826*
X015866Y029754*
X015938Y029698*
X016022Y029664*
X016112Y029652*
X016202Y029664*
X016286Y029698*
X016358Y029754*
X016414Y029826*
X016449Y029910*
X016460Y030000*
X016449Y030090*
X016414Y030174*
X016358Y030246*
X016286Y030302*
X016202Y030336*
X016112Y030348*
G37*
G36*
X026900Y027093D02*
X026845Y027082D01*
X026799Y027051*
X026768Y027005*
X026757Y026950*
X026768Y026895*
X026799Y026849*
X026845Y026818*
X026900Y026807*
X026955Y026818*
X027001Y026849*
X027032Y026895*
X027043Y026950*
X027032Y027005*
X027001Y027051*
X026955Y027082*
X026900Y027093*
G37*
G36*
X025250Y024493D02*
X025195Y024482D01*
X025149Y024451*
X025101*
X025055Y024482*
X025000Y024493*
X024945Y024482*
X024899Y024451*
X024878Y024419*
X024872Y024417*
X024828*
X024822Y024419*
X024801Y024451*
X024755Y024482*
X024700Y024493*
X024645Y024482*
X024599Y024451*
X024568Y024405*
X024557Y024350*
X024568Y024295*
X024599Y024249*
X024645Y024218*
X024700Y024207*
X024755Y024218*
X024801Y024249*
X024822Y024281*
X024828Y024283*
X024872*
X024878Y024281*
X024899Y024249*
X024945Y024218*
X025000Y024207*
X025055Y024218*
X025101Y024249*
X025149*
X025195Y024218*
X025250Y024207*
X025305Y024218*
X025351Y024249*
X025382Y024295*
X025393Y024350*
X025382Y024405*
X025351Y024451*
X025305Y024482*
X025250Y024493*
G37*
G36*
X023216Y024643D02*
X023161Y024632D01*
X023115Y024601*
X023084Y024555*
X023073Y024500*
X023078Y024474*
X023075Y024468*
X023035Y024436*
X023000Y024443*
X022945Y024432*
X022899Y024401*
X022868Y024355*
X022857Y024300*
X022868Y024245*
X022899Y024199*
X022945Y024168*
X023000Y024157*
X023055Y024168*
X023101Y024199*
X023132Y024245*
X023143Y024300*
X023138Y024326*
X023141Y024332*
X023181Y024364*
X023216Y024357*
X023270Y024368*
X023317Y024399*
X023348Y024445*
X023358Y024500*
X023348Y024555*
X023317Y024601*
X023270Y024632*
X023216Y024643*
G37*
G36*
X026550D02*
X026495Y024632D01*
X026449Y024601*
X026418Y024555*
X026407Y024500*
X026418Y024445*
X026433Y024423*
X026413Y024393*
X026400Y024383*
X026350Y024393*
X026295Y024382*
X026249Y024351*
X026218Y024305*
X026207Y024250*
X026218Y024195*
X026249Y024149*
X026295Y024118*
X026350Y024107*
X026405Y024118*
X026451Y024149*
X026482Y024195*
X026493Y024250*
X026482Y024305*
X026467Y024327*
X026487Y024357*
X026500Y024367*
X026550Y024357*
X026605Y024368*
X026651Y024399*
X026682Y024445*
X026693Y024500*
X026682Y024555*
X026651Y024601*
X026605Y024632*
X026550Y024643*
G37*
G36*
X037050Y025104D02*
X036975Y025095D01*
X036906Y025066*
X036846Y025020*
X036800Y024960*
X036771Y024890*
X036761Y024816*
X036771Y024741*
X036800Y024671*
X036846Y024612*
X036906Y024566*
X036975Y024537*
X037050Y024527*
X037125Y024537*
X037194Y024566*
X037254Y024612*
X037300Y024671*
X037329Y024741*
X037339Y024816*
X037329Y024890*
X037300Y024960*
X037254Y025020*
X037194Y025066*
X037125Y025095*
X037050Y025104*
G37*
G36*
X031100Y025093D02*
X031045Y025082D01*
X030999Y025051*
X030968Y025005*
X030957Y024950*
X030968Y024895*
X030999Y024849*
X031045Y024818*
X031100Y024807*
X031155Y024818*
X031201Y024849*
X031232Y024895*
X031243Y024950*
X031232Y025005*
X031201Y025051*
X031155Y025082*
X031100Y025093*
G37*
G36*
X011700Y025354D02*
X011625Y025345D01*
X011556Y025316*
X011496Y025270*
X011450Y025210*
X011421Y025140*
X011411Y025066*
X011421Y024991*
X011450Y024921*
X011496Y024862*
X011556Y024816*
X011625Y024787*
X011700Y024777*
X011775Y024787*
X011844Y024816*
X011904Y024862*
X011950Y024921*
X011979Y024991*
X011989Y025066*
X011979Y025140*
X011950Y025210*
X011904Y025270*
X011844Y025316*
X011775Y025345*
X011700Y025354*
G37*
G36*
X013450Y024743D02*
X013395Y024732D01*
X013349Y024701*
X013318Y024655*
X013307Y024600*
X013311Y024582*
X013268Y024539*
X013250Y024543*
X013195Y024532*
X013149Y024501*
X013118Y024455*
X013107Y024400*
X013111Y024382*
X013068Y024339*
X013050Y024343*
X012995Y024332*
X012949Y024301*
X012918Y024255*
X012907Y024200*
X012918Y024145*
X012949Y024099*
X012995Y024068*
X013050Y024057*
X013105Y024068*
X013151Y024099*
X013182Y024145*
X013193Y024200*
X013189Y024218*
X013232Y024261*
X013250Y024257*
X013305Y024268*
X013351Y024299*
X013382Y024345*
X013393Y024400*
X013389Y024418*
X013432Y024461*
X013450Y024457*
X013505Y024468*
X013551Y024499*
X013582Y024545*
X013593Y024600*
X013582Y024655*
X013551Y024701*
X013505Y024732*
X013450Y024743*
G37*
G36*
X010637Y025040D02*
X010542Y025028D01*
X010453Y024991*
X010377Y024932*
X010318Y024856*
X010281Y024767*
X010269Y024672*
X010281Y024577*
X010318Y024488*
X010377Y024412*
X010453Y024353*
X010542Y024316*
X010637Y024304*
X010732Y024316*
X010821Y024353*
X010897Y024412*
X010956Y024488*
X010993Y024577*
X011005Y024672*
X010993Y024767*
X010956Y024856*
X010897Y024932*
X010821Y024991*
X010732Y025028*
X010637Y025040*
G37*
G36*
X029250Y023993D02*
X029195Y023982D01*
X029149Y023951*
X029118Y023905*
X029107Y023850*
X029118Y023795*
X029149Y023749*
X029195Y023718*
X029250Y023707*
X029305Y023718*
X029351Y023749*
X029382Y023795*
X029393Y023850*
X029382Y023905*
X029351Y023951*
X029305Y023982*
X029250Y023993*
G37*
G36*
X028900D02*
X028845Y023982D01*
X028799Y023951*
X028768Y023905*
X028757Y023850*
X028768Y023795*
X028799Y023749*
X028845Y023718*
X028900Y023707*
X028955Y023718*
X029001Y023749*
X029032Y023795*
X029043Y023850*
X029032Y023905*
X029001Y023951*
X028955Y023982*
X028900Y023993*
G37*
G36*
X012550D02*
X012495Y023982D01*
X012449Y023951*
X012418Y023905*
X012407Y023850*
X012418Y023795*
X012449Y023749*
X012495Y023718*
X012550Y023707*
X012605Y023718*
X012651Y023749*
X012682Y023795*
X012693Y023850*
X012682Y023905*
X012651Y023951*
X012605Y023982*
X012550Y023993*
G37*
G36*
X022100Y024043D02*
X022045Y024032D01*
X021999Y024001*
X021968Y023955*
X021957Y023900*
X021968Y023845*
X021999Y023799*
X022045Y023768*
X022100Y023757*
X022155Y023768*
X022201Y023799*
X022232Y023845*
X022243Y023900*
X022232Y023955*
X022201Y024001*
X022155Y024032*
X022100Y024043*
G37*
G36*
X019550Y024493D02*
X019495Y024482D01*
X019449Y024451*
X019418Y024405*
X019407Y024350*
X019418Y024295*
X019449Y024249*
X019495Y024218*
X019550Y024207*
X019605Y024218*
X019651Y024249*
X019682Y024295*
X019693Y024350*
X019682Y024405*
X019651Y024451*
X019605Y024482*
X019550Y024493*
G37*
G36*
X038113Y024790D02*
X038018Y024778D01*
X037929Y024741*
X037853Y024682*
X037794Y024606*
X037757Y024517*
X037745Y024422*
X037757Y024327*
X037794Y024238*
X037853Y024162*
X037929Y024103*
X038018Y024066*
X038113Y024054*
X038208Y024066*
X038297Y024103*
X038373Y024162*
X038432Y024238*
X038469Y024327*
X038481Y024422*
X038469Y024517*
X038432Y024606*
X038373Y024682*
X038297Y024741*
X038208Y024778*
X038113Y024790*
G37*
G36*
X022650Y024243D02*
X022595Y024232D01*
X022549Y024201*
X022518Y024155*
X022507Y024100*
X022518Y024045*
X022549Y023999*
X022595Y023968*
X022650Y023957*
X022705Y023968*
X022751Y023999*
X022782Y024045*
X022793Y024100*
X022782Y024155*
X022751Y024201*
X022705Y024232*
X022650Y024243*
G37*
G36*
X018450Y025143D02*
X018395Y025132D01*
X018349Y025101*
X018318Y025055*
X018307Y025000*
X018318Y024945*
X018349Y024899*
X018395Y024868*
X018450Y024857*
X018505Y024868*
X018551Y024899*
X018582Y024945*
X018593Y025000*
X018582Y025055*
X018551Y025101*
X018505Y025132*
X018450Y025143*
G37*
G36*
X037050Y027073D02*
X036975Y027063D01*
X036906Y027034*
X036846Y026988*
X036800Y026929*
X036771Y026859*
X036761Y026784*
X036771Y026710*
X036800Y026640*
X036846Y026580*
X036906Y026534*
X036975Y026505*
X037050Y026496*
X037125Y026505*
X037194Y026534*
X037254Y026580*
X037300Y026640*
X037329Y026710*
X037339Y026784*
X037329Y026859*
X037300Y026929*
X037254Y026988*
X037194Y027034*
X037125Y027063*
X037050Y027073*
G37*
G36*
X026350Y026493D02*
X026295Y026482D01*
X026249Y026451*
X026218Y026405*
X026207Y026350*
X026218Y026295*
X026249Y026249*
X026295Y026218*
X026350Y026207*
X026405Y026218*
X026451Y026249*
X026482Y026295*
X026493Y026350*
X026482Y026405*
X026451Y026451*
X026405Y026482*
X026350Y026493*
G37*
G36*
X027172Y026431D02*
X027118Y026420D01*
X027072Y026389*
X027041Y026342*
X027030Y026288*
X027041Y026233*
X027072Y026187*
X027118Y026156*
X027172Y026145*
X027227Y026156*
X027273Y026187*
X027304Y026233*
X027315Y026288*
X027304Y026342*
X027273Y026389*
X027227Y026420*
X027172Y026431*
G37*
G36*
X020400Y026893D02*
X020345Y026882D01*
X020299Y026851*
X020268Y026805*
X020257Y026750*
X020268Y026695*
X020299Y026649*
X020345Y026618*
X020400Y026607*
X020455Y026618*
X020501Y026649*
X020532Y026695*
X020543Y026750*
X020532Y026805*
X020501Y026851*
X020455Y026882*
X020400Y026893*
G37*
G36*
X023050Y027093D02*
X022995Y027082D01*
X022949Y027051*
X022918Y027005*
X022907Y026950*
X022918Y026895*
X022949Y026849*
X022995Y026818*
X023050Y026807*
X023105Y026818*
X023151Y026849*
X023182Y026895*
X023193Y026950*
X023182Y027005*
X023151Y027051*
X023105Y027082*
X023050Y027093*
G37*
G36*
X019600Y027043D02*
X019545Y027032D01*
X019499Y027001*
X019468Y026955*
X019457Y026900*
X019468Y026845*
X019499Y026799*
X019545Y026768*
X019600Y026757*
X019655Y026768*
X019701Y026799*
X019732Y026845*
X019743Y026900*
X019732Y026955*
X019701Y027001*
X019655Y027032*
X019600Y027043*
G37*
G36*
X011700Y027323D02*
X011625Y027313D01*
X011556Y027284*
X011496Y027238*
X011450Y027179*
X011421Y027109*
X011411Y027034*
X011421Y026960*
X011450Y026890*
X011496Y026830*
X011556Y026784*
X011625Y026755*
X011700Y026746*
X011775Y026755*
X011844Y026784*
X011904Y026830*
X011950Y026890*
X011979Y026960*
X011989Y027034*
X011979Y027109*
X011950Y027179*
X011904Y027238*
X011844Y027284*
X011775Y027313*
X011700Y027323*
G37*
G36*
X017525Y026368D02*
X017470Y026357D01*
X017424Y026326*
X017393Y026280*
X017382Y026225*
X017393Y026170*
X017424Y026124*
X017470Y026093*
X017525Y026082*
X017580Y026093*
X017626Y026124*
X017657Y026170*
X017668Y026225*
X017657Y026280*
X017626Y026326*
X017580Y026357*
X017525Y026368*
G37*
G36*
X022400Y025343D02*
X022345Y025332D01*
X022299Y025301*
X022268Y025255*
X022257Y025200*
X022268Y025145*
X022299Y025099*
X022345Y025068*
X022400Y025057*
X022455Y025068*
X022501Y025099*
X022532Y025145*
X022543Y025200*
X022532Y025255*
X022501Y025301*
X022455Y025332*
X022400Y025343*
G37*
G36*
X026550Y025193D02*
X026495Y025182D01*
X026449Y025151*
X026418Y025105*
X026407Y025050*
X026418Y024995*
X026449Y024949*
X026495Y024918*
X026550Y024907*
X026605Y024918*
X026651Y024949*
X026682Y024995*
X026693Y025050*
X026682Y025105*
X026651Y025151*
X026605Y025182*
X026550Y025193*
G37*
G36*
X016900D02*
X016845Y025182D01*
X016799Y025151*
X016768Y025105*
X016757Y025050*
X016768Y024995*
X016799Y024949*
X016845Y024918*
X016900Y024907*
X016955Y024918*
X017001Y024949*
X017032Y024995*
X017043Y025050*
X017032Y025105*
X017001Y025151*
X016955Y025182*
X016900Y025193*
G37*
G36*
X023500Y025343D02*
X023445Y025332D01*
X023399Y025301*
X023368Y025255*
X023357Y025200*
X023368Y025145*
X023399Y025099*
X023445Y025068*
X023500Y025057*
X023555Y025068*
X023601Y025099*
X023632Y025145*
X023643Y025200*
X023632Y025255*
X023601Y025301*
X023555Y025332*
X023500Y025343*
G37*
G36*
X027750Y026343D02*
X027695Y026332D01*
X027649Y026301*
X027618Y026255*
X027607Y026200*
X027618Y026145*
X027649Y026099*
X027695Y026068*
X027750Y026057*
X027805Y026068*
X027851Y026099*
X027882Y026145*
X027893Y026200*
X027882Y026255*
X027851Y026301*
X027805Y026332*
X027750Y026343*
G37*
G36*
X034650Y025893D02*
X034595Y025882D01*
X034549Y025851*
X034518Y025805*
X034507Y025750*
X034518Y025695*
X034549Y025649*
X034595Y025618*
X034650Y025607*
X034705Y025618*
X034751Y025649*
X034782Y025695*
X034793Y025750*
X034782Y025805*
X034751Y025851*
X034705Y025882*
X034650Y025893*
G37*
G36*
X020703Y025355D02*
X020649Y025344D01*
X020602Y025313*
X020571Y025267*
X020560Y025212*
X020571Y025158*
X020602Y025111*
X020649Y025080*
X020703Y025069*
X020758Y025080*
X020804Y025111*
X020835Y025158*
X020846Y025212*
X020835Y025267*
X020804Y025313*
X020758Y025344*
X020703Y025355*
G37*
G36*
X031250Y044347D02*
X031309Y044359D01*
X031358Y044392*
X031391Y044441*
X031403Y044500*
X031391Y044559*
X031358Y044608*
X031309Y044641*
X031250Y044653*
X031191Y044641*
X031142Y044608*
X031109Y044559*
X031097Y044500*
X031109Y044441*
X031142Y044392*
X031191Y044359*
X031250Y044347*
G37*
G36*
X031750D02*
X031809Y044359D01*
X031858Y044392*
X031891Y044441*
X031903Y044500*
X031891Y044559*
X031858Y044608*
X031809Y044641*
X031750Y044653*
X031691Y044641*
X031642Y044608*
X031609Y044559*
X031597Y044500*
X031609Y044441*
X031642Y044392*
X031691Y044359*
X031750Y044347*
G37*
G36*
X030750D02*
X030809Y044359D01*
X030858Y044392*
X030891Y044441*
X030903Y044500*
X030891Y044559*
X030858Y044608*
X030809Y044641*
X030750Y044653*
X030691Y044641*
X030642Y044608*
X030609Y044559*
X030597Y044500*
X030609Y044441*
X030642Y044392*
X030691Y044359*
X030750Y044347*
G37*
G36*
X017500D02*
X017559Y044359D01*
X017608Y044392*
X017641Y044441*
X017653Y044500*
X017641Y044559*
X017608Y044608*
X017559Y044641*
X017500Y044653*
X017441Y044641*
X017392Y044608*
X017359Y044559*
X017347Y044500*
X017359Y044441*
X017392Y044392*
X017441Y044359*
X017500Y044347*
G37*
G36*
X030250D02*
X030309Y044359D01*
X030358Y044392*
X030391Y044441*
X030403Y044500*
X030391Y044559*
X030358Y044608*
X030309Y044641*
X030250Y044653*
X030191Y044641*
X030142Y044608*
X030109Y044559*
X030097Y044500*
X030109Y044441*
X030142Y044392*
X030191Y044359*
X030250Y044347*
G37*
G36*
X027200Y045097D02*
X027259Y045109D01*
X027308Y045142*
X027342*
X027391Y045109*
X027450Y045097*
X027509Y045109*
X027558Y045142*
X027591Y045191*
X027603Y045250*
X027591Y045309*
X027558Y045358*
X027509Y045391*
X027450Y045403*
X027391Y045391*
X027342Y045358*
X027308*
X027259Y045391*
X027200Y045403*
X027141Y045391*
X027092Y045358*
X027059Y045309*
X027047Y045250*
X027059Y045191*
X027092Y045142*
X027141Y045109*
X027200Y045097*
G37*
G36*
X030250Y044847D02*
X030309Y044859D01*
X030358Y044892*
X030391Y044941*
X030403Y045000*
X030391Y045059*
X030358Y045108*
X030309Y045141*
X030250Y045153*
X030191Y045141*
X030142Y045108*
X030109Y045059*
X030097Y045000*
X030109Y044941*
X030142Y044892*
X030191Y044859*
X030250Y044847*
G37*
G36*
X033250Y044347D02*
X033309Y044359D01*
X033358Y044392*
X033391Y044441*
X033403Y044500*
X033391Y044559*
X033358Y044608*
X033309Y044641*
X033250Y044653*
X033191Y044641*
X033142Y044608*
X033109Y044559*
X033097Y044500*
X033109Y044441*
X033142Y044392*
X033191Y044359*
X033250Y044347*
G37*
G36*
X032250D02*
X032309Y044359D01*
X032358Y044392*
X032391Y044441*
X032403Y044500*
X032391Y044559*
X032358Y044608*
X032309Y044641*
X032250Y044653*
X032191Y044641*
X032142Y044608*
X032109Y044559*
X032097Y044500*
X032109Y044441*
X032142Y044392*
X032191Y044359*
X032250Y044347*
G37*
G36*
X032750D02*
X032809Y044359D01*
X032858Y044392*
X032891Y044441*
X032903Y044500*
X032891Y044559*
X032858Y044608*
X032809Y044641*
X032750Y044653*
X032691Y044641*
X032642Y044608*
X032609Y044559*
X032597Y044500*
X032609Y044441*
X032642Y044392*
X032691Y044359*
X032750Y044347*
G37*
G36*
X030750Y043847D02*
X030809Y043859D01*
X030858Y043892*
X030891Y043941*
X030903Y044000*
X030891Y044059*
X030858Y044108*
X030809Y044141*
X030750Y044153*
X030691Y044141*
X030642Y044108*
X030609Y044059*
X030597Y044000*
X030609Y043941*
X030642Y043892*
X030691Y043859*
X030750Y043847*
G37*
G36*
X031250D02*
X031309Y043859D01*
X031358Y043892*
X031391Y043941*
X031403Y044000*
X031391Y044059*
X031358Y044108*
X031309Y044141*
X031250Y044153*
X031191Y044141*
X031142Y044108*
X031109Y044059*
X031097Y044000*
X031109Y043941*
X031142Y043892*
X031191Y043859*
X031250Y043847*
G37*
G36*
X030250D02*
X030309Y043859D01*
X030358Y043892*
X030391Y043941*
X030403Y044000*
X030391Y044059*
X030358Y044108*
X030309Y044141*
X030250Y044153*
X030191Y044141*
X030142Y044108*
X030109Y044059*
X030097Y044000*
X030109Y043941*
X030142Y043892*
X030191Y043859*
X030250Y043847*
G37*
G36*
X033250Y043347D02*
X033309Y043359D01*
X033358Y043392*
X033391Y043441*
X033403Y043500*
X033391Y043559*
X033358Y043608*
X033309Y043641*
X033250Y043653*
X033191Y043641*
X033142Y043608*
X033109Y043559*
X033097Y043500*
X033109Y043441*
X033142Y043392*
X033191Y043359*
X033250Y043347*
G37*
G36*
X017500Y043597D02*
X017559Y043609D01*
X017608Y043642*
X017641Y043691*
X017653Y043750*
X017641Y043809*
X017608Y043858*
X017559Y043891*
X017500Y043903*
X017441Y043891*
X017392Y043858*
X017359Y043809*
X017347Y043750*
X017359Y043691*
X017392Y043642*
X017441Y043609*
X017500Y043597*
G37*
G36*
X033250Y043847D02*
X033309Y043859D01*
X033358Y043892*
X033391Y043941*
X033403Y044000*
X033391Y044059*
X033358Y044108*
X033309Y044141*
X033250Y044153*
X033191Y044141*
X033142Y044108*
X033109Y044059*
X033097Y044000*
X033109Y043941*
X033142Y043892*
X033191Y043859*
X033250Y043847*
G37*
G36*
X027300Y043947D02*
X027359Y043959D01*
X027408Y043992*
X027441Y044041*
X027453Y044100*
X027441Y044159*
X027408Y044208*
X027359Y044241*
X027332Y044247*
X027317Y044250*
Y044300*
X027332Y044303*
X027359Y044309*
X027408Y044342*
X027441Y044391*
X027453Y044450*
X027441Y044509*
X027408Y044558*
X027359Y044591*
X027300Y044603*
X027241Y044591*
X027192Y044558*
X027159Y044509*
X027147Y044450*
X027159Y044391*
X027192Y044342*
X027241Y044309*
X027268Y044303*
X027283Y044300*
Y044250*
X027268Y044247*
X027241Y044241*
X027192Y044208*
X027159Y044159*
X027147Y044100*
X027159Y044041*
X027192Y043992*
X027241Y043959*
X027300Y043947*
G37*
G36*
X032750Y043847D02*
X032809Y043859D01*
X032858Y043892*
X032891Y043941*
X032903Y044000*
X032891Y044059*
X032858Y044108*
X032809Y044141*
X032750Y044153*
X032691Y044141*
X032642Y044108*
X032609Y044059*
X032597Y044000*
X032609Y043941*
X032642Y043892*
X032691Y043859*
X032750Y043847*
G37*
G36*
X031766D02*
X031824Y043859D01*
X031874Y043892*
X031907Y043941*
X031919Y044000*
X031907Y044059*
X031874Y044108*
X031824Y044141*
X031766Y044153*
X031707Y044141*
X031658Y044108*
X031624Y044059*
X031613Y044000*
X031624Y043941*
X031658Y043892*
X031707Y043859*
X031766Y043847*
G37*
G36*
X032250D02*
X032309Y043859D01*
X032358Y043892*
X032391Y043941*
X032403Y044000*
X032391Y044059*
X032358Y044108*
X032309Y044141*
X032250Y044153*
X032191Y044141*
X032142Y044108*
X032109Y044059*
X032097Y044000*
X032109Y043941*
X032142Y043892*
X032191Y043859*
X032250Y043847*
G37*
G36*
X030750Y044847D02*
X030809Y044859D01*
X030858Y044892*
X030891Y044941*
X030903Y045000*
X030891Y045059*
X030858Y045108*
X030809Y045141*
X030750Y045153*
X030691Y045141*
X030642Y045108*
X030609Y045059*
X030597Y045000*
X030609Y044941*
X030642Y044892*
X030691Y044859*
X030750Y044847*
G37*
G36*
X010950Y047162D02*
X011084Y047175D01*
X011213Y047214*
X011332Y047278*
X011437Y047363*
X011522Y047468*
X011586Y047587*
X011625Y047716*
X011638Y047850*
X011625Y047984*
X011586Y048113*
X011522Y048232*
X011437Y048337*
X011332Y048422*
X011213Y048486*
X011084Y048525*
X010950Y048538*
X010816Y048525*
X010687Y048486*
X010568Y048422*
X010463Y048337*
X010378Y048232*
X010314Y048113*
X010275Y047984*
X010262Y047850*
X010275Y047716*
X010314Y047587*
X010378Y047468*
X010463Y047363*
X010568Y047278*
X010687Y047214*
X010816Y047175*
X010950Y047162*
G37*
G36*
X022150Y049542D02*
X022243Y049554D01*
X022329Y049590*
X022403Y049647*
X022460Y049721*
X022496Y049807*
X022508Y049900*
X022496Y049993*
X022460Y050079*
X022403Y050153*
X022329Y050210*
X022243Y050246*
X022150Y050258*
X022057Y050246*
X021971Y050210*
X021897Y050153*
X021840Y050079*
X021804Y049993*
X021792Y049900*
X021804Y049807*
X021840Y049721*
X021897Y049647*
X021971Y049590*
X022057Y049554*
X022150Y049542*
G37*
G36*
X033250Y045347D02*
X033309Y045359D01*
X033358Y045392*
X033391Y045441*
X033403Y045500*
X033391Y045559*
X033358Y045608*
X033309Y045641*
X033250Y045653*
X033191Y045641*
X033142Y045608*
X033109Y045559*
X033097Y045500*
X033109Y045441*
X033142Y045392*
X033191Y045359*
X033250Y045347*
G37*
G36*
X032250D02*
X032309Y045359D01*
X032358Y045392*
X032391Y045441*
X032403Y045500*
X032391Y045559*
X032358Y045608*
X032309Y045641*
X032250Y045653*
X032191Y045641*
X032142Y045608*
X032109Y045559*
X032097Y045500*
X032109Y045441*
X032142Y045392*
X032191Y045359*
X032250Y045347*
G37*
G36*
X032750D02*
X032809Y045359D01*
X032858Y045392*
X032891Y045441*
X032903Y045500*
X032891Y045559*
X032858Y045608*
X032809Y045641*
X032750Y045653*
X032691Y045641*
X032642Y045608*
X032609Y045559*
X032597Y045500*
X032609Y045441*
X032642Y045392*
X032691Y045359*
X032750Y045347*
G37*
G36*
X021795Y050545D02*
X022505D01*
Y051255*
X021795*
Y050545*
G37*
G36*
X019800Y051647D02*
X019859Y051659D01*
X019908Y051692*
X019941Y051741*
X019953Y051800*
X019941Y051859*
X019908Y051908*
X019859Y051941*
X019800Y051953*
X019741Y051941*
X019692Y051908*
X019659Y051859*
X019647Y051800*
X019659Y051741*
X019692Y051692*
X019741Y051659*
X019800Y051647*
G37*
G36*
X036800Y049350D02*
X036985Y049368D01*
X037164Y049422*
X037328Y049510*
X037472Y049628*
X037590Y049772*
X037678Y049936*
X037732Y050115*
X037750Y050300*
X037732Y050485*
X037678Y050664*
X037590Y050828*
X037472Y050972*
X037328Y051090*
X037164Y051178*
X036985Y051232*
X036800Y051250*
X036615Y051232*
X036436Y051178*
X036272Y051090*
X036128Y050972*
X036010Y050828*
X035922Y050664*
X035868Y050485*
X035850Y050300*
X035868Y050115*
X035922Y049936*
X036010Y049772*
X036128Y049628*
X036272Y049510*
X036436Y049422*
X036615Y049368*
X036800Y049350*
G37*
G36*
X019300Y050497D02*
X019359Y050509D01*
X019408Y050542*
X019441Y050591*
X019453Y050650*
X019441Y050709*
X019408Y050758*
X019359Y050791*
X019300Y050803*
X019241Y050791*
X019192Y050758*
X019159Y050709*
X019147Y050650*
X019159Y050591*
X019192Y050542*
X019241Y050509*
X019300Y050497*
G37*
G36*
X024200Y049350D02*
X024385Y049368D01*
X024564Y049422*
X024728Y049510*
X024872Y049628*
X024990Y049772*
X025078Y049936*
X025132Y050115*
X025150Y050300*
X025132Y050485*
X025078Y050664*
X024990Y050828*
X024872Y050972*
X024728Y051090*
X024564Y051178*
X024385Y051232*
X024200Y051250*
X024015Y051232*
X023836Y051178*
X023672Y051090*
X023528Y050972*
X023410Y050828*
X023322Y050664*
X023268Y050485*
X023250Y050300*
X023268Y050115*
X023322Y049936*
X023410Y049772*
X023528Y049628*
X023672Y049510*
X023836Y049422*
X024015Y049368*
X024200Y049350*
G37*
G36*
X032750Y044847D02*
X032809Y044859D01*
X032858Y044892*
X032891Y044941*
X032903Y045000*
X032891Y045059*
X032858Y045108*
X032809Y045141*
X032750Y045153*
X032691Y045141*
X032642Y045108*
X032609Y045059*
X032597Y045000*
X032609Y044941*
X032642Y044892*
X032691Y044859*
X032750Y044847*
G37*
G36*
X033250D02*
X033309Y044859D01*
X033358Y044892*
X033391Y044941*
X033403Y045000*
X033391Y045059*
X033358Y045108*
X033309Y045141*
X033250Y045153*
X033191Y045141*
X033142Y045108*
X033109Y045059*
X033097Y045000*
X033109Y044941*
X033142Y044892*
X033191Y044859*
X033250Y044847*
G37*
G36*
X032250D02*
X032309Y044859D01*
X032358Y044892*
X032391Y044941*
X032403Y045000*
X032391Y045059*
X032358Y045108*
X032309Y045141*
X032250Y045153*
X032191Y045141*
X032142Y045108*
X032109Y045059*
X032097Y045000*
X032109Y044941*
X032142Y044892*
X032191Y044859*
X032250Y044847*
G37*
G36*
X031250D02*
X031309Y044859D01*
X031358Y044892*
X031391Y044941*
X031403Y045000*
X031391Y045059*
X031358Y045108*
X031309Y045141*
X031250Y045153*
X031191Y045141*
X031142Y045108*
X031109Y045059*
X031097Y045000*
X031109Y044941*
X031142Y044892*
X031191Y044859*
X031250Y044847*
G37*
G36*
X031750D02*
X031809Y044859D01*
X031858Y044892*
X031891Y044941*
X031903Y045000*
X031891Y045059*
X031858Y045108*
X031809Y045141*
X031750Y045153*
X031691Y045141*
X031642Y045108*
X031609Y045059*
X031597Y045000*
X031609Y044941*
X031642Y044892*
X031691Y044859*
X031750Y044847*
G37*
G36*
X031250Y045347D02*
X031309Y045359D01*
X031358Y045392*
X031391Y045441*
X031403Y045500*
X031391Y045559*
X031358Y045608*
X031309Y045641*
X031250Y045653*
X031191Y045641*
X031142Y045608*
X031109Y045559*
X031097Y045500*
X031109Y045441*
X031142Y045392*
X031191Y045359*
X031250Y045347*
G37*
G36*
X031750D02*
X031809Y045359D01*
X031858Y045392*
X031891Y045441*
X031903Y045500*
X031891Y045559*
X031858Y045608*
X031809Y045641*
X031750Y045653*
X031691Y045641*
X031642Y045608*
X031609Y045559*
X031597Y045500*
X031609Y045441*
X031642Y045392*
X031691Y045359*
X031750Y045347*
G37*
G36*
X030750D02*
X030809Y045359D01*
X030858Y045392*
X030891Y045441*
X030903Y045500*
X030891Y045559*
X030858Y045608*
X030809Y045641*
X030750Y045653*
X030691Y045641*
X030642Y045608*
X030609Y045559*
X030597Y045500*
X030609Y045441*
X030642Y045392*
X030691Y045359*
X030750Y045347*
G37*
G36*
X017500Y045097D02*
X017559Y045109D01*
X017608Y045142*
X017641Y045191*
X017653Y045250*
X017641Y045309*
X017608Y045358*
X017559Y045391*
X017500Y045403*
X017441Y045391*
X017392Y045358*
X017359Y045309*
X017347Y045250*
X017359Y045191*
X017392Y045142*
X017441Y045109*
X017500Y045097*
G37*
G36*
X030250Y045347D02*
X030309Y045359D01*
X030358Y045392*
X030391Y045441*
X030403Y045500*
X030391Y045559*
X030358Y045608*
X030309Y045641*
X030250Y045653*
X030191Y045641*
X030142Y045608*
X030109Y045559*
X030097Y045500*
X030109Y045441*
X030142Y045392*
X030191Y045359*
X030250Y045347*
G37*
G36*
X024200Y036750D02*
X024385Y036768D01*
X024564Y036822*
X024728Y036910*
X024872Y037028*
X024990Y037172*
X025078Y037336*
X025132Y037515*
X025150Y037700*
X025132Y037885*
X025078Y038064*
X024990Y038228*
X024872Y038372*
X024728Y038490*
X024564Y038578*
X024385Y038632*
X024200Y038650*
X024015Y038632*
X023836Y038578*
X023672Y038490*
X023528Y038372*
X023410Y038228*
X023322Y038064*
X023268Y037885*
X023250Y037700*
X023268Y037515*
X023322Y037336*
X023410Y037172*
X023528Y037028*
X023672Y036910*
X023836Y036822*
X024015Y036768*
X024200Y036750*
G37*
G36*
X036800D02*
X036985Y036768D01*
X037164Y036822*
X037328Y036910*
X037472Y037028*
X037590Y037172*
X037678Y037336*
X037732Y037515*
X037750Y037700*
X037732Y037885*
X037678Y038064*
X037590Y038228*
X037472Y038372*
X037328Y038490*
X037164Y038578*
X036985Y038632*
X036800Y038650*
X036615Y038632*
X036436Y038578*
X036272Y038490*
X036128Y038372*
X036010Y038228*
X035922Y038064*
X035868Y037885*
X035850Y037700*
X035868Y037515*
X035922Y037336*
X036010Y037172*
X036128Y037028*
X036272Y036910*
X036436Y036822*
X036615Y036768*
X036800Y036750*
G37*
G36*
X022900Y038097D02*
X022959Y038109D01*
X023008Y038142*
X023041Y038191*
X023053Y038250*
X023041Y038309*
X023008Y038358*
X022959Y038391*
X022900Y038403*
X022841Y038391*
X022792Y038358*
X022759Y038309*
X022747Y038250*
X022759Y038191*
X022792Y038142*
X022841Y038109*
X022900Y038097*
G37*
G36*
X026150Y036697D02*
X026209Y036709D01*
X026258Y036742*
X026291Y036791*
X026303Y036850*
X026291Y036909*
X026258Y036958*
X026209Y036991*
X026150Y037003*
X026091Y036991*
X026042Y036958*
X026009Y036909*
X025997Y036850*
X026009Y036791*
X026042Y036742*
X026091Y036709*
X026150Y036697*
G37*
G36*
Y037297D02*
X026209Y037309D01*
X026258Y037342*
X026291Y037391*
X026303Y037450*
X026291Y037509*
X026258Y037558*
X026209Y037591*
X026150Y037603*
X026091Y037591*
X026042Y037558*
X026009Y037509*
X025997Y037450*
X026009Y037391*
X026042Y037342*
X026091Y037309*
X026150Y037297*
G37*
G36*
X017500Y042097D02*
X017559Y042109D01*
X017608Y042142*
X017641Y042191*
X017653Y042250*
X017641Y042309*
X017608Y042358*
X017559Y042391*
X017500Y042403*
X017441Y042391*
X017392Y042358*
X017359Y042309*
X017347Y042250*
X017359Y042191*
X017392Y042142*
X017441Y042109*
X017500Y042097*
G37*
G36*
X028750Y042347D02*
X028809Y042359D01*
X028858Y042392*
X028891Y042441*
X028903Y042500*
X028891Y042559*
X028858Y042608*
X028809Y042641*
X028750Y042653*
X028691Y042641*
X028642Y042608*
X028609Y042559*
X028597Y042500*
X028609Y042441*
X028642Y042392*
X028691Y042359*
X028750Y042347*
G37*
G36*
X019450Y041092D02*
D01*
X022300*
X022393Y041104*
X022479Y041140*
X022553Y041197*
X022610Y041271*
X022646Y041357*
X022658Y041450*
Y046550*
X022646Y046643*
X022610Y046729*
X022553Y046803*
X022479Y046860*
X022393Y046896*
X022300Y046908*
X019450*
X019357Y046896*
X019271Y046860*
X019197Y046803*
X019140Y046729*
X019104Y046643*
X019092Y046550*
Y041450*
X019104Y041357*
X019140Y041271*
X019197Y041197*
X019271Y041140*
X019357Y041104*
X019450Y041092*
G37*
G36*
X015900Y038997D02*
X015959Y039009D01*
X016008Y039042*
X016041Y039091*
X016053Y039150*
X016041Y039209*
X016008Y039258*
X015959Y039291*
X015900Y039303*
X015841Y039291*
X015792Y039258*
X015759Y039209*
X015747Y039150*
X015759Y039091*
X015792Y039042*
X015841Y039009*
X015900Y038997*
G37*
G36*
X013650Y039947D02*
X013709Y039959D01*
X013758Y039992*
X013791Y040041*
X013803Y040100*
X013791Y040159*
X013758Y040208*
X013709Y040241*
X013650Y040253*
X013591Y040241*
X013542Y040208*
X013509Y040159*
X013497Y040100*
X013509Y040041*
X013542Y039992*
X013591Y039959*
X013650Y039947*
G37*
G36*
X023250Y034347D02*
X023309Y034359D01*
X023358Y034392*
X023391Y034441*
X023403Y034500*
X023391Y034559*
X023358Y034608*
X023309Y034641*
X023250Y034653*
X023191Y034641*
X023142Y034608*
X023109Y034559*
X023097Y034500*
X023109Y034441*
X023142Y034392*
X023191Y034359*
X023250Y034347*
G37*
G36*
X024000D02*
X024059Y034359D01*
X024108Y034392*
X024141Y034441*
X024153Y034500*
X024141Y034559*
X024108Y034608*
X024059Y034641*
X024000Y034653*
X023941Y034641*
X023892Y034608*
X023859Y034559*
X023847Y034500*
X023859Y034441*
X023892Y034392*
X023941Y034359*
X024000Y034347*
G37*
G36*
X022450D02*
X022509Y034359D01*
X022558Y034392*
X022591Y034441*
X022603Y034500*
X022591Y034559*
X022558Y034608*
X022509Y034641*
X022450Y034653*
X022391Y034641*
X022342Y034608*
X022309Y034559*
X022297Y034500*
X022309Y034441*
X022342Y034392*
X022391Y034359*
X022450Y034347*
G37*
G36*
X019300D02*
X019359Y034359D01*
X019408Y034392*
X019441Y034441*
X019453Y034500*
X019441Y034559*
X019408Y034608*
X019359Y034641*
X019300Y034653*
X019241Y034641*
X019192Y034608*
X019159Y034559*
X019147Y034500*
X019159Y034441*
X019192Y034392*
X019241Y034359*
X019300Y034347*
G37*
G36*
X021650D02*
X021709Y034359D01*
X021758Y034392*
X021791Y034441*
X021803Y034500*
X021791Y034559*
X021758Y034608*
X021709Y034641*
X021650Y034653*
X021591Y034641*
X021542Y034608*
X021509Y034559*
X021497Y034500*
X021509Y034441*
X021542Y034392*
X021591Y034359*
X021650Y034347*
G37*
G36*
X024000Y034847D02*
X024059Y034859D01*
X024108Y034892*
X024141Y034941*
X024153Y035000*
X024141Y035059*
X024108Y035108*
X024059Y035141*
X024000Y035153*
X023941Y035141*
X023892Y035108*
X023859Y035059*
X023847Y035000*
X023859Y034941*
X023892Y034892*
X023941Y034859*
X024000Y034847*
G37*
G36*
X026600Y036447D02*
X026659Y036459D01*
X026708Y036492*
X026741Y036541*
X026753Y036600*
X026741Y036659*
X026708Y036708*
X026659Y036741*
X026600Y036753*
X026541Y036741*
X026492Y036708*
X026459Y036659*
X026447Y036600*
X026459Y036541*
X026492Y036492*
X026541Y036459*
X026600Y036447*
G37*
G36*
X022450Y034847D02*
X022509Y034859D01*
X022558Y034892*
X022591Y034941*
X022603Y035000*
X022591Y035059*
X022558Y035108*
X022509Y035141*
X022450Y035153*
X022391Y035141*
X022342Y035108*
X022309Y035059*
X022297Y035000*
X022309Y034941*
X022342Y034892*
X022391Y034859*
X022450Y034847*
G37*
G36*
X019300D02*
X019359Y034859D01*
X019408Y034892*
X019441Y034941*
X019453Y035000*
X019441Y035059*
X019408Y035108*
X019359Y035141*
X019300Y035153*
X019241Y035141*
X019192Y035108*
X019159Y035059*
X019147Y035000*
X019159Y034941*
X019192Y034892*
X019241Y034859*
X019300Y034847*
G37*
G36*
X021650D02*
X021709Y034859D01*
X021758Y034892*
X021791Y034941*
X021803Y035000*
X021791Y035059*
X021758Y035108*
X021709Y035141*
X021650Y035153*
X021591Y035141*
X021542Y035108*
X021509Y035059*
X021497Y035000*
X021509Y034941*
X021542Y034892*
X021591Y034859*
X021650Y034847*
G37*
G36*
X030250Y042347D02*
X030309Y042359D01*
X030358Y042392*
X030391Y042441*
X030403Y042500*
X030391Y042559*
X030358Y042608*
X030309Y042641*
X030250Y042653*
X030191Y042641*
X030142Y042608*
X030109Y042559*
X030097Y042500*
X030109Y042441*
X030142Y042392*
X030191Y042359*
X030250Y042347*
G37*
G36*
X033250Y042847D02*
X033309Y042859D01*
X033358Y042892*
X033391Y042941*
X033403Y043000*
X033391Y043059*
X033358Y043108*
X033309Y043141*
X033250Y043153*
X033191Y043141*
X033142Y043108*
X033109Y043059*
X033097Y043000*
X033109Y042941*
X033142Y042892*
X033191Y042859*
X033250Y042847*
G37*
G36*
X030250Y043347D02*
X030309Y043359D01*
X030358Y043392*
X030391Y043441*
X030403Y043500*
X030391Y043559*
X030358Y043608*
X030309Y043641*
X030250Y043653*
X030191Y043641*
X030142Y043608*
X030109Y043559*
X030097Y043500*
X030109Y043441*
X030142Y043392*
X030191Y043359*
X030250Y043347*
G37*
G36*
X032750Y042847D02*
X032809Y042859D01*
X032858Y042892*
X032891Y042941*
X032903Y043000*
X032891Y043059*
X032858Y043108*
X032809Y043141*
X032750Y043153*
X032691Y043141*
X032642Y043108*
X032609Y043059*
X032597Y043000*
X032609Y042941*
X032642Y042892*
X032691Y042859*
X032750Y042847*
G37*
G36*
X031750D02*
X031809Y042859D01*
X031858Y042892*
X031891Y042941*
X031903Y043000*
X031891Y043059*
X031858Y043108*
X031809Y043141*
X031750Y043153*
X031691Y043141*
X031642Y043108*
X031609Y043059*
X031597Y043000*
X031609Y042941*
X031642Y042892*
X031691Y042859*
X031750Y042847*
G37*
G36*
X032250D02*
X032309Y042859D01*
X032358Y042892*
X032391Y042941*
X032403Y043000*
X032391Y043059*
X032358Y043108*
X032309Y043141*
X032250Y043153*
X032191Y043141*
X032142Y043108*
X032109Y043059*
X032097Y043000*
X032109Y042941*
X032142Y042892*
X032191Y042859*
X032250Y042847*
G37*
G36*
Y043347D02*
X032309Y043359D01*
X032358Y043392*
X032391Y043441*
X032403Y043500*
X032391Y043559*
X032358Y043608*
X032309Y043641*
X032250Y043653*
X032191Y043641*
X032142Y043608*
X032109Y043559*
X032097Y043500*
X032109Y043441*
X032142Y043392*
X032191Y043359*
X032250Y043347*
G37*
G36*
X032750D02*
X032809Y043359D01*
X032858Y043392*
X032891Y043441*
X032903Y043500*
X032891Y043559*
X032858Y043608*
X032809Y043641*
X032750Y043653*
X032691Y043641*
X032642Y043608*
X032609Y043559*
X032597Y043500*
X032609Y043441*
X032642Y043392*
X032691Y043359*
X032750Y043347*
G37*
G36*
X031750D02*
X031809Y043359D01*
X031858Y043392*
X031891Y043441*
X031903Y043500*
X031891Y043559*
X031858Y043608*
X031809Y043641*
X031750Y043653*
X031691Y043641*
X031642Y043608*
X031609Y043559*
X031597Y043500*
X031609Y043441*
X031642Y043392*
X031691Y043359*
X031750Y043347*
G37*
G36*
X030750D02*
X030809Y043359D01*
X030858Y043392*
X030891Y043441*
X030903Y043500*
X030891Y043559*
X030858Y043608*
X030809Y043641*
X030750Y043653*
X030691Y043641*
X030642Y043608*
X030609Y043559*
X030597Y043500*
X030609Y043441*
X030642Y043392*
X030691Y043359*
X030750Y043347*
G37*
G36*
X031250D02*
X031309Y043359D01*
X031358Y043392*
X031391Y043441*
X031403Y043500*
X031391Y043559*
X031358Y043608*
X031309Y043641*
X031250Y043653*
X031191Y043641*
X031142Y043608*
X031109Y043559*
X031097Y043500*
X031109Y043441*
X031142Y043392*
X031191Y043359*
X031250Y043347*
G37*
G36*
X032250Y042347D02*
X032309Y042359D01*
X032358Y042392*
X032391Y042441*
X032403Y042500*
X032391Y042559*
X032358Y042608*
X032309Y042641*
X032250Y042653*
X032191Y042641*
X032142Y042608*
X032109Y042559*
X032097Y042500*
X032109Y042441*
X032142Y042392*
X032191Y042359*
X032250Y042347*
G37*
G36*
X032750D02*
X032809Y042359D01*
X032858Y042392*
X032891Y042441*
X032903Y042500*
X032891Y042559*
X032858Y042608*
X032809Y042641*
X032750Y042653*
X032691Y042641*
X032642Y042608*
X032609Y042559*
X032597Y042500*
X032609Y042441*
X032642Y042392*
X032691Y042359*
X032750Y042347*
G37*
G36*
X031750D02*
X031809Y042359D01*
X031858Y042392*
X031891Y042441*
X031903Y042500*
X031891Y042559*
X031858Y042608*
X031809Y042641*
X031750Y042653*
X031691Y042641*
X031642Y042608*
X031609Y042559*
X031597Y042500*
X031609Y042441*
X031642Y042392*
X031691Y042359*
X031750Y042347*
G37*
G36*
X030750D02*
X030809Y042359D01*
X030858Y042392*
X030891Y042441*
X030903Y042500*
X030891Y042559*
X030858Y042608*
X030809Y042641*
X030750Y042653*
X030691Y042641*
X030642Y042608*
X030609Y042559*
X030597Y042500*
X030609Y042441*
X030642Y042392*
X030691Y042359*
X030750Y042347*
G37*
G36*
X031250D02*
X031309Y042359D01*
X031358Y042392*
X031391Y042441*
X031403Y042500*
X031391Y042559*
X031358Y042608*
X031309Y042641*
X031250Y042653*
X031191Y042641*
X031142Y042608*
X031109Y042559*
X031097Y042500*
X031109Y042441*
X031142Y042392*
X031191Y042359*
X031250Y042347*
G37*
G36*
X030750Y042847D02*
X030809Y042859D01*
X030858Y042892*
X030891Y042941*
X030903Y043000*
X030891Y043059*
X030858Y043108*
X030809Y043141*
X030750Y043153*
X030691Y043141*
X030642Y043108*
X030609Y043059*
X030597Y043000*
X030609Y042941*
X030642Y042892*
X030691Y042859*
X030750Y042847*
G37*
G36*
X031250D02*
X031309Y042859D01*
X031358Y042892*
X031391Y042941*
X031403Y043000*
X031391Y043059*
X031358Y043108*
X031309Y043141*
X031250Y043153*
X031191Y043141*
X031142Y043108*
X031109Y043059*
X031097Y043000*
X031109Y042941*
X031142Y042892*
X031191Y042859*
X031250Y042847*
G37*
G36*
X030250D02*
X030309Y042859D01*
X030358Y042892*
X030391Y042941*
X030403Y043000*
X030391Y043059*
X030358Y043108*
X030309Y043141*
X030250Y043153*
X030191Y043141*
X030142Y043108*
X030109Y043059*
X030097Y043000*
X030109Y042941*
X030142Y042892*
X030191Y042859*
X030250Y042847*
G37*
G36*
X033250Y042347D02*
X033309Y042359D01*
X033358Y042392*
X033391Y042441*
X033403Y042500*
X033391Y042559*
X033358Y042608*
X033309Y042641*
X033250Y042653*
X033191Y042641*
X033142Y042608*
X033109Y042559*
X033097Y042500*
X033109Y042441*
X033142Y042392*
X033191Y042359*
X033250Y042347*
G37*
G36*
X017500Y042847D02*
X017559Y042859D01*
X017608Y042892*
X017641Y042941*
X017653Y043000*
X017641Y043059*
X017608Y043108*
X017559Y043141*
X017500Y043153*
X017441Y043141*
X017392Y043108*
X017359Y043059*
X017347Y043000*
X017359Y042941*
X017392Y042892*
X017441Y042859*
X017500Y042847*
G37*
%LNarray-3*%
%LPD*%
G54D66*
X035000Y027650D03*
G54D67*
X016900Y030000D03*
X035400Y016350D03*
X012550Y015400D03*
G54D69*
X031950Y030100D03*
G54D73*
X033550Y016600D03*
X033200D03*
X032850D03*
X029200Y018200D03*
X032550Y021900D03*
X031350Y019650D03*
X012750Y028750D03*
X029400Y010800D03*
X015500Y021900D03*
X032450Y017900D03*
X032350Y016200D03*
X029250D03*
X015250Y028450D03*
X015150Y025300D03*
X025100Y011900D03*
X025600D03*
X025350D03*
X011500Y012600D03*
X011900D03*
X011700D03*
X030488Y026200D03*
Y025700D03*
Y026700D03*
X023100Y029700D03*
X023400D03*
X020550Y027800D03*
X018450Y026850D03*
X019000Y026100D03*
X027700Y022650D03*
X028200Y014550D03*
Y014300D03*
Y014050D03*
X027300D03*
Y014300D03*
Y014550D03*
X015450Y016400D03*
X015250Y016200D03*
X015050Y016000D03*
X015450D03*
X020100Y017900D03*
Y017650D03*
X011900Y020788D03*
X011500D03*
X011700D03*
X011500Y025538D03*
X011900D03*
X011700D03*
X037250Y026312D03*
X036850D03*
X037050D03*
X027550Y018850D03*
X019050Y022550D03*
Y021050D03*
Y020050D03*
X020400Y019550D03*
X020350Y018550D03*
X021850Y022450D03*
X024000Y018050D03*
X022100Y028050D03*
X023250D03*
X026650Y027600D03*
X030550Y023850D03*
X029150Y022150D03*
X029650D03*
X037950Y023750D03*
X032100Y027100D03*
X031850Y025100D03*
X035000D03*
X034950Y026800D03*
X026950Y017800D03*
X011350Y018900D03*
Y019250D03*
Y018550D03*
X028750Y041850D03*
X027300Y043600D03*
X019150Y051800D03*
X011100Y046050D03*
Y045150D03*
Y044200D03*
Y043100D03*
Y042750D03*
X011400Y041550D03*
X011950Y036950D03*
X013050Y038150D03*
Y037850D03*
X012500Y039150D03*
X012050Y039250D03*
X023250Y035000D03*
X014403Y039747D03*
Y039353D03*
X016150Y038350D03*
X016200Y040750D03*
X013350Y039050D03*
X013000Y039150D03*
X014797Y039747D03*
Y039353D03*
X017200Y047050D03*
X016050D03*
G54D74*
X033667Y026633D03*
X033233D03*
X033667Y027067D03*
X033233D03*
X031017Y017733D03*
X030583D03*
X031017Y018167D03*
X030583D03*
X016550Y010800D03*
G54D75*
X028721Y050641D03*
X032279D03*
Y037359D03*
X031619Y039822D03*
X025639Y048861D03*
X023859Y045779D03*
Y042221D03*
X026322Y042881D03*
Y045119D03*
X027442Y047058D03*
X029381Y048178D03*
X031619D03*
X033558Y047058D03*
X035361Y048861D03*
Y039139D03*
X033558Y040942D03*
X034678Y042881D03*
Y045119D03*
X037141Y045779D03*
Y042221D03*
G54D76*
X030500Y039250D03*
X026540Y040040D03*
X026386Y041625D03*
X025091Y042551D03*
X025750Y044000D03*
X030500Y037550D03*
X031949Y038591D03*
X032875Y039886D03*
X033725Y038414D03*
X034460Y040040D03*
X034614Y041625D03*
X036086Y040775D03*
X035909Y042551D03*
X024914Y040775D03*
X024050Y044000D03*
X025091Y045449D03*
X024914Y047225D03*
X026386Y046375D03*
X026540Y047960D03*
X027275Y049586D03*
X028125Y048114D03*
X029051Y049409D03*
X030500Y050450D03*
Y048750D03*
X031949Y049409D03*
X032875Y048114D03*
X033725Y049586D03*
X034460Y047960D03*
X034614Y046375D03*
X036086Y047225D03*
X035909Y045449D03*
X036950Y044000D03*
X035250D03*
M02*