%FSDAX24Y24*%
%MOIN*%
%SFA1B1*%

%IPPOS*%
%ADD42C,0.010000*%
%ADD80C,0.005000*%
%ADD81C,0.007900*%
%LNarray-1*%
%LPD*%
G36*
X019356Y010793D02*
X019292D01*
X019181Y011256*
X019246*
X019356Y010793*
G37*
G36*
X019588Y011255D02*
X019605Y011253D01*
X019613Y011252*
X019621Y011251*
X019627Y011249*
X019633Y011248*
X019639Y011246*
X019644Y011245*
X019648Y011243*
X019652Y011242*
X019655Y011241*
X019657Y011240*
X019658*
X019671Y011233*
X019682Y011226*
X019692Y011219*
X019700Y011211*
X019706Y011205*
X019711Y011199*
X019712Y011197*
X019713Y011196*
X019714Y011195*
Y011194*
X019721Y011183*
X019725Y011172*
X019729Y011161*
X019731Y011151*
X019732Y011143*
X019733Y011139*
Y011136*
Y011134*
Y011132*
Y011131*
Y011130*
Y011120*
X019731Y011111*
X019729Y011102*
X019727Y011094*
X019724Y011086*
X019720Y011078*
X019717Y011071*
X019713Y011065*
X019709Y011059*
X019705Y011054*
X019702Y011050*
X019699Y011047*
X019696Y011044*
X019694Y011042*
X019693Y011041*
X019692Y011040*
X019686Y011035*
X019679Y011031*
X019672Y011026*
X019664Y011022*
X019647Y011015*
X019630Y011008*
X019622Y011005*
X019614Y011003*
X019608Y011001*
X019602Y010999*
X019597Y010998*
X019593Y010997*
X019591Y010996*
X019590*
X019580Y010993*
X019570Y010991*
X019562Y010989*
X019555Y010987*
X019548Y010985*
X019542Y010983*
X019537Y010982*
X019532Y010980*
X019528Y010979*
X019525Y010978*
X019523Y010977*
X019521*
X019519Y010976*
X019518*
X019517*
X019509Y010973*
X019503Y010969*
X019497Y010966*
X019493Y010963*
X019489Y010960*
X019487Y010958*
X019486Y010957*
X019485Y010956*
X019482Y010952*
X019480Y010947*
X019478Y010943*
X019477Y010939*
X019476Y010935*
Y010932*
Y010930*
Y010929*
Y010925*
X019477Y010920*
X019479Y010912*
X019483Y010905*
X019487Y010899*
X019491Y010893*
X019495Y010890*
X019497Y010887*
X019498Y010886*
X019503Y010883*
X019507Y010880*
X019518Y010876*
X019529Y010872*
X019539Y010870*
X019549Y010869*
X019553Y010868*
X019557*
X019560*
X019564*
X019579Y010869*
X019592Y010871*
X019603Y010874*
X019613Y010878*
X019617Y010880*
X019620Y010882*
X019623Y010884*
X019626Y010885*
X019628Y010886*
X019629Y010887*
X019630Y010888*
X019635Y010892*
X019638Y010897*
X019645Y010907*
X019651Y010918*
X019655Y010929*
X019658Y010939*
X019660Y010943*
X019661Y010946*
Y010950*
X019662Y010952*
Y010953*
Y010954*
X019750Y010945*
X019748Y010932*
X019745Y010919*
X019742Y010907*
X019738Y010895*
X019734Y010885*
X019729Y010876*
X019725Y010867*
X019720Y010859*
X019715Y010853*
X019711Y010847*
X019707Y010842*
X019703Y010838*
X019700Y010834*
X019698Y010832*
X019697Y010831*
X019696Y010830*
X019687Y010823*
X019677Y010817*
X019667Y010812*
X019656Y010808*
X019645Y010804*
X019634Y010801*
X019624Y010798*
X019613Y010797*
X019603Y010795*
X019594Y010794*
X019586Y010793*
X019579Y010792*
X019573*
X019568*
X019554*
X019544*
X019534Y010793*
X019525Y010794*
X019516Y010795*
X019508Y010797*
X019501Y010798*
X019495Y010799*
X019488Y010801*
X019483Y010802*
X019479Y010804*
X019475Y010805*
X019472Y010806*
X019470Y010807*
X019468*
X019454Y010814*
X019442Y010822*
X019431Y010830*
X019422Y010838*
X019416Y010846*
X019411Y010852*
X019409Y010854*
X019408Y010856*
X019407Y010857*
X019403Y010864*
X019400Y010870*
X019394Y010883*
X019390Y010895*
X019388Y010906*
X019387Y010911*
X019386Y010916*
Y010920*
Y010923*
X019385Y010926*
Y010928*
Y010929*
Y010930*
X019386Y010945*
X019388Y010959*
X019391Y010971*
X019394Y010981*
X019396Y010986*
X019398Y010990*
X019399Y010993*
X019400Y010996*
X019402Y010998*
Y011000*
X019403Y011001*
X019411Y011012*
X019419Y011021*
X019427Y011028*
X019435Y011035*
X019442Y011040*
X019448Y011044*
X019450Y011045*
X019452Y011046*
X019453Y011047*
X019460Y011049*
X019466Y011053*
X019474Y011056*
X019482Y011059*
X019498Y011064*
X019513Y011069*
X019521Y011071*
X019528Y011073*
X019534Y011075*
X019539Y011076*
X019544Y011077*
X019547Y011078*
X019549Y011079*
X019550*
X019562Y011082*
X019573Y011085*
X019582Y011088*
X019591Y011090*
X019599Y011093*
X019606Y011095*
X019612Y011098*
X019617Y011100*
X019621Y011102*
X019625Y011104*
X019628Y011105*
X019630Y011107*
X019632Y011108*
X019633Y011109*
X019634*
X019638Y011114*
X019641Y011118*
X019644Y011123*
X019645Y011127*
X019646Y011131*
X019647Y011134*
Y011136*
X019646Y011142*
X019645Y011148*
X019642Y011153*
X019640Y011157*
X019637Y011160*
X019635Y011162*
X019633Y011164*
X019624Y011170*
X019614Y011174*
X019603Y011177*
X019593Y011179*
X019584Y011180*
X019581*
X019577Y011181*
X019571*
X019557Y011180*
X019546Y011178*
X019536Y011176*
X019528Y011173*
X019522Y011170*
X019517Y011168*
X019515Y011166*
X019514Y011165*
X019507Y011159*
X019502Y011151*
X019498Y011143*
X019494Y011135*
X019492Y011127*
X019490Y011121*
X019489Y011119*
Y011117*
Y011116*
X019398Y011119*
X019399Y011131*
X019401Y011141*
X019403Y011151*
X019406Y011161*
X019410Y011170*
X019414Y011178*
X019418Y011185*
X019422Y011192*
X019426Y011198*
X019430Y011203*
X019433Y011208*
X019437Y011212*
X019439Y011214*
X019441Y011217*
X019443Y011218*
X019452Y011225*
X019461Y011231*
X019471Y011236*
X019481Y011240*
X019492Y011244*
X019502Y011247*
X019512Y011249*
X019522Y011251*
X019532Y011253*
X019541Y011254*
X019549Y011255*
X019556*
X019562Y011256*
X019570*
X019588Y011255*
G37*
G36*
X018668Y010800D02*
X018582D01*
Y010886*
X018668*
Y010800*
G37*
G36*
Y011039D02*
X018582D01*
Y011125*
X018668*
Y011039*
G37*
G36*
X019135Y010800D02*
X019051D01*
Y011094*
X018870Y010800*
X018779*
Y011248*
X018863*
Y010947*
X019047Y011248*
X019135*
Y010800*
G37*
G36*
X037500Y036050D02*
X038350D01*
Y033050*
X037500*
Y036050*
G37*
G36*
Y054900D02*
X038350D01*
Y051900*
X037500*
Y054900*
G37*
%LNarray-2*%
%LPC*%
G36*
X037925Y033980D02*
X037943D01*
X037947*
X037952*
X037958Y033981*
X037963*
X037976Y033983*
X037990Y033985*
X038004Y033988*
X038017Y033992*
X038019Y033993*
X038021*
X038024Y033994*
X038028Y033996*
X038032Y033998*
X038036Y034000*
X038041Y034002*
X038052Y034008*
X038063Y034015*
X038075Y034023*
X038085Y034033*
X038086Y034034*
X038087Y034035*
X038088Y034037*
X038090Y034038*
X038092Y034041*
X038096Y034047*
X038101Y034055*
X038106Y034064*
X038111Y034075*
X038116Y034088*
Y034089*
X038117Y034090*
Y034092*
X038118Y034095*
Y034098*
X038119Y034102*
X038120Y034106*
X038121Y034110*
Y034115*
X038122Y034121*
Y034127*
X038123Y034134*
Y034141*
X038124Y034156*
Y034302*
X037739*
Y034160*
Y034158*
Y034156*
Y034153*
X037740Y034148*
Y034144*
Y034138*
Y034133*
X037741Y034121*
X037743Y034109*
X037744Y034097*
X037746Y034092*
X037747Y034087*
Y034085*
X037748Y034084*
X037749Y034082*
X037750Y034079*
X037751Y034075*
X037755Y034067*
X037760Y034058*
X037766Y034049*
X037773Y034039*
X037782Y034029*
X037783*
X037784Y034028*
X037785Y034027*
X037787Y034025*
X037789Y034023*
X037792Y034021*
X037796Y034018*
X037800Y034016*
X037804Y034013*
X037809Y034010*
X037819Y034004*
X037831Y033998*
X037845Y033993*
X037846Y033992*
X037848Y033991*
X037851Y033990*
X037855*
X037859Y033988*
X037864Y033987*
X037870Y033986*
X037876Y033985*
X037883Y033984*
X037890Y033983*
X037898Y033982*
X037907Y033981*
X037916Y033980*
X037925*
G37*
G36*
X037739Y034384D02*
X038124D01*
Y034462*
X037871Y034617*
X038124*
Y034689*
X037739*
Y034614*
X037997Y034456*
X037739*
Y034384*
G37*
G36*
Y054306D02*
X038124Y054443D01*
Y054526*
X037739Y054664*
Y054580*
X038024Y054482*
X037739Y054388*
Y054306*
G37*
G36*
X038006Y053945D02*
X038017D01*
X038019*
X038022*
X038029Y053946*
X038036Y053948*
X038045Y053950*
X038054Y053953*
X038063Y053957*
X038064*
X038065*
X038066Y053958*
X038068Y053959*
X038072Y053962*
X038077Y053966*
X038084Y053970*
X038091Y053976*
X038097Y053983*
X038103Y053990*
Y053991*
X038104Y053993*
X038105Y053994*
X038108Y053999*
X038111Y054005*
X038114Y054012*
X038117Y054021*
X038119Y054031*
X038121Y054042*
Y054043*
Y054044*
Y054046*
Y054049*
X038122Y054052*
Y054056*
Y054061*
Y054067*
X038123Y054074*
Y054082*
Y054090*
Y054100*
Y054111*
X038124Y054123*
Y054136*
Y054266*
X037739*
Y054113*
Y054111*
Y054109*
Y054106*
Y054102*
Y054097*
X037740Y054093*
Y054088*
Y054076*
X037741Y054065*
X037742Y054055*
Y054049*
X037743Y054045*
Y054044*
X037744Y054043*
Y054041*
X037745Y054037*
X037747Y054032*
X037749Y054026*
X037752Y054019*
X037755Y054012*
X037759Y054005*
X037760Y054004*
X037761Y054002*
X037764Y053999*
X037768Y053995*
X037773Y053990*
X037778Y053985*
X037784Y053980*
X037791Y053975*
X037792*
X037795Y053974*
X037799Y053972*
X037804Y053969*
X037811Y053967*
X037818Y053965*
X037827Y053964*
X037836Y053963*
X037841*
X037843Y053964*
X037846*
X037852Y053965*
X037860Y053967*
X037868Y053969*
X037877Y053973*
X037886Y053978*
Y053979*
X037888*
X037889Y053981*
X037893Y053984*
X037898Y053988*
X037904Y053994*
X037910Y054001*
X037915Y054008*
X037919Y054017*
X037920Y054016*
X037921Y054014*
X037922Y054011*
Y054009*
X037924Y054005*
X037928Y053997*
X037933Y053989*
X037939Y053980*
X037946Y053971*
X037955Y053963*
X037956*
X037957Y053962*
X037959Y053960*
X037961Y053959*
X037964Y053957*
X037967Y053956*
X037971Y053954*
X037979Y053951*
X037989Y053948*
X038000Y053945*
X038006*
G37*
G36*
X038124Y053532D02*
Y053617D01*
X038036Y053651*
Y053804*
X038124Y053836*
Y053918*
X037739Y053769*
Y053686*
X038124Y053532*
G37*
G36*
X037845Y052346D02*
X038124D01*
Y052415*
X038082*
X038083*
X038084Y052416*
X038086Y052417*
X038090Y052421*
X038095Y052425*
X038100Y052431*
X038106Y052438*
X038112Y052446*
X038117Y052455*
X038118Y052456*
Y052457*
X038119Y052459*
X038120Y052461*
X038121Y052464*
X038124Y052471*
X038126Y052478*
X038128Y052487*
X038130Y052497*
Y052507*
Y052508*
Y052510*
Y052512*
Y052514*
X038129Y052517*
X038128Y052524*
X038127Y052532*
X038125Y052540*
X038122Y052549*
X038118Y052557*
Y052558*
X038116Y052561*
X038113Y052565*
X038109Y052570*
X038104Y052575*
X038098Y052581*
X038091Y052585*
X038083Y052590*
X038082*
X038081*
X038079Y052591*
X038077Y052592*
X038074Y052593*
X038071*
X038067Y052594*
X038063Y052596*
X038059*
X038053Y052597*
X038048Y052598*
X038042Y052599*
X038036*
X038022*
X037845*
Y052526*
X037987*
X037992Y052525*
X038004*
X038017*
X038023*
X038028Y052524*
X038034*
X038038Y052523*
X038042*
X038045Y052522*
X038046*
X038047Y052521*
X038050Y052520*
X038053Y052519*
X038056Y052516*
X038059Y052514*
X038063Y052511*
X038066Y052507*
X038067Y052505*
X038068Y052503*
X038070Y052500*
X038071Y052495*
X038072Y052491*
X038073Y052486*
X038074Y052480*
Y052479*
Y052477*
X038073Y052473*
X038072Y052468*
X038071Y052463*
X038069Y052457*
X038067Y052451*
X038063Y052446*
Y052445*
X038062Y052443*
X038059Y052441*
X038056Y052438*
X038053Y052434*
X038048Y052431*
X038043Y052428*
X038038Y052425*
X038037*
X038036*
X038034Y052424*
X038032*
X038029*
X038026Y052423*
X038023Y052422*
X038018*
X038012Y052421*
X038006*
X037999*
X037992Y052420*
X037983*
X037973*
X037845*
Y052346*
G37*
G36*
X038119Y052136D02*
Y052137D01*
X038120Y052138*
Y052139*
X038121Y052141*
X038122Y052143*
X038123Y052146*
X038124Y052150*
Y052153*
X038127Y052162*
X038128Y052172*
X038130Y052183*
Y052195*
Y052198*
Y052202*
X038129Y052207*
X038128Y052212*
X038127Y052218*
X038126Y052224*
X038124Y052230*
X038123Y052231*
X038122Y052233*
X038121Y052236*
X038119Y052239*
X038116Y052243*
X038113Y052247*
X038110Y052251*
X038106Y052254*
X038104Y052255*
X038102Y052257*
X038098Y052258*
X038094Y052260*
X038089Y052261*
X038084Y052263*
X038077Y052264*
X038075Y052265*
X038071*
X038066*
X038063Y052266*
X038059*
X038055*
X038050*
X038045*
X037904*
Y052300*
X037845*
Y052266*
X037790*
X037747Y052193*
X037845*
Y052142*
X037904*
Y052193*
X038034*
X038041Y052192*
X038047*
X038050*
X038053*
X038055*
X038056*
X038057Y052191*
X038059Y052190*
X038062Y052188*
X038065Y052185*
X038066Y052184*
X038067Y052182*
X038068Y052178*
X038069Y052173*
Y052172*
Y052171*
X038068Y052168*
Y052165*
X038067Y052161*
X038066Y052156*
X038064Y052150*
X038062Y052143*
X038119Y052136*
G37*
G36*
X037932Y052658D02*
X037939D01*
X037941*
X037948*
X037955Y052659*
X037964Y052660*
X037975Y052662*
X037985Y052664*
X037997Y052667*
X038008Y052670*
X038021Y052674*
X038033Y052679*
X038045Y052685*
X038056Y052692*
X038068Y052700*
X038078Y052709*
X038080Y052711*
X038082Y052714*
X038086Y052718*
X038090Y052723*
X038094Y052729*
X038099Y052736*
X038104Y052745*
X038109Y052754*
X038113Y052764*
X038118Y052775*
X038122Y052787*
X038125Y052800*
X038128Y052813*
X038130Y052828*
Y052843*
Y052844*
Y052846*
Y052847*
Y052852*
X038129Y052858*
X038128Y052865*
X038127Y052873*
X038126Y052882*
X038124Y052893*
X038121Y052903*
X038117Y052914*
X038113Y052926*
X038108Y052937*
X038102Y052948*
X038095Y052959*
X038087Y052970*
X038078Y052979*
X038077Y052980*
X038075Y052982*
X038072Y052984*
X038068Y052987*
X038063Y052991*
X038056Y052995*
X038049Y053000*
X038040Y053005*
X038031Y053009*
X038020Y053014*
X038008Y053018*
X037995Y053022*
X037981Y053025*
X037967Y053028*
X037951Y053030*
X037934*
X037928*
X037924*
X037919*
X037913Y053029*
X037907*
X037900Y053028*
X037892Y053027*
X037884Y053026*
X037868Y053023*
X037851Y053018*
X037843Y053016*
X037836Y053013*
X037835*
X037834Y053012*
X037833*
X037830Y053010*
X037828Y053009*
X037825Y053007*
X037818Y053003*
X037810Y052998*
X037801Y052992*
X037792Y052985*
X037783Y052977*
X037782Y052976*
X037781Y052975*
X037779Y052973*
X037775Y052968*
X037770Y052962*
X037764Y052955*
X037759Y052947*
X037753Y052937*
X037748Y052927*
X037747Y052926*
Y052923*
X037746Y052921*
X037745Y052917*
X037744Y052914*
X037742Y052909*
X037741Y052903*
X037739Y052898*
X037738Y052891*
X037736Y052884*
X037735Y052877*
X037734Y052862*
X037733Y052845*
Y052844*
Y052843*
Y052841*
Y052837*
X037734Y052831*
X037735Y052823*
X037736Y052815*
X037737Y052806*
X037739Y052796*
X037742Y052785*
X037746Y052774*
X037750Y052762*
X037755Y052751*
X037761Y052740*
X037768Y052729*
X037776Y052718*
X037786Y052709*
Y052708*
X037788Y052706*
X037791Y052704*
X037796Y052700*
X037801Y052697*
X037807Y052692*
X037815Y052688*
X037824Y052683*
X037834Y052678*
X037845Y052674*
X037857Y052670*
X037870Y052666*
X037884Y052662*
X037899Y052660*
X037915Y052658*
X037932*
G37*
G36*
X037918Y034761D02*
X038071D01*
Y034762*
X038073Y034764*
X038074Y034766*
X038077Y034768*
X038079Y034771*
X038082Y034775*
X038085Y034779*
X038088Y034784*
X038091Y034789*
X038095Y034795*
X038098Y034801*
X038102Y034808*
X038106Y034816*
X038109Y034823*
X038112Y034832*
X038113Y034834*
X038114Y034837*
X038115Y034840*
X038116Y034844*
X038118Y034849*
X038120Y034855*
X038121Y034861*
X038123Y034868*
X038124Y034875*
X038127Y034891*
X038129Y034908*
X038130Y034926*
Y034928*
Y034932*
Y034936*
X038129Y034941*
Y034947*
X038128Y034954*
X038127Y034962*
X038125Y034969*
X038124Y034978*
X038122Y034986*
X038119Y034995*
X038116Y035004*
X038113Y035013*
X038109Y035022*
X038105Y035031*
X038104*
X038103Y035033*
X038102Y035035*
X038100Y035038*
X038097Y035042*
X038094Y035046*
X038091Y035051*
X038086Y035056*
X038082Y035061*
X038076Y035067*
X038070Y035072*
X038064Y035078*
X038057Y035083*
X038049Y035089*
X038041Y035093*
X038033Y035098*
X038032*
X038031Y035099*
X038028Y035100*
X038025Y035101*
X038020Y035103*
X038015Y035105*
X038009Y035107*
X038002Y035109*
X037995Y035111*
X037987Y035113*
X037978Y035115*
X037970Y035117*
X037951Y035119*
X037940Y035120*
X037930*
X037924*
X037920*
X037915Y035119*
X037909*
X037902Y035118*
X037894Y035117*
X037886Y035116*
X037878Y035114*
X037869Y035112*
X037860Y035110*
X037851Y035107*
X037842Y035104*
X037833Y035100*
X037824Y035095*
X037823*
X037821Y035094*
X037819Y035093*
X037816Y035091*
X037812Y035088*
X037807Y035085*
X037803Y035081*
X037797Y035077*
X037791Y035072*
X037785Y035066*
X037779Y035060*
X037774Y035054*
X037768Y035047*
X037762Y035039*
X037757Y035031*
X037752Y035022*
Y035021*
X037751Y035020*
X037750Y035018*
X037749Y035015*
X037748Y035012*
X037746Y035007*
X037744Y035002*
X037742Y034997*
X037741Y034990*
X037739Y034983*
X037737Y034976*
X037736Y034968*
X037735Y034959*
X037734Y034950*
X037733Y034940*
Y034930*
Y034929*
Y034927*
Y034923*
Y034918*
X037734Y034912*
X037735Y034905*
Y034897*
X037737Y034889*
X037738Y034880*
X037740Y034871*
X037743Y034862*
X037746Y034852*
X037749Y034843*
X037753Y034834*
X037758Y034826*
X037763Y034818*
X037764*
Y034816*
X037766Y034814*
X037769Y034812*
X037772Y034808*
X037776Y034805*
X037780Y034801*
X037785Y034797*
X037790Y034792*
X037797Y034788*
X037803Y034783*
X037811Y034779*
X037818Y034775*
X037827Y034772*
X037836Y034769*
X037846Y034766*
X037860Y034843*
X037859Y034844*
X037858*
X037856Y034845*
X037851Y034847*
X037844Y034850*
X037837Y034855*
X037830Y034860*
X037822Y034866*
X037816Y034874*
Y034875*
X037815*
X037814Y034876*
X037813Y034878*
X037812Y034880*
X037811Y034883*
X037807Y034890*
X037804Y034898*
X037802Y034907*
X037800Y034918*
X037799Y034930*
Y034932*
Y034935*
X037800Y034938*
Y034943*
X037801Y034947*
X037802Y034953*
X037803Y034959*
X037805Y034965*
X037807Y034972*
X037810Y034979*
X037813Y034985*
X037817Y034992*
X037821Y034999*
X037826Y035005*
X037832Y035011*
X037833Y035012*
X037835Y035013*
X037838Y035015*
X037841Y035018*
X037845Y035020*
X037850Y035023*
X037856Y035025*
X037862Y035028*
X037869Y035031*
X037877Y035033*
X037886Y035036*
X037895Y035038*
X037905Y035039*
X037916Y035040*
X037927*
X037934*
X037938*
X037944Y035039*
X037951*
X037958Y035038*
X037966Y035036*
X037974Y035035*
X037982Y035033*
X037991Y035030*
X037999Y035027*
X038008Y035024*
X038016Y035020*
X038023Y035015*
X038030Y035010*
X038031Y035009*
X038033Y035007*
X038035Y035005*
X038038Y035002*
X038041Y034998*
X038044Y034994*
X038047Y034989*
X038050Y034983*
X038053Y034977*
X038056Y034971*
X038059Y034964*
X038061Y034956*
X038062Y034948*
X038063Y034940*
X038064Y034931*
Y034930*
Y034929*
Y034928*
Y034926*
X038063Y034924*
Y034922*
X038062Y034915*
Y034908*
X038060Y034900*
X038057Y034891*
X038054Y034882*
Y034881*
X038053Y034879*
Y034878*
X038050Y034873*
X038048Y034867*
X038044Y034861*
X038041Y034854*
X038036Y034846*
X038032Y034840*
X037983*
Y034928*
X037918*
Y034761*
G37*
G36*
X037739Y053214D02*
X037804D01*
Y053327*
X038124*
Y053404*
X037804*
Y053518*
X037739*
Y053214*
G37*
%LNarray-3*%
%LPD*%
G36*
X037921Y034060D02*
X037916D01*
X037912Y034061*
X037907*
X037895Y034062*
X037884Y034063*
X037873Y034065*
X037868Y034067*
X037863Y034068*
X037861Y034069*
X037860*
X037855Y034071*
X037850Y034073*
X037844Y034077*
X037838Y034080*
X037832Y034085*
X037826Y034090*
Y034091*
X037824Y034093*
X037822Y034096*
X037819Y034100*
X037816Y034105*
X037813Y034111*
X037810Y034118*
X037808Y034126*
Y034127*
Y034128*
Y034129*
X037807Y034131*
Y034134*
X037806Y034137*
Y034140*
Y034144*
Y034149*
X037805Y034154*
Y034160*
Y034166*
X037804Y034174*
Y034181*
Y034190*
Y034225*
X038059*
Y034167*
Y034166*
Y034165*
Y034164*
Y034162*
Y034159*
Y034156*
X038058Y034149*
Y034141*
X038057Y034133*
X038056Y034126*
X038055Y034120*
Y034119*
X038054Y034117*
X038053Y034113*
X038051Y034109*
X038049Y034104*
X038047Y034099*
X038043Y034093*
X038039Y034088*
X038037Y034086*
X038034Y034084*
X038030Y034081*
X038025Y034078*
X038019Y034074*
X038011Y034071*
X038002Y034068*
X038001Y034067*
X037999*
X037997*
X037995Y034066*
X037991Y034065*
X037988Y034064*
X037984*
X037979Y034063*
X037974Y034062*
X037968Y034061*
X037961*
X037955*
X037948Y034060*
X037940*
X037925*
X037921*
G37*
G36*
X037829Y053728D02*
X037971Y053780D01*
Y053675*
X037829Y053728*
G37*
G36*
X037919Y052738D02*
X037914Y052739D01*
X037907*
X037901Y052740*
X037893Y052741*
X037877Y052745*
X037869Y052747*
X037861Y052750*
X037853Y052753*
X037845Y052757*
X037838Y052762*
X037832Y052767*
X037831*
X037830Y052768*
X037829Y052770*
X037827Y052772*
X037824Y052775*
X037821Y052778*
X037818Y052783*
X037815Y052787*
X037812Y052792*
X037809Y052798*
X037807Y052805*
X037804Y052812*
X037802Y052819*
X037800Y052827*
Y052835*
X037799Y052844*
Y052846*
Y052849*
X037800Y052852*
Y052856*
X037801Y052860*
X037802Y052866*
X037803Y052871*
X037805Y052877*
X037807Y052884*
X037810Y052890*
X037813Y052896*
X037817Y052903*
X037821Y052909*
X037826Y052915*
X037832Y052921*
X037833*
X037834Y052922*
X037836Y052923*
X037838Y052926*
X037842Y052928*
X037846Y052930*
X037851Y052933*
X037857Y052935*
X037863Y052938*
X037871Y052941*
X037879Y052943*
X037888Y052945*
X037898Y052947*
X037908Y052949*
X037919Y052950*
X037931*
X037938*
X037942*
X037948Y052949*
X037954Y052948*
X037961Y052947*
X037968Y052946*
X037976Y052945*
X037984Y052943*
X037992Y052940*
X038001Y052937*
X038008Y052934*
X038016Y052930*
X038023Y052925*
X038030Y052920*
X038031*
X038032Y052919*
X038033Y052917*
X038035Y052914*
X038038Y052911*
X038041Y052908*
X038044Y052904*
X038047Y052899*
X038050Y052894*
X038053Y052888*
X038056Y052882*
X038059Y052875*
X038061Y052868*
X038062Y052860*
X038063Y052852*
X038064Y052844*
Y052843*
Y052842*
X038063Y052839*
Y052836*
Y052832*
X038062Y052828*
X038061Y052822*
X038059Y052817*
X038058Y052811*
X038056Y052805*
X038053Y052798*
X038050Y052792*
X038046Y052786*
X038041Y052779*
X038036Y052773*
X038030Y052768*
Y052767*
X038029Y052766*
X038027Y052765*
X038024Y052763*
X038020Y052761*
X038016Y052758*
X038011Y052755*
X038005Y052753*
X037999Y052750*
X037991Y052747*
X037983Y052745*
X037974Y052742*
X037964Y052740*
X037954Y052739*
X037942Y052738*
X037930*
X037924*
X037919*
G37*
G36*
X038002Y054025D02*
X037998Y054026D01*
X037994Y054027*
X037989Y054028*
X037984Y054030*
X037979Y054033*
Y054034*
X037977Y054035*
X037975Y054037*
X037973Y054040*
X037970Y054043*
X037967Y054047*
X037964Y054052*
X037961Y054058*
Y054059*
Y054061*
X037960Y054063*
Y054065*
X037959Y054068*
X037958Y054072*
Y054076*
Y054082*
X037957Y054087*
Y054093*
X037956Y054100*
Y054108*
Y054117*
Y054127*
Y054189*
X038059*
Y054117*
Y054115*
Y054113*
Y054110*
Y054107*
Y054103*
X038058Y054095*
Y054086*
Y054077*
X038057Y054073*
Y054070*
Y054067*
X038056Y054064*
Y054063*
Y054061*
X038055Y054058*
X038053Y054054*
X038051Y054049*
X038049Y054045*
X038046Y054040*
X038041Y054036*
Y054035*
X038039Y054034*
X038036Y054032*
X038032Y054030*
X038028Y054028*
X038022Y054026*
X038016Y054025*
X038008*
X038005*
X038002*
G37*
G36*
X037841Y054039D02*
X037837Y054040D01*
X037832Y054041*
X037827Y054043*
X037822Y054046*
X037818Y054049*
X037816Y054051*
X037814Y054053*
X037812Y054056*
X037810Y054061*
X037808Y054065*
X037806Y054071*
X037805Y054078*
Y054079*
X037804Y054081*
Y054082*
Y054085*
Y054088*
Y054091*
Y054095*
X037803Y054100*
Y054105*
Y054111*
Y054118*
Y054126*
Y054135*
Y054145*
Y054189*
X037892*
Y054138*
Y054136*
Y054134*
Y054131*
Y054127*
Y054123*
Y054114*
Y054104*
Y054095*
X037891Y054091*
Y054088*
Y054085*
Y054082*
Y054081*
X037890Y054079*
X037889Y054075*
X037888Y054070*
X037886Y054065*
X037884Y054060*
X037881Y054055*
X037877Y054050*
X037875Y054049*
X037873Y054046*
X037869Y054044*
X037865Y054043*
X037860Y054040*
X037854Y054039*
X037847*
X037844*
X037841*
G37*
G54D42*
X023100Y016450D02*
X030850D01*
X023100D02*
Y023350D01*
X030850*
Y016450D02*
Y023350D01*
X023217Y044000D02*
D01*
D01*
G75*
G03X037783I7283J0D01*
G74*G01*
D01*
G75*
G03X023217I-7283J0D01*
G74*G01*
X026563D02*
D01*
D01*
G75*
G03X034437I3937J0D01*
G74*G01*
D01*
G75*
G03X026563I-3937J0D01*
G74*G01*
X038400Y051850D02*
X022650D01*
X038400D02*
Y036100D01*
X022650*
Y051850D02*
Y036100D01*
G54D80*
X014700Y010350D02*
X018400D01*
Y011850*
X014700D02*
X018400D01*
X014700Y010350D02*
Y011850D01*
X021450Y050183D02*
Y050050D01*
X021350*
Y050117*
Y050050*
X021250*
Y050250D02*
X021383D01*
X021450Y050317*
X021383Y050383*
X021250*
X021350*
Y050250*
X021250Y050450D02*
X021450D01*
X021250Y050583*
X021450*
X021350Y050650D02*
Y050783D01*
X021417Y050716D02*
X021283D01*
G54D81*
X022650Y049400D02*
X021650D01*
X022650Y051400D02*
Y049400D01*
Y051400D02*
X021650D01*
Y049400*
M02*