%FSDAX24Y24*%
%MOIN*%
%SFA1B1*%

%IPPOS*%
%ADD10R,0.090600X0.090600*%
%ADD11R,0.090600X0.090600*%
%ADD12R,0.035400X0.039400*%
%ADD13R,0.023600X0.023600*%
%ADD14R,0.023600X0.015700*%
%ADD15R,0.035400X0.023600*%
%ADD16C,0.055000*%
%ADD17R,0.039400X0.035400*%
%ADD18O,0.053200X0.023600*%
%ADD19R,0.039400X0.039400*%
%ADD20R,0.039400X0.039400*%
%ADD21R,0.017700X0.055100*%
%ADD22R,0.040200X0.085000*%
%ADD23R,0.109800X0.029100*%
%ADD24R,0.098400X0.072400*%
%ADD25R,0.023600X0.009800*%
%ADD26R,0.009800X0.023600*%
%ADD27R,0.096500X0.096500*%
%ADD28O,0.086600X0.023600*%
%ADD29R,0.137800X0.078700*%
%ADD30O,0.023600X0.086600*%
%ADD31O,0.011800X0.070900*%
%ADD32O,0.070900X0.011800*%
%ADD33R,0.023600X0.039400*%
%ADD34R,0.078700X0.137800*%
%ADD35R,0.151600X0.216500*%
%ADD36R,0.008900X0.022200*%
%ADD37R,0.022200X0.008900*%
%ADD38R,0.026100X0.008900*%
%ADD39R,0.072400X0.098400*%
%ADD40R,0.053200X0.015700*%
%ADD41R,0.133900X0.063000*%
%ADD42C,0.010000*%
%ADD43C,0.050000*%
%ADD44C,0.100000*%
%ADD45C,0.015000*%
%ADD46C,0.020000*%
%ADD47C,0.017000*%
%ADD48C,0.035000*%
%ADD49C,0.008000*%
%ADD50C,0.025000*%
%ADD51C,0.023000*%
%ADD52C,0.021000*%
%ADD53R,0.151600X0.037400*%
%ADD54R,0.330700X0.397600*%
%ADD55R,0.040200X0.119100*%
%ADD56R,0.078700X0.047200*%
%ADD57R,0.106300X0.051200*%
%ADD58O,0.066900X0.017700*%
%ADD59R,0.031500X0.035400*%
%ADD60R,0.023600X0.045300*%
%ADD61R,0.065000X0.094500*%
%ADD62R,0.033500X0.011000*%
%ADD63R,0.039400X0.078700*%
%ADD64R,0.086600X0.070900*%
%ADD65R,0.049200X0.011800*%
%ADD66R,0.059100X0.059100*%
%ADD67C,0.059100*%
%ADD68C,0.098400*%
%ADD69C,0.110200*%
%ADD70R,0.059100X0.059100*%
%ADD71C,0.063000*%
%ADD72C,0.047200*%
%ADD73C,0.018000*%
%ADD74C,0.027000*%
%ADD75C,0.075000*%
%ADD76C,0.150000*%
%LNarray-1*%
%LPD*%
G36*
X023850Y013650D02*
X023900Y013600D01*
Y010550*
X023000*
X021850Y011700*
Y013750*
X023750*
X023850Y013650*
G37*
G36*
X018100Y013235D02*
Y011650D01*
X017550Y011100*
X013200*
Y012100*
X016900*
X018054Y013254*
X018100Y013235*
G37*
G36*
X016900Y016715D02*
Y013650D01*
X016950Y013600*
X016400Y013050*
X014750*
Y015900*
X014756Y015906*
X014889*
Y016039*
X015600Y016750*
X016865*
X016900Y016715*
G37*
G36*
X014643Y039078D02*
X014754D01*
Y038881*
X014643*
Y039078*
G37*
G36*
X014446D02*
X014557D01*
Y038881*
X014446*
Y039078*
G37*
G36*
X014643Y040219D02*
X014754D01*
Y040022*
X014643*
Y040219*
G37*
G36*
X014446D02*
X014557D01*
Y040022*
X014446*
Y040219*
G37*
G36*
X014994Y037209D02*
X014995Y037208D01*
X014996*
X015104Y037296*
X015192Y037404*
X015258Y037527*
X015298Y037661*
X015312Y037800*
X015298Y037939*
X015258Y038073*
X015192Y038196*
X015104Y038304*
X014996Y038392*
X014995*
X014993Y038390*
X014994Y038391*
Y038824*
X015781*
Y036776*
X014994*
Y037209*
G37*
G36*
X022717Y036300D02*
X022650D01*
Y038112*
X022836*
X022841Y038109*
X022900Y038097*
X022959Y038109*
X023008Y038142*
X023041Y038191*
X023053Y038250*
X023041Y038309*
X023008Y038358*
X022959Y038391*
X022900Y038403*
X022841Y038391*
X022836Y038388*
X022650*
Y041389*
X022658Y041450*
Y046550*
X022650Y046611*
Y051850*
X038400*
Y036100*
X028486*
X028453Y036150*
X028496Y036254*
X028515Y036400*
Y041378*
X029007*
Y041853*
X028902*
X028891Y041909*
X028858Y041958*
X028809Y041991*
X028777Y041997*
X028782Y042047*
X029007*
Y042522*
X028899*
X028891Y042559*
X028888Y042564*
Y043400*
X028883Y043426*
X028881Y043458*
X028909Y043495*
X028930Y043509*
X028963Y043558*
X028974Y043616*
X028963Y043674*
X028930Y043723*
Y043765*
X028963Y043814*
X028974Y043872*
X028963Y043930*
X028938Y043966*
X028933Y044000*
X028938Y044034*
X028963Y044070*
X028974Y044128*
X028963Y044186*
X028930Y044235*
Y044277*
X028963Y044326*
X028974Y044384*
X028963Y044442*
X028930Y044491*
X028881Y044524*
X028823Y044535*
X028331*
X028273Y044524*
X028224Y044491*
X028191Y044442*
X028179Y044384*
X028191Y044326*
X028224Y044277*
Y044235*
X028191Y044186*
X028179Y044128*
X028191Y044070*
X028215Y044034*
X028220Y044000*
X028215Y043966*
X028191Y043930*
X028179Y043872*
X028191Y043814*
X028224Y043765*
Y043723*
X028191Y043674*
X028179Y043616*
X028191Y043558*
X028224Y043509*
X028273Y043476*
X028331Y043465*
X028491*
X028612Y043343*
Y043247*
X028085*
X027950Y043265*
X027815Y043247*
X027031*
Y042753*
X027354*
X027387Y042715*
X027385Y042700*
Y040217*
X027335Y040210*
X027292Y040352*
X027217Y040492*
X027116Y040616*
X026992Y040717*
X026852Y040792*
X026725Y040831*
X026719Y040885*
X026839Y040948*
X026962Y041049*
X027063Y041173*
X027138Y041314*
X027185Y041466*
X027200Y041625*
X027185Y041784*
X027138Y041936*
X027063Y042077*
X026962Y042201*
X026839Y042302*
X026698Y042377*
X026545Y042423*
X026497Y042428*
X026490Y042479*
X026542Y042501*
X026633Y042570*
X026702Y042661*
X026746Y042767*
X026761Y042881*
X026746Y042994*
X026702Y043100*
X026633Y043191*
X026542Y043261*
X026436Y043304*
X026322Y043319*
X026267Y043312*
X026247Y043360*
X026326Y043424*
X026427Y043548*
X026481Y043650*
X026529Y043633*
X026526Y043616*
X026537Y043558*
X026570Y043509*
X026619Y043476*
X026677Y043465*
X027169*
X027218Y043474*
X027241Y043459*
X027300Y043447*
X027359Y043459*
X027408Y043492*
X027441Y043541*
X027453Y043600*
X027441Y043659*
X027408Y043708*
X027359Y043741*
X027325Y043748*
X027300Y043800*
X027309Y043814*
X027321Y043872*
X027315Y043899*
X027346Y043954*
X027351Y043957*
X027359Y043959*
X027408Y043992*
X027441Y044041*
X027453Y044100*
X027441Y044159*
X027408Y044208*
X027359Y044241*
X027318Y044249*
X027317Y044251*
Y044300*
X027359Y044309*
X027408Y044342*
X027441Y044391*
X027453Y044450*
X027441Y044509*
X027408Y044558*
X027359Y044591*
X027300Y044603*
X027241Y044591*
X027192Y044558*
X027176Y044534*
X027169Y044535*
X026677*
X026619Y044524*
X026570Y044491*
X026537Y044442*
X026526Y044384*
X026529Y044367*
X026481Y044350*
X026427Y044452*
X026326Y044576*
X026247Y044640*
X026267Y044688*
X026322Y044681*
X026436Y044696*
X026542Y044739*
X026633Y044809*
X026702Y044900*
X026746Y045006*
X026761Y045119*
X026746Y045233*
X026702Y045339*
X026633Y045430*
X026542Y045499*
X026490Y045521*
X026497Y045572*
X026545Y045577*
X026698Y045623*
X026839Y045698*
X026962Y045799*
X027063Y045923*
X027138Y046064*
X027185Y046216*
X027200Y046375*
X027185Y046534*
X027141Y046678*
X027158Y046697*
X027183Y046709*
X027222Y046678*
X027328Y046634*
X027442Y046619*
X027555Y046634*
X027661Y046678*
X027752Y046748*
X027822Y046839*
X027866Y046945*
X027881Y047058*
X027866Y047172*
X027822Y047278*
X027791Y047317*
X027803Y047342*
X027822Y047359*
X027966Y047315*
X028125Y047300*
X028284Y047315*
X028436Y047362*
X028577Y047437*
X028701Y047538*
X028802Y047661*
X028877Y047802*
X028923Y047955*
X028928Y048003*
X028979Y048010*
X029001Y047958*
X029070Y047867*
X029161Y047798*
X029267Y047754*
X029381Y047739*
X029494Y047754*
X029600Y047798*
X029691Y047867*
X029761Y047958*
X029804Y048064*
X029819Y048178*
X029812Y048233*
X029860Y048253*
X029924Y048174*
X030048Y048073*
X030189Y047998*
X030341Y047952*
X030500Y047936*
X030659Y047952*
X030811Y047998*
X030952Y048073*
X031076Y048174*
X031140Y048253*
X031188Y048233*
X031181Y048178*
X031196Y048064*
X031239Y047958*
X031309Y047867*
X031400Y047798*
X031506Y047754*
X031619Y047739*
X031733Y047754*
X031839Y047798*
X031930Y047867*
X031999Y047958*
X032021Y048010*
X032072Y048003*
X032077Y047955*
X032123Y047802*
X032198Y047661*
X032299Y047538*
X032423Y047437*
X032564Y047362*
X032716Y047315*
X032875Y047300*
X033034Y047315*
X033178Y047359*
X033197Y047342*
X033209Y047317*
X033178Y047278*
X033134Y047172*
X033119Y047058*
X033134Y046945*
X033178Y046839*
X033248Y046748*
X033339Y046678*
X033445Y046634*
X033558Y046619*
X033672Y046634*
X033778Y046678*
X033817Y046709*
X033842Y046697*
X033859Y046678*
X033815Y046534*
X033800Y046375*
X033815Y046216*
X033862Y046064*
X033937Y045923*
X034038Y045799*
X034161Y045698*
X034302Y045623*
X034455Y045577*
X034503Y045572*
X034510Y045521*
X034458Y045499*
X034367Y045430*
X034298Y045339*
X034254Y045233*
X034239Y045119*
X034254Y045006*
X034298Y044900*
X034367Y044809*
X034458Y044739*
X034564Y044696*
X034678Y044681*
X034733Y044688*
X034753Y044640*
X034674Y044576*
X034573Y044452*
X034498Y044311*
X034452Y044159*
X034436Y044000*
X034452Y043841*
X034498Y043689*
X034573Y043548*
X034674Y043424*
X034753Y043360*
X034733Y043312*
X034678Y043319*
X034564Y043304*
X034458Y043261*
X034367Y043191*
X034298Y043100*
X034254Y042994*
X034239Y042881*
X034254Y042767*
X034298Y042661*
X034367Y042570*
X034458Y042501*
X034510Y042479*
X034503Y042428*
X034455Y042423*
X034302Y042377*
X034161Y042302*
X034038Y042201*
X033937Y042077*
X033862Y041936*
X033815Y041784*
X033800Y041625*
X033815Y041466*
X033859Y041322*
X033842Y041303*
X033817Y041291*
X033778Y041322*
X033672Y041366*
X033558Y041381*
X033445Y041366*
X033339Y041322*
X033248Y041252*
X033178Y041161*
X033134Y041055*
X033119Y040942*
X033134Y040828*
X033178Y040722*
X033209Y040683*
X033197Y040658*
X033178Y040641*
X033034Y040685*
X032875Y040700*
X032716Y040685*
X032564Y040638*
X032423Y040563*
X032299Y040462*
X032198Y040339*
X032123Y040198*
X032077Y040045*
X032072Y039997*
X032021Y039990*
X031999Y040042*
X031930Y040133*
X031839Y040202*
X031733Y040246*
X031619Y040261*
X031506Y040246*
X031400Y040202*
X031309Y040133*
X031239Y040042*
X031196Y039936*
X031181Y039822*
X031188Y039767*
X031140Y039747*
X031076Y039826*
X030952Y039927*
X030811Y040002*
X030659Y040048*
X030500Y040064*
X030341Y040048*
X030189Y040002*
X030048Y039927*
X029924Y039826*
X029823Y039702*
X029748Y039561*
X029702Y039409*
X029686Y039250*
X029702Y039091*
X029748Y038939*
X029823Y038798*
X029924Y038674*
X030048Y038573*
X030189Y038498*
X030341Y038452*
X030500Y038436*
X030659Y038452*
X030811Y038498*
X030952Y038573*
X031076Y038674*
X031096Y038699*
X031144Y038679*
X031135Y038591*
X031151Y038432*
X031197Y038279*
X031273Y038139*
X031374Y038015*
X031497Y037914*
X031638Y037839*
X031791Y037793*
X031949Y037777*
X032035Y037785*
X032058Y037742*
X032057Y037737*
X031969Y037669*
X031899Y037579*
X031856Y037473*
X031841Y037359*
X031856Y037246*
X031899Y037140*
X031969Y037049*
X032060Y036979*
X032166Y036935*
X032279Y036920*
X032393Y036935*
X032499Y036979*
X032590Y037049*
X032659Y037140*
X032703Y037246*
X032718Y037359*
X032703Y037473*
X032659Y037579*
X032590Y037669*
X032499Y037739*
X032393Y037783*
X032288Y037797*
X032278Y037822*
X032276Y037847*
X032402Y037914*
X032525Y038015*
X032626Y038139*
X032701Y038279*
X032748Y038432*
X032763Y038591*
X032748Y038750*
X032701Y038902*
X032626Y039043*
X032604Y039070*
X032633Y039113*
X032716Y039088*
X032875Y039072*
X033034Y039088*
X033186Y039134*
X033327Y039210*
X033451Y039311*
X033552Y039434*
X033627Y039575*
X033665Y039702*
X033719Y039707*
X033783Y039588*
X033884Y039465*
X034008Y039363*
X034148Y039288*
X034301Y039242*
X034460Y039226*
X034619Y039242*
X034771Y039288*
X034912Y039363*
X034942Y039388*
X034981Y039358*
X034938Y039252*
X034923Y039139*
X034938Y039025*
X034981Y038919*
X035051Y038828*
X035142Y038759*
X035248Y038715*
X035361Y038700*
X035475Y038715*
X035581Y038759*
X035672Y038828*
X035741Y038919*
X035785Y039025*
X035800Y039139*
X035785Y039252*
X035741Y039358*
X035672Y039449*
X035581Y039519*
X035475Y039562*
X035361Y039577*
X035248Y039562*
X035142Y039519*
X035112Y039558*
X035137Y039588*
X035212Y039729*
X035258Y039881*
X035274Y040040*
X035258Y040199*
X035212Y040352*
X035137Y040492*
X035035Y040616*
X034912Y040717*
X034793Y040781*
X034798Y040835*
X034925Y040873*
X035066Y040948*
X035189Y041049*
X035290Y041173*
X035366Y041314*
X035412Y041466*
X035428Y041625*
X035412Y041784*
X035387Y041867*
X035430Y041896*
X035457Y041874*
X035598Y041799*
X035750Y041752*
X035909Y041737*
X036068Y041752*
X036221Y041799*
X036361Y041874*
X036485Y041975*
X036586Y042098*
X036653Y042224*
X036678Y042222*
X036703Y042212*
X036717Y042107*
X036761Y042001*
X036830Y041910*
X036921Y041841*
X037027Y041797*
X037141Y041782*
X037254Y041797*
X037360Y041841*
X037451Y041910*
X037521Y042001*
X037565Y042107*
X037579Y042221*
X037565Y042334*
X037521Y042440*
X037451Y042531*
X037360Y042601*
X037254Y042644*
X037141Y042659*
X037027Y042644*
X036921Y042601*
X036830Y042531*
X036763Y042443*
X036758Y042442*
X036715Y042465*
X036723Y042551*
X036707Y042709*
X036661Y042862*
X036586Y043003*
X036485Y043126*
X036361Y043227*
X036221Y043303*
X036068Y043349*
X035909Y043365*
X035821Y043356*
X035801Y043404*
X035826Y043424*
X035927Y043548*
X036002Y043689*
X036048Y043841*
X036064Y044000*
X036048Y044159*
X036002Y044311*
X035927Y044452*
X035826Y044576*
X035801Y044596*
X035821Y044644*
X035909Y044635*
X036068Y044651*
X036221Y044697*
X036361Y044773*
X036485Y044874*
X036586Y044997*
X036661Y045138*
X036707Y045291*
X036723Y045449*
X036715Y045535*
X036758Y045558*
X036763Y045557*
X036830Y045469*
X036921Y045399*
X037027Y045356*
X037141Y045341*
X037254Y045356*
X037360Y045399*
X037451Y045469*
X037521Y045560*
X037565Y045666*
X037579Y045779*
X037565Y045893*
X037521Y045999*
X037451Y046090*
X037360Y046159*
X037254Y046203*
X037141Y046218*
X037027Y046203*
X036921Y046159*
X036830Y046090*
X036761Y045999*
X036717Y045893*
X036703Y045788*
X036678Y045778*
X036653Y045776*
X036586Y045902*
X036485Y046025*
X036361Y046126*
X036221Y046201*
X036068Y046248*
X035909Y046263*
X035750Y046248*
X035598Y046201*
X035457Y046126*
X035430Y046104*
X035387Y046133*
X035412Y046216*
X035428Y046375*
X035412Y046534*
X035366Y046686*
X035290Y046827*
X035189Y046951*
X035066Y047052*
X034925Y047127*
X034798Y047165*
X034793Y047219*
X034912Y047283*
X035035Y047384*
X035137Y047508*
X035212Y047648*
X035258Y047801*
X035274Y047960*
X035258Y048119*
X035212Y048271*
X035137Y048412*
X035112Y048442*
X035142Y048481*
X035248Y048438*
X035361Y048423*
X035475Y048438*
X035581Y048481*
X035672Y048551*
X035741Y048642*
X035785Y048748*
X035800Y048861*
X035785Y048975*
X035741Y049081*
X035672Y049172*
X035581Y049241*
X035475Y049285*
X035361Y049300*
X035248Y049285*
X035142Y049241*
X035051Y049172*
X034981Y049081*
X034938Y048975*
X034923Y048861*
X034938Y048748*
X034981Y048642*
X034942Y048612*
X034912Y048637*
X034771Y048712*
X034619Y048758*
X034460Y048774*
X034301Y048758*
X034148Y048712*
X034008Y048637*
X033884Y048535*
X033783Y048412*
X033719Y048293*
X033665Y048298*
X033627Y048425*
X033552Y048566*
X033451Y048689*
X033327Y048790*
X033186Y048866*
X033034Y048912*
X032875Y048928*
X032716Y048912*
X032633Y048887*
X032604Y048930*
X032626Y048957*
X032701Y049098*
X032748Y049250*
X032763Y049409*
X032748Y049568*
X032701Y049721*
X032626Y049861*
X032525Y049985*
X032402Y050086*
X032276Y050153*
X032278Y050178*
X032288Y050203*
X032393Y050217*
X032499Y050261*
X032590Y050330*
X032659Y050421*
X032703Y050527*
X032718Y050641*
X032703Y050754*
X032659Y050860*
X032590Y050951*
X032499Y051021*
X032393Y051065*
X032279Y051079*
X032166Y051065*
X032060Y051021*
X031969Y050951*
X031899Y050860*
X031856Y050754*
X031841Y050641*
X031856Y050527*
X031899Y050421*
X031969Y050330*
X032057Y050263*
X032058Y050258*
X032035Y050215*
X031949Y050223*
X031791Y050207*
X031638Y050161*
X031497Y050086*
X031374Y049985*
X031273Y049861*
X031197Y049721*
X031151Y049568*
X031135Y049409*
X031144Y049321*
X031096Y049301*
X031076Y049326*
X030952Y049427*
X030811Y049502*
X030659Y049548*
X030500Y049564*
X030341Y049548*
X030189Y049502*
X030048Y049427*
X029924Y049326*
X029904Y049301*
X029856Y049321*
X029865Y049409*
X029849Y049568*
X029803Y049721*
X029727Y049861*
X029626Y049985*
X029503Y050086*
X029362Y050161*
X029209Y050207*
X029051Y050223*
X028965Y050215*
X028942Y050258*
X028943Y050263*
X029031Y050330*
X029101Y050421*
X029144Y050527*
X029159Y050641*
X029144Y050754*
X029101Y050860*
X029031Y050951*
X028940Y051021*
X028834Y051065*
X028721Y051079*
X028607Y051065*
X028501Y051021*
X028410Y050951*
X028341Y050860*
X028297Y050754*
X028282Y050641*
X028297Y050527*
X028341Y050421*
X028410Y050330*
X028501Y050261*
X028607Y050217*
X028712Y050203*
X028722Y050178*
X028724Y050153*
X028598Y050086*
X028475Y049985*
X028374Y049861*
X028299Y049721*
X028252Y049568*
X028237Y049409*
X028252Y049250*
X028299Y049098*
X028374Y048957*
X028396Y048930*
X028367Y048887*
X028284Y048912*
X028125Y048928*
X027966Y048912*
X027814Y048866*
X027673Y048790*
X027549Y048689*
X027448Y048566*
X027373Y048425*
X027335Y048298*
X027281Y048293*
X027217Y048412*
X027116Y048535*
X026992Y048637*
X026852Y048712*
X026699Y048758*
X026540Y048774*
X026381Y048758*
X026229Y048712*
X026088Y048637*
X026058Y048612*
X026019Y048642*
X026062Y048748*
X026077Y048861*
X026062Y048975*
X026019Y049081*
X025949Y049172*
X025858Y049241*
X025752Y049285*
X025639Y049300*
X025525Y049285*
X025419Y049241*
X025328Y049172*
X025259Y049081*
X025215Y048975*
X025200Y048861*
X025215Y048748*
X025259Y048642*
X025328Y048551*
X025419Y048481*
X025525Y048438*
X025639Y048423*
X025752Y048438*
X025858Y048481*
X025888Y048442*
X025863Y048412*
X025788Y048271*
X025742Y048119*
X025726Y047960*
X025742Y047801*
X025788Y047648*
X025863Y047508*
X025965Y047384*
X026088Y047283*
X026207Y047219*
X026202Y047165*
X026075Y047127*
X025934Y047052*
X025811Y046951*
X025710Y046827*
X025634Y046686*
X025588Y046534*
X025572Y046375*
X025588Y046216*
X025613Y046133*
X025570Y046104*
X025543Y046126*
X025402Y046201*
X025250Y046248*
X025091Y046263*
X024932Y046248*
X024779Y046201*
X024639Y046126*
X024515Y046025*
X024414Y045902*
X024347Y045776*
X024322Y045778*
X024297Y045788*
X024283Y045893*
X024239Y045999*
X024169Y046090*
X024079Y046159*
X023973Y046203*
X023859Y046218*
X023746Y046203*
X023640Y046159*
X023549Y046090*
X023479Y045999*
X023435Y045893*
X023421Y045779*
X023435Y045666*
X023479Y045560*
X023549Y045469*
X023640Y045399*
X023746Y045356*
X023859Y045341*
X023973Y045356*
X024079Y045399*
X024169Y045469*
X024237Y045557*
X024242Y045558*
X024285Y045535*
X024277Y045449*
X024293Y045291*
X024339Y045138*
X024414Y044997*
X024515Y044874*
X024639Y044773*
X024779Y044697*
X024932Y044651*
X025091Y044635*
X025179Y044644*
X025199Y044596*
X025174Y044576*
X025073Y044452*
X024998Y044311*
X024952Y044159*
X024936Y044000*
X024952Y043841*
X024998Y043689*
X025073Y043548*
X025174Y043424*
X025199Y043404*
X025179Y043356*
X025091Y043365*
X024932Y043349*
X024779Y043303*
X024639Y043227*
X024515Y043126*
X024414Y043003*
X024339Y042862*
X024293Y042709*
X024277Y042551*
X024285Y042465*
X024242Y042442*
X024237Y042443*
X024169Y042531*
X024079Y042601*
X023973Y042644*
X023859Y042659*
X023746Y042644*
X023640Y042601*
X023549Y042531*
X023479Y042440*
X023435Y042334*
X023421Y042221*
X023435Y042107*
X023479Y042001*
X023549Y041910*
X023640Y041841*
X023746Y041797*
X023859Y041782*
X023973Y041797*
X024079Y041841*
X024169Y041910*
X024239Y042001*
X024283Y042107*
X024297Y042212*
X024322Y042222*
X024347Y042224*
X024414Y042098*
X024515Y041975*
X024639Y041874*
X024779Y041799*
X024932Y041752*
X025091Y041737*
X025250Y041752*
X025402Y041799*
X025543Y041874*
X025570Y041896*
X025613Y041867*
X025588Y041784*
X025572Y041625*
X025588Y041466*
X025634Y041314*
X025710Y041173*
X025811Y041049*
X025934Y040948*
X026075Y040873*
X026202Y040835*
X026207Y040781*
X026088Y040717*
X025965Y040616*
X025863Y040492*
X025788Y040352*
X025742Y040199*
X025726Y040040*
X025742Y039881*
X025788Y039729*
X025863Y039588*
X025965Y039465*
X026088Y039363*
X026229Y039288*
X026381Y039242*
X026540Y039226*
X026699Y039242*
X026852Y039288*
X026992Y039363*
X027116Y039465*
X027217Y039588*
X027292Y039729*
X027335Y039870*
X027385Y039863*
Y036634*
X026961Y036210*
X026654*
Y036300*
X026133*
Y036210*
X025900*
X025867Y036239*
Y036300*
X025460*
X025441Y036346*
X025688Y036593*
X026153*
Y036698*
X026209Y036709*
X026258Y036742*
X026291Y036791*
X026297Y036823*
X026347Y036818*
Y036593*
X026448*
X026459Y036541*
X026492Y036492*
X026541Y036459*
X026600Y036447*
X026659Y036459*
X026708Y036492*
X026741Y036541*
X026752Y036593*
X026822*
Y037107*
X026722*
Y037193*
X026822*
Y037707*
X026347*
Y037482*
X026297Y037477*
X026291Y037509*
X026258Y037558*
X026209Y037591*
X026153Y037602*
Y037707*
X025678*
Y037407*
X024853Y036582*
X024823Y036537*
X024812Y036485*
Y036300*
X024558*
Y036100*
X024292*
Y036300*
X023770*
Y036100*
X023504*
Y036300*
X022983*
Y036100*
X022717*
Y036300*
G37*
G36*
X013419Y038824D02*
X014206D01*
Y038391*
X014205Y038392*
X014204*
X014096Y038304*
X014008Y038196*
X013942Y038073*
X013902Y037939*
X013888Y037800*
X013902Y037661*
X013942Y037527*
X014008Y037404*
X014096Y037296*
X014204Y037208*
X014205*
X014207Y037210*
X014206Y037209*
Y036776*
X013419*
Y038824*
G37*
%LNarray-2*%
%LPC*%
G36*
X036086Y046411D02*
X036245Y046427D01*
X036397Y046473*
X036538Y046548*
X036661Y046649*
X036763Y046773*
X036838Y046914*
X036884Y047066*
X036900Y047225*
X036884Y047384*
X036838Y047536*
X036763Y047677*
X036661Y047801*
X036538Y047902*
X036397Y047977*
X036245Y048023*
X036086Y048039*
X035927Y048023*
X035774Y047977*
X035634Y047902*
X035510Y047801*
X035409Y047677*
X035334Y047536*
X035288Y047384*
X035272Y047225*
X035288Y047066*
X035334Y046914*
X035409Y046773*
X035510Y046649*
X035634Y046548*
X035774Y046473*
X035927Y046427*
X036086Y046411*
G37*
G36*
X027275Y048772D02*
X027434Y048788D01*
X027586Y048834*
X027727Y048909*
X027851Y049010*
X027952Y049134*
X028027Y049274*
X028073Y049427*
X028089Y049586*
X028073Y049745*
X028027Y049897*
X027952Y050038*
X027851Y050161*
X027727Y050263*
X027586Y050338*
X027434Y050384*
X027275Y050400*
X027116Y050384*
X026964Y050338*
X026823Y050263*
X026699Y050161*
X026598Y050038*
X026523Y049897*
X026477Y049745*
X026461Y049586*
X026477Y049427*
X026523Y049274*
X026598Y049134*
X026699Y049010*
X026823Y048909*
X026964Y048834*
X027116Y048788*
X027275Y048772*
G37*
G36*
X027031Y044753D02*
X028666D01*
Y045247*
X027605*
X027603Y045250*
X027591Y045309*
X027558Y045358*
X027509Y045391*
X027450Y045403*
X027391Y045391*
X027342Y045358*
X027308*
X027259Y045391*
X027200Y045403*
X027141Y045391*
X027092Y045358*
X027059Y045309*
X027047Y045250*
X027045Y045247*
X027031*
Y044753*
G37*
G36*
X024914Y046411D02*
X025073Y046427D01*
X025226Y046473*
X025366Y046548*
X025490Y046649*
X025591Y046773*
X025666Y046914*
X025712Y047066*
X025728Y047225*
X025712Y047384*
X025666Y047536*
X025591Y047677*
X025490Y047801*
X025366Y047902*
X025226Y047977*
X025073Y048023*
X024914Y048039*
X024755Y048023*
X024603Y047977*
X024462Y047902*
X024339Y047801*
X024237Y047677*
X024162Y047536*
X024116Y047384*
X024100Y047225*
X024116Y047066*
X024162Y046914*
X024237Y046773*
X024339Y046649*
X024462Y046548*
X024603Y046473*
X024755Y046427*
X024914Y046411*
G37*
G36*
X033725Y048772D02*
X033884Y048788D01*
X034036Y048834*
X034177Y048909*
X034301Y049010*
X034402Y049134*
X034477Y049274*
X034523Y049427*
X034539Y049586*
X034523Y049745*
X034477Y049897*
X034402Y050038*
X034301Y050161*
X034177Y050263*
X034036Y050338*
X033884Y050384*
X033725Y050400*
X033566Y050384*
X033414Y050338*
X033273Y050263*
X033149Y050161*
X033048Y050038*
X032973Y049897*
X032927Y049745*
X032911Y049586*
X032927Y049427*
X032973Y049274*
X033048Y049134*
X033149Y049010*
X033273Y048909*
X033414Y048834*
X033566Y048788*
X033725Y048772*
G37*
G36*
X030500Y049636D02*
X030659Y049652D01*
X030811Y049698*
X030952Y049773*
X031076Y049874*
X031177Y049998*
X031252Y050139*
X031298Y050291*
X031314Y050450*
X031298Y050609*
X031252Y050761*
X031177Y050902*
X031076Y051026*
X030952Y051127*
X030811Y051202*
X030659Y051248*
X030500Y051264*
X030341Y051248*
X030189Y051202*
X030048Y051127*
X029924Y051026*
X029823Y050902*
X029748Y050761*
X029702Y050609*
X029686Y050450*
X029702Y050291*
X029748Y050139*
X029823Y049998*
X029924Y049874*
X030048Y049773*
X030189Y049698*
X030341Y049652*
X030500Y049636*
G37*
G36*
X036800Y049350D02*
X036985Y049368D01*
X037164Y049422*
X037328Y049510*
X037472Y049628*
X037590Y049772*
X037678Y049936*
X037732Y050115*
X037750Y050300*
X037732Y050485*
X037678Y050664*
X037590Y050828*
X037472Y050972*
X037328Y051090*
X037164Y051178*
X036985Y051232*
X036800Y051250*
X036615Y051232*
X036436Y051178*
X036272Y051090*
X036128Y050972*
X036010Y050828*
X035922Y050664*
X035868Y050485*
X035850Y050300*
X035868Y050115*
X035922Y049936*
X036010Y049772*
X036128Y049628*
X036272Y049510*
X036436Y049422*
X036615Y049368*
X036800Y049350*
G37*
G36*
X024200D02*
X024385Y049368D01*
X024564Y049422*
X024728Y049510*
X024872Y049628*
X024990Y049772*
X025078Y049936*
X025132Y050115*
X025150Y050300*
X025132Y050485*
X025078Y050664*
X024990Y050828*
X024872Y050972*
X024728Y051090*
X024564Y051178*
X024385Y051232*
X024200Y051250*
X024015Y051232*
X023836Y051178*
X023672Y051090*
X023528Y050972*
X023410Y050828*
X023322Y050664*
X023268Y050485*
X023250Y050300*
X023268Y050115*
X023322Y049936*
X023410Y049772*
X023528Y049628*
X023672Y049510*
X023836Y049422*
X024015Y049368*
X024200Y049350*
G37*
G36*
X036800Y036750D02*
X036985Y036768D01*
X037164Y036822*
X037328Y036910*
X037472Y037028*
X037590Y037172*
X037678Y037336*
X037732Y037515*
X037750Y037700*
X037732Y037885*
X037678Y038064*
X037590Y038228*
X037472Y038372*
X037328Y038490*
X037164Y038578*
X036985Y038632*
X036800Y038650*
X036615Y038632*
X036436Y038578*
X036272Y038490*
X036128Y038372*
X036010Y038228*
X035922Y038064*
X035868Y037885*
X035850Y037700*
X035868Y037515*
X035922Y037336*
X036010Y037172*
X036128Y037028*
X036272Y036910*
X036436Y036822*
X036615Y036768*
X036800Y036750*
G37*
G36*
X033725Y037600D02*
X033884Y037616D01*
X034036Y037662*
X034177Y037737*
X034301Y037839*
X034402Y037962*
X034477Y038103*
X034523Y038255*
X034539Y038414*
X034523Y038573*
X034477Y038726*
X034402Y038866*
X034301Y038990*
X034177Y039091*
X034036Y039166*
X033884Y039212*
X033725Y039228*
X033566Y039212*
X033414Y039166*
X033273Y039091*
X033149Y038990*
X033048Y038866*
X032973Y038726*
X032927Y038573*
X032911Y038414*
X032927Y038255*
X032973Y038103*
X033048Y037962*
X033149Y037839*
X033273Y037737*
X033414Y037662*
X033566Y037616*
X033725Y037600*
G37*
G36*
X030500Y036736D02*
X030659Y036752D01*
X030811Y036798*
X030952Y036873*
X031076Y036974*
X031177Y037098*
X031252Y037239*
X031298Y037391*
X031314Y037550*
X031298Y037709*
X031252Y037861*
X031177Y038002*
X031076Y038126*
X030952Y038227*
X030811Y038302*
X030659Y038348*
X030500Y038364*
X030341Y038348*
X030189Y038302*
X030048Y038227*
X029924Y038126*
X029823Y038002*
X029748Y037861*
X029702Y037709*
X029686Y037550*
X029702Y037391*
X029748Y037239*
X029823Y037098*
X029924Y036974*
X030048Y036873*
X030189Y036798*
X030341Y036752*
X030500Y036736*
G37*
G36*
X024200Y036750D02*
X024385Y036768D01*
X024564Y036822*
X024728Y036910*
X024872Y037028*
X024990Y037172*
X025078Y037336*
X025132Y037515*
X025150Y037700*
X025132Y037885*
X025078Y038064*
X024990Y038228*
X024872Y038372*
X024728Y038490*
X024564Y038578*
X024385Y038632*
X024200Y038650*
X024015Y038632*
X023836Y038578*
X023672Y038490*
X023528Y038372*
X023410Y038228*
X023322Y038064*
X023268Y037885*
X023250Y037700*
X023268Y037515*
X023322Y037336*
X023410Y037172*
X023528Y037028*
X023672Y036910*
X023836Y036822*
X024015Y036768*
X024200Y036750*
G37*
G36*
X024050Y043186D02*
X024209Y043202D01*
X024361Y043248*
X024502Y043323*
X024626Y043424*
X024727Y043548*
X024802Y043689*
X024848Y043841*
X024864Y044000*
X024848Y044159*
X024802Y044311*
X024727Y044452*
X024626Y044576*
X024502Y044677*
X024361Y044752*
X024209Y044798*
X024050Y044814*
X023891Y044798*
X023739Y044752*
X023598Y044677*
X023474Y044576*
X023373Y044452*
X023298Y044311*
X023252Y044159*
X023236Y044000*
X023252Y043841*
X023298Y043689*
X023373Y043548*
X023474Y043424*
X023598Y043323*
X023739Y043248*
X023891Y043202*
X024050Y043186*
G37*
G36*
X036950D02*
X037109Y043202D01*
X037261Y043248*
X037402Y043323*
X037526Y043424*
X037627Y043548*
X037702Y043689*
X037748Y043841*
X037764Y044000*
X037748Y044159*
X037702Y044311*
X037627Y044452*
X037526Y044576*
X037402Y044677*
X037261Y044752*
X037109Y044798*
X036950Y044814*
X036791Y044798*
X036639Y044752*
X036498Y044677*
X036374Y044576*
X036273Y044452*
X036198Y044311*
X036152Y044159*
X036136Y044000*
X036152Y043841*
X036198Y043689*
X036273Y043548*
X036374Y043424*
X036498Y043323*
X036639Y043248*
X036791Y043202*
X036950Y043186*
G37*
G36*
X024914Y039961D02*
X025073Y039977D01*
X025226Y040023*
X025366Y040098*
X025490Y040199*
X025591Y040323*
X025666Y040464*
X025712Y040616*
X025728Y040775*
X025712Y040934*
X025666Y041086*
X025591Y041227*
X025490Y041351*
X025366Y041452*
X025226Y041527*
X025073Y041573*
X024914Y041589*
X024755Y041573*
X024603Y041527*
X024462Y041452*
X024339Y041351*
X024237Y041227*
X024162Y041086*
X024116Y040934*
X024100Y040775*
X024116Y040616*
X024162Y040464*
X024237Y040323*
X024339Y040199*
X024462Y040098*
X024603Y040023*
X024755Y039977*
X024914Y039961*
G37*
G36*
X036086D02*
X036245Y039977D01*
X036397Y040023*
X036538Y040098*
X036661Y040199*
X036763Y040323*
X036838Y040464*
X036884Y040616*
X036900Y040775*
X036884Y040934*
X036838Y041086*
X036763Y041227*
X036661Y041351*
X036538Y041452*
X036397Y041527*
X036245Y041573*
X036086Y041589*
X035927Y041573*
X035774Y041527*
X035634Y041452*
X035510Y041351*
X035409Y041227*
X035334Y041086*
X035288Y040934*
X035272Y040775*
X035288Y040616*
X035334Y040464*
X035409Y040323*
X035510Y040199*
X035634Y040098*
X035774Y040023*
X035927Y039977*
X036086Y039961*
G37*
%LNarray-3*%
%LPD*%
G54D10*
X033200Y015314D03*
Y017086D03*
X015900Y013386D03*
Y011614D03*
G54D11*
X012636Y018900D03*
X010864D03*
X025236Y011000D03*
X023464D03*
G54D12*
X033485Y018400D03*
X032815D03*
X016515Y021550D03*
X017185D03*
Y022200D03*
X016515D03*
Y020900D03*
X017185D03*
X026865Y019100D03*
X027535D03*
X019885Y022300D03*
X019215D03*
X019885Y022800D03*
X019215D03*
X019885Y023300D03*
X019215D03*
X027165Y017600D03*
X027835D03*
X019885Y021800D03*
X019215D03*
X036685Y022950D03*
X036015D03*
X018065Y018700D03*
X018735D03*
X018065Y019350D03*
X018735D03*
X026315Y010550D03*
X026985D03*
X019885Y020300D03*
X019215D03*
X022335Y018800D03*
X021665D03*
X034265Y025350D03*
X034935D03*
X033115D03*
X033785D03*
X031965D03*
X032635D03*
X019885Y026100D03*
X019215D03*
X031615Y016450D03*
X032285D03*
X019885Y021300D03*
X019215D03*
X019885Y020800D03*
X019215D03*
X021035Y019800D03*
X020365D03*
X021035Y018800D03*
X020365D03*
X029315Y016450D03*
X029985D03*
X030465D03*
X031135D03*
X015565Y010550D03*
X016235D03*
X018085Y017800D03*
X017415D03*
X014135Y014300D03*
X013465D03*
X019885Y017750D03*
X019215D03*
X026335Y014700D03*
X025665D03*
X021985Y016350D03*
X021315D03*
Y016850D03*
X021985D03*
X028415Y027500D03*
X029085D03*
X019165Y051400D03*
X019835D03*
X018765Y050900D03*
X019435D03*
X025915Y037450D03*
X026585D03*
X025915Y036850D03*
X026585D03*
X017335Y044750D03*
X016665D03*
X011885Y037200D03*
X011215D03*
X017335Y045500D03*
X016665D03*
X020885Y036850D03*
X020215D03*
X017335Y043250D03*
X016665D03*
X017335Y044000D03*
X016665D03*
X017335Y042500D03*
X016665D03*
X014515Y041000D03*
X015185D03*
Y040500D03*
X014515D03*
G54D13*
X031546Y019945D03*
Y019355D03*
X032254D03*
Y019945D03*
X032746Y022195D03*
Y021605D03*
X033454D03*
Y022195D03*
G54D14*
X031546Y019650D03*
X032254D03*
X032746Y021900D03*
X033454D03*
G54D15*
X032796Y020172D03*
Y019857D03*
Y019543D03*
Y019228D03*
X033504Y020172D03*
Y019857D03*
Y019543D03*
Y019228D03*
X033996Y022422D03*
Y022107D03*
Y021793D03*
Y021478D03*
X034704Y022422D03*
Y022107D03*
Y021793D03*
Y021478D03*
G54D16*
X020450Y022000D03*
X026400Y018350D03*
X025650Y017850D03*
X024900Y018850D03*
X025650D03*
X024900Y017850D03*
X028100Y021750D03*
G54D17*
X012500Y028535D03*
Y027865D03*
X011900Y028535D03*
Y027865D03*
X031450Y024785D03*
Y024115D03*
Y022865D03*
Y023535D03*
X026700Y027165D03*
Y027835D03*
X025200D03*
Y027165D03*
X025700Y027835D03*
Y027165D03*
X024700Y027835D03*
Y027165D03*
X026200Y027835D03*
Y027165D03*
X028700Y017035D03*
Y016365D03*
X016900Y013685D03*
Y013015D03*
Y011915D03*
Y012585D03*
X020700Y026865D03*
Y027535D03*
X023200Y027165D03*
Y027835D03*
X024300Y018535D03*
Y017865D03*
X023700Y018535D03*
Y017865D03*
X021700Y027165D03*
Y027835D03*
X027450Y027235D03*
Y026565D03*
X022200Y027165D03*
Y027835D03*
X022700Y027165D03*
Y027835D03*
X031150Y015935D03*
Y015265D03*
X030550Y015935D03*
Y015265D03*
X032000Y026885D03*
Y026215D03*
X033750Y024835D03*
Y024165D03*
X033150Y024835D03*
Y024165D03*
X027950Y027235D03*
Y026565D03*
X020450Y025465D03*
Y026135D03*
X029300Y017985D03*
Y017315D03*
X024200Y027165D03*
Y027835D03*
X032250Y017685D03*
Y017015D03*
X023700Y027165D03*
Y027835D03*
X034900Y026585D03*
Y025915D03*
X016550Y025985D03*
Y025315D03*
Y022815D03*
Y023485D03*
Y024735D03*
Y024065D03*
X018200Y026865D03*
Y027535D03*
X017750Y015715D03*
Y016385D03*
X023650Y014935D03*
Y014265D03*
X024250D03*
Y014935D03*
X027800Y015215D03*
Y015885D03*
Y016365D03*
Y017035D03*
X028750Y041615D03*
Y042285D03*
X011800Y039935D03*
Y039265D03*
X015750Y039865D03*
Y040535D03*
X016350Y039865D03*
Y040535D03*
X016150Y039235D03*
Y038565D03*
X016050Y046835D03*
Y046165D03*
X017200Y046835D03*
Y046165D03*
G54D18*
X015849Y020900D03*
Y021900D03*
X013251Y020900D03*
Y021900D03*
X015849Y026900D03*
Y027900D03*
X013251Y026900D03*
Y027900D03*
X015849Y024900D03*
Y025900D03*
X013251Y024900D03*
Y025900D03*
X015849Y022900D03*
Y023900D03*
X013251Y022900D03*
Y023900D03*
G54D19*
X029215Y010550D03*
X028585D03*
X014365Y019750D03*
X013735D03*
X014365Y018700D03*
X013735D03*
X011765Y010550D03*
X011135D03*
G54D20*
X038200Y023565D03*
Y022935D03*
G54D21*
X029004Y021839D03*
X029260D03*
X029516D03*
X029772D03*
X030028D03*
X030284D03*
X030540D03*
X030796D03*
X029004Y024161D03*
X029260D03*
X029516D03*
X029772D03*
X030028D03*
X030284D03*
X030540D03*
X030796D03*
G54D22*
X019307Y029205D03*
X020094D03*
X020882D03*
X021669D03*
X022456D03*
X023244D03*
X024031D03*
X024818D03*
X025606D03*
X026393D03*
X019307Y031295D03*
X020094D03*
X020882D03*
X021669D03*
X022456D03*
X023244D03*
X024031D03*
X024818D03*
X025606D03*
X026393D03*
G54D23*
X030488Y024950D03*
Y025450D03*
Y025950D03*
Y026450D03*
Y026950D03*
X029012Y024950D03*
Y025450D03*
Y025950D03*
Y026450D03*
Y026950D03*
G54D24*
X030122Y014550D03*
X031578D03*
X032722Y023450D03*
X034178D03*
G54D25*
X034198Y026358D03*
Y026555D03*
Y026752D03*
Y026948D03*
Y027145D03*
Y027342D03*
X032702D03*
Y027145D03*
Y026948D03*
Y026752D03*
Y026555D03*
Y026358D03*
X031548Y017458D03*
Y017655D03*
Y017852D03*
Y018048D03*
Y018245D03*
Y018442D03*
X030052D03*
Y018245D03*
Y018048D03*
Y017852D03*
Y017655D03*
Y017458D03*
G54D26*
X033942Y027598D03*
X033745D03*
X033548D03*
X033352D03*
X033155D03*
X032958D03*
Y026102D03*
X033155D03*
X033352D03*
X033548D03*
X033745D03*
X033942D03*
X031292Y018698D03*
X031095D03*
X030898D03*
X030702D03*
X030505D03*
X030308D03*
Y017202D03*
X030505D03*
X030702D03*
X030898D03*
X031095D03*
X031292D03*
G54D27*
X033450Y026850D03*
X030800Y017950D03*
G54D28*
X023455Y013600D03*
Y013100D03*
Y012600D03*
Y012100D03*
X025345Y013600D03*
Y013100D03*
Y012600D03*
Y012100D03*
X018605Y017100D03*
Y016600D03*
Y016100D03*
Y015600D03*
X020495Y017100D03*
Y016600D03*
Y016100D03*
Y015600D03*
X026935Y015300D03*
Y015800D03*
Y016300D03*
Y016800D03*
X025045Y015300D03*
Y015800D03*
Y016300D03*
Y016800D03*
G54D29*
X014150Y016350D03*
X016700D03*
G54D30*
X014850Y013445D03*
X014350D03*
X013850D03*
X013350D03*
X014850Y011555D03*
X014350D03*
X013850D03*
X013350D03*
G54D31*
X026562Y019878D03*
X026365D03*
X026168D03*
X025972D03*
X025775D03*
X025578D03*
X025381D03*
X025184D03*
X024987D03*
X024791D03*
X024594D03*
X024397D03*
X024200D03*
X024003D03*
X023806D03*
X023609D03*
X023413D03*
X023216D03*
X023019D03*
X022822D03*
X022625D03*
X022428D03*
X022232D03*
X022035D03*
X021838D03*
Y025822D03*
X022035D03*
X022232D03*
X022428D03*
X022625D03*
X022822D03*
X023019D03*
X023216D03*
X023413D03*
X023609D03*
X023806D03*
X024003D03*
X024200D03*
X024397D03*
X024594D03*
X024791D03*
X024987D03*
X025184D03*
X025381D03*
X025578D03*
X025775D03*
X025972D03*
X026168D03*
X026365D03*
X026562D03*
G54D32*
X021228Y020488D03*
Y020685D03*
Y020882D03*
Y021078D03*
Y021275D03*
Y021472D03*
Y021669D03*
Y021866D03*
Y022063D03*
Y022259D03*
Y022456D03*
Y022653D03*
Y022850D03*
Y023047D03*
Y023244D03*
Y023441D03*
Y023637D03*
Y023834D03*
Y024031D03*
Y024228D03*
Y024425D03*
Y024622D03*
Y024818D03*
Y025015D03*
Y025212D03*
X027172D03*
Y025015D03*
Y024818D03*
Y024622D03*
Y024425D03*
Y024228D03*
Y024031D03*
Y023834D03*
Y023637D03*
Y023441D03*
Y023244D03*
Y023047D03*
Y022850D03*
Y022653D03*
Y022456D03*
Y022259D03*
Y022063D03*
Y021866D03*
Y021669D03*
Y021472D03*
Y021275D03*
Y021078D03*
Y020882D03*
Y020685D03*
Y020488D03*
G54D33*
X019426Y026906D03*
X020174D03*
X019800Y027694D03*
G54D34*
X027750Y011400D03*
Y013950D03*
G54D35*
X022009Y012750D03*
X018091D03*
G54D36*
X017536Y026740D03*
X017379D03*
X017221D03*
X017064D03*
Y027660D03*
X017221D03*
X017379D03*
X017536D03*
G54D37*
X016997Y026964D03*
Y027121D03*
Y027279D03*
Y027436D03*
X017603D03*
Y027279D03*
Y027121D03*
G54D38*
X017583Y026964D03*
G54D39*
X028000Y029372D03*
Y030828D03*
X029100Y029372D03*
Y030828D03*
G54D40*
X037050Y026056D03*
Y025800D03*
Y025544D03*
Y026312D03*
Y025288D03*
X011700Y025794D03*
Y026050D03*
Y026306D03*
Y025538D03*
Y026562D03*
Y021044D03*
Y021300D03*
Y021556D03*
Y020788D03*
Y021812D03*
Y012844D03*
Y013100D03*
Y013356D03*
Y012588D03*
Y013612D03*
G54D41*
X012600Y016313D03*
Y017887D03*
G54D42*
X033485Y018115D02*
Y018400D01*
Y018115D02*
X034250Y017350D01*
X034400*
X030284Y022616D02*
Y024161D01*
Y022616D02*
X030350Y022550D01*
X026650Y018885D02*
X026865Y019100D01*
X026650Y018850D02*
Y018885D01*
X022050Y020750D02*
X022950D01*
X033850Y025800D02*
X034785D01*
X031250Y016900D02*
X032185D01*
X033459Y021600D02*
X033600D01*
X033722Y021478*
X033996*
X033454Y021304D02*
Y021605D01*
X032835Y020685D02*
X033454Y021304D01*
X033750Y021900D02*
X033900Y021750D01*
X033300Y021900D02*
X033750D01*
X033150Y021750D02*
X033300Y021900D01*
X033150Y021300D02*
Y021750D01*
X032731Y020882D02*
X033150Y021300D01*
X033250Y022150D02*
X033996D01*
X033000Y021900D02*
X033250Y022150D01*
X033000Y021400D02*
Y021900D01*
X032678Y021078D02*
X033000Y021400D01*
X033022Y022422D02*
X033996D01*
X032795Y022195D02*
X033022Y022422D01*
X032445Y022195D02*
X032795D01*
X031525Y021275D02*
X032445Y022195D01*
X032254Y019945D02*
Y020046D01*
X031812Y020488D02*
X032254Y020046D01*
X032164Y019355D02*
X032254D01*
X031919Y019600D02*
X032164Y019355D01*
X031900Y019600D02*
X031919D01*
X031550Y019350D02*
X031850Y019050D01*
X031546Y019355D02*
X031550Y019350D01*
X031900*
X032150Y019650D02*
X032254D01*
X031900Y019900D02*
X032150Y019650D01*
X031900Y019900D02*
Y020050D01*
X031700Y020250D02*
X031900Y020050D01*
X032481Y020172D02*
X032796D01*
X032254Y019945D02*
X032481Y020172D01*
X032607Y019857D02*
X032796D01*
X032400Y019650D02*
X032607Y019857D01*
X032254Y019650D02*
X032400D01*
X032643Y019543D02*
X032796D01*
X032550Y019450D02*
X032643Y019543D01*
X032350Y019450D02*
X032550D01*
X032254Y019355D02*
X032350Y019450D01*
X032618Y019050D02*
X032796Y019228D01*
X031850Y019050D02*
X032618D01*
X026168Y020713D02*
X026497Y020385D01*
X026607Y020600D02*
X026672Y020535D01*
X026550Y020600D02*
X026607D01*
X026665Y020385D02*
X026800Y020250D01*
X026497Y020385D02*
X026665D01*
X026727Y020535D02*
X026774Y020488D01*
X026672Y020535D02*
X026727D01*
X026734Y020685D02*
X027172D01*
X026469Y020950D02*
X026734Y020685D01*
X026774Y020488D02*
X027172D01*
X026800Y020250D02*
X031700D01*
X026168Y019878D02*
Y020713D01*
Y020782*
X026360Y019883D02*
X026365Y019878D01*
X033504Y019228D02*
X033722D01*
X034400Y018550*
Y018350D02*
Y018550D01*
X033504Y019543D02*
X034207D01*
X034400Y019350*
X033504Y020172D02*
Y020354D01*
X033950Y020800*
X033907Y019857D02*
X034400Y020350D01*
X033504Y019857D02*
X033907D01*
X027172Y020685D02*
X032835D01*
X027172Y020882D02*
X032731D01*
X027172Y021078D02*
X032678D01*
X027172Y021275D02*
X031525D01*
X035000Y019750D02*
Y021350D01*
X034872Y021478D02*
X035000Y021350D01*
X034704Y021478D02*
X034872D01*
X035900Y017850D02*
Y021250D01*
X035050Y022100D02*
X035900Y021250D01*
X034712Y022100D02*
X035050D01*
X034704Y022422D02*
X035128D01*
X036050Y021500*
X034704Y022107D02*
X034712Y022100D01*
X034704Y021793D02*
X034957D01*
X035400Y021350*
Y020350D02*
Y021350D01*
X036050Y017250D02*
Y021500D01*
X033950Y020800D02*
X034750D01*
X034850Y020700*
Y018900D02*
Y020700D01*
X034400Y016350D02*
X034650D01*
X035150Y016850*
X020513Y022063D02*
X021228D01*
X015849Y020900D02*
X016515D01*
X015500Y021900D02*
X015850Y021550D01*
X016515*
X017185D02*
Y022200D01*
X013251Y022900D02*
X013551Y023200D01*
X014450*
X015450Y022200*
X016515*
X012100Y026562D02*
Y027300D01*
X011900Y027500D02*
X012100Y027300D01*
X011900Y027500D02*
Y027865D01*
Y028535D02*
X012500Y027935D01*
X035000Y023450D02*
X035500Y022950D01*
X036015*
X036700Y022935D02*
X038200D01*
X015500Y021900D02*
X015849D01*
X012250Y021250D02*
X013150D01*
X012044Y021044D02*
X012250Y021250D01*
X011700Y021044D02*
X012044D01*
X025275Y018225D02*
Y019125D01*
X025184Y019216D02*
X025275Y019125D01*
X025184Y019216D02*
Y019878D01*
X027822Y021472D02*
X028100Y021750D01*
X027172Y021472D02*
X027822D01*
X026300Y018450D02*
X026400Y018350D01*
X026300Y018450D02*
Y019100D01*
X026365Y019165*
Y019878*
X025578Y019522D02*
X026050Y019050D01*
Y018550D02*
Y019050D01*
X025650Y018150D02*
X026050Y018550D01*
X025578Y019522D02*
Y019878D01*
X025381Y019369D02*
Y019878D01*
Y019369D02*
X025450Y019300D01*
Y019050D02*
Y019300D01*
Y019050D02*
X025650Y018850D01*
Y017850D02*
Y018150D01*
X024900Y017850D02*
X025275Y018225D01*
X024397Y019353D02*
X024900Y018850D01*
X024397Y019353D02*
Y019878D01*
X035250Y024650D02*
Y026150D01*
X034178Y023578D02*
X035250Y024650D01*
X034178Y023450D02*
Y023578D01*
X033650Y023450D02*
X034178D01*
X033550Y023550D02*
X033650Y023450D01*
X033550Y023550D02*
Y023965D01*
X033750Y024165*
X032722Y023450D02*
X033250D01*
X033350Y023550*
Y023950*
X033150Y024150D02*
X033350Y023950D01*
X033150Y024150D02*
Y024165D01*
X034550Y026250D02*
X035150D01*
X034402Y026102D02*
X034550Y026250D01*
X033942Y026102D02*
X034402D01*
X035150Y026250D02*
X035250Y026150D01*
X033745Y025905D02*
X033850Y025800D01*
X033745Y025905D02*
Y026102D01*
X034198Y026555D02*
X034870D01*
X033745D02*
X034198D01*
X033548Y026752D02*
X034198D01*
X033548Y026948D02*
X034198D01*
X033745Y027145D02*
X034198D01*
X032958Y027342D02*
X033155Y027145D01*
X032958Y027342D02*
Y027598D01*
X033233Y027067D02*
X033450Y026850D01*
X033155Y027145D02*
X033233Y027067D01*
X032702Y027342D02*
X032958D01*
X032702Y027145D02*
X033155D01*
X032000Y026885D02*
X032261Y027145D01*
X032702*
X032308Y026358D02*
X032400Y026450D01*
X032200Y026250D02*
X032308Y026358D01*
X032702*
X032405Y026555D02*
X032702D01*
X032452Y026752D02*
X032702D01*
X032400Y026450D02*
Y026850D01*
X032498Y026948*
X032702*
X032113Y026102D02*
X032958D01*
X033150Y024835D02*
Y025450D01*
X032635Y025350D02*
X033115D01*
X033750Y024835D02*
Y025500D01*
X033785Y025350D02*
X034265D01*
X033548Y025702D02*
X033750Y025500D01*
X033548Y025702D02*
Y026102D01*
X033150Y025450D02*
X033352Y025652D01*
Y026102*
X031150Y016450D02*
Y016500D01*
Y015935D02*
Y016450D01*
X031615*
X031135D02*
X031150D01*
X030550Y015935D02*
Y016600D01*
X029985Y016450D02*
X030465D01*
X029558Y017458D02*
X029755Y017655D01*
X029415Y017315D02*
X029558Y017458D01*
X030052*
X029755Y017655D02*
X029952Y017852D01*
X029755Y017655D02*
X030052D01*
X029952Y017852D02*
X030052D01*
X029413Y017202D02*
X030308D01*
X030052Y018048D02*
X030702D01*
X029364D02*
X030052D01*
X030702D02*
X030800Y017950D01*
X030583Y018167D02*
X030702Y018048D01*
X030505Y018245D02*
X030583Y018167D01*
X030308Y018442D02*
X030505Y018245D01*
X030052D02*
X030505D01*
X030052Y018442D02*
X030308D01*
X030898Y017852D02*
X031548D01*
X030898Y018048D02*
X031548D01*
X030308Y018442D02*
Y018698D01*
X031095Y018245D02*
X031548D01*
Y017655D02*
X032270D01*
X031095D02*
X031548D01*
X031095Y017055D02*
X031250Y016900D01*
X031095Y017055D02*
Y017202D01*
X031292D02*
X031802D01*
X031950Y017350*
X032550*
X032600Y017300*
Y016100D02*
Y017300D01*
X031578Y015078D02*
X032600Y016100D01*
X031578Y014550D02*
Y015078D01*
X030550Y015265D02*
X030750Y015065D01*
Y014650D02*
Y015065D01*
X030650Y014550D02*
X030750Y014650D01*
X030900Y015015D02*
X031150Y015265D01*
X030900Y014650D02*
Y015015D01*
Y014650D02*
X031000Y014550D01*
X031578*
X030122D02*
X030650D01*
X030550Y016600D02*
X030702Y016752D01*
Y017202*
X030898Y016752D02*
X031150Y016500D01*
X030898Y016752D02*
Y017202D01*
X028900Y024600D02*
X029600D01*
X027544Y023244D02*
X028900Y024600D01*
X028450Y024950D02*
X029012D01*
X027728Y024228D02*
X028450Y024950D01*
X027172Y024228D02*
X027728D01*
X027675Y024425D02*
X028250Y025000D01*
Y025250*
X028450Y025450*
X028350Y025950D02*
X029012D01*
X028100Y025700D02*
X028350Y025950D01*
X028100Y025237D02*
Y025700D01*
X027682Y024818D02*
X028100Y025237D01*
X015299Y028450D02*
X015849Y027900D01*
X015250Y028450D02*
X015299D01*
X015550Y025900D02*
X015849D01*
X015150Y025500D02*
X015550Y025900D01*
X015150Y024250D02*
Y025500D01*
Y024250D02*
X015500Y023900D01*
X015849*
Y022900D02*
X016465D01*
X016550Y022815*
X015849Y024900D02*
X016015Y024735D01*
X016550*
X015849Y026900D02*
X016550Y026199D01*
Y025985D02*
Y026199D01*
X024800Y020450D02*
X025100Y020750D01*
X025800D02*
X025850D01*
X025972Y020628*
X026000Y020950D02*
X026168Y020782D01*
X025600Y020950D02*
X026000D01*
X025775Y019878D02*
Y020500D01*
Y020525*
X025972Y019878D02*
Y020628D01*
X024987Y020337D02*
X025600Y020950D01*
X024600Y019884D02*
Y020500D01*
X024594Y019878D02*
X024600Y019884D01*
X024800Y019887D02*
Y020450D01*
X024987Y019878D02*
Y020337D01*
X024791Y019878D02*
X024800Y019887D01*
X034400Y020250D02*
Y020350D01*
X027172Y020488D02*
X031812D01*
X026350Y020950D02*
X026469D01*
X026769Y020882D02*
X027172D01*
X026160Y021490D02*
X026769Y020882D01*
X026160Y021490D02*
Y021944D01*
X026278Y022063*
X027172*
X026350Y021866D02*
X027172D01*
X026550Y021669D02*
X027172D01*
X035650Y016850D02*
X036050Y017250D01*
X035400Y017350D02*
X035900Y017850D01*
X035150Y016850D02*
X035650D01*
X035000Y019750D02*
X035400Y019350D01*
X034850Y018900D02*
X035400Y018350D01*
X027172Y024818D02*
X027682D01*
X028450Y025450D02*
X029012D01*
X027172Y024425D02*
X027675D01*
X027172Y023244D02*
X027544D01*
X029600Y024600D02*
X029750Y024750D01*
Y026800*
X029600Y026950D02*
X029750Y026800D01*
X020495Y016100D02*
X020532Y016063D01*
X026985Y010500D02*
X028565D01*
X020495Y017100D02*
Y017147D01*
X021688D02*
X021985Y016850D01*
X020495Y017147D02*
X021688D01*
X020495Y016053D02*
Y016100D01*
X021688Y016053D02*
X021985Y016350D01*
X020495Y016053D02*
X021688D01*
X026935Y015800D02*
X027215D01*
X027800Y015215*
X024003Y018162D02*
Y019878D01*
Y018162D02*
X024300Y017865D01*
X023997Y018162D02*
X024003D01*
X023700Y017865D02*
X023997Y018162D01*
X023806Y018641D02*
Y019878D01*
X024200Y018635D02*
Y019878D01*
X021985Y016850D02*
X022500D01*
X021985Y016350D02*
X022212D01*
X023413Y019288D02*
Y019878D01*
X023609Y019273D02*
Y019878D01*
X023019Y019319D02*
Y019878D01*
X023216Y019304D02*
Y019878D01*
X027800Y015215D02*
X028150Y015565D01*
X026935Y016800D02*
X027150D01*
X027385Y017035*
X027800*
X027400Y016550D02*
X027550Y016700D01*
X028050*
X028150Y016600*
Y015565D02*
Y016600D01*
X023562Y017300D02*
X025800D01*
X026300Y016800*
X026935*
X023500Y017150D02*
X025738D01*
X026338Y016550*
X027400*
X023806Y019878D02*
Y022706D01*
X024003Y022903*
Y025822*
Y019878D02*
Y022603D01*
X024200Y022800*
Y025822*
Y019878D02*
Y022500D01*
X024397Y022697*
Y025822*
X022035Y019485D02*
Y019878D01*
X021800Y019250D02*
X022035Y019485D01*
X021050Y019878D02*
X021838D01*
X020588Y020488D02*
X021228D01*
X020400Y020300D02*
X020588Y020488D01*
X019885Y020300D02*
X020400D01*
X020565Y020685D02*
X021228D01*
X020450Y020800D02*
X020565Y020685D01*
X019885Y020800D02*
X020450D01*
X020668Y020882D02*
X021228D01*
X020250Y021300D02*
X020668Y020882D01*
X019885Y021300D02*
X020250D01*
X021228Y021669D02*
X021869D01*
X019800Y022456D02*
X021228D01*
X020750Y022850D02*
X021228D01*
X020300Y023300D02*
X020750Y022850D01*
X019885Y023300D02*
X020300D01*
X021228Y021078D02*
X021722D01*
X026562Y019403D02*
X026865Y019100D01*
X026562Y019403D02*
Y019878D01*
X022700Y026800D02*
Y027165D01*
X024397Y025822D02*
Y026403D01*
X024150Y026650D02*
X024397Y026403D01*
X023400Y026650D02*
X024150D01*
X023200Y026850D02*
X023400Y026650D01*
X023200Y026850D02*
Y027165D01*
X023800Y026800D02*
X024212D01*
X023700Y026900D02*
X023800Y026800D01*
X023700Y026900D02*
Y027165D01*
X024594Y025822D02*
Y026418D01*
X024212Y026800D02*
X024594Y026418D01*
X024791Y025822D02*
Y026434D01*
X024200Y027024D02*
X024791Y026434D01*
X024200Y027024D02*
Y027165D01*
X025184Y025822D02*
Y027150D01*
X025381Y025822D02*
Y026631D01*
X025700Y026950*
Y027165*
X025578Y025822D02*
Y026328D01*
X026200Y026950*
Y027165*
X026562Y026612D02*
X026700Y026750D01*
Y027165*
X024003Y025822D02*
Y026197D01*
X022700Y026800D02*
X023050Y026450D01*
X023750*
X024003Y026197*
X024700Y026800D02*
Y027165D01*
Y026800D02*
X024987Y026513D01*
Y025822D02*
Y026513D01*
X024200Y027835D02*
X024700D01*
X025200*
X025700D02*
X026200D01*
X023700Y027600D02*
X023800Y027500D01*
X023700Y027600D02*
Y027835D01*
X023800Y027500D02*
X025600D01*
X025700Y027600*
Y027835*
X027172Y025212D02*
Y026288D01*
X027450Y026565*
X027172Y025015D02*
X027615D01*
X027750Y025150*
Y026365D02*
X027950Y026565D01*
X011700Y025794D02*
X012006D01*
X012550Y025250*
Y023850D02*
Y025250D01*
X020675Y021275D02*
X021228D01*
X020500Y021550D02*
X020600D01*
X020678Y021472*
X021228*
X022822Y025822D02*
Y026278D01*
X022200Y026900D02*
X022822Y026278D01*
X022200Y026900D02*
Y027165D01*
X022232Y025822D02*
Y026418D01*
X021700Y026950D02*
X022232Y026418D01*
X021700Y026950D02*
Y027165D01*
X019885Y026100D02*
X020162Y025822D01*
X021838*
X020450Y025465D02*
X020703Y025212D01*
X021228*
X020450Y026135D02*
X020885D01*
X021700Y026950*
X023216Y024500D02*
Y025822D01*
X023413Y025387D02*
Y025822D01*
X030488Y025450D02*
Y025950D01*
Y026450*
Y026950*
X026562Y025822D02*
Y026612D01*
X026350Y026350D02*
X026365Y026335D01*
Y025822D02*
Y026335D01*
X026463Y023637D02*
X027172D01*
X026566Y023834D02*
X027172D01*
X026669Y024031D02*
X027172D01*
X026550Y024150D02*
X026669Y024031D01*
X026778Y024622D02*
X027172D01*
X026550Y024150D02*
Y024500D01*
X026350Y024050D02*
X026566Y023834D01*
X026350Y024050D02*
Y024250D01*
X026150Y023950D02*
X026463Y023637D01*
X027750Y025150D02*
Y026200D01*
Y026365*
X022400Y025200D02*
X022428Y025228D01*
Y025822*
X023413Y025387D02*
X023500Y025300D01*
Y025200D02*
Y025300D01*
X025775Y025425D02*
Y025822D01*
X026550Y024850D02*
X026778Y024622D01*
X026550Y024850D02*
Y025050D01*
X026100Y023650D02*
X026309Y023441D01*
X027172*
X025972Y025372D02*
Y025822D01*
X026168Y025268D02*
Y025822D01*
X025000Y024350D02*
Y024400D01*
X021722Y021078D02*
X022050Y020750D01*
X021228Y024228D02*
X021622D01*
X021228Y024425D02*
X021675D01*
X024700Y024350D02*
X025775Y025425D01*
X025000Y024400D02*
X025972Y025372D01*
X025250Y024350D02*
X026168Y025268D01*
X018435Y025015D02*
X018450Y025000D01*
X016550Y025315D02*
X016635D01*
X016900Y025050*
X016550Y024065D02*
X016835D01*
X016900Y024000*
X016550Y023485D02*
X016765Y023700D01*
X016900*
X018435Y025015D02*
X021228D01*
X022625Y024125D02*
Y025822D01*
X023000Y024300D02*
X023019Y024319D01*
Y025822*
X022035Y025215D02*
Y025822D01*
Y025215D02*
X022100Y025150D01*
Y023900D02*
Y025150D01*
X021675Y024425D02*
X021910Y024190D01*
X021622Y024228D02*
X021750Y024100D01*
X026594Y023244D02*
X027172D01*
X026200Y022850D02*
X026594Y023244D01*
X026200Y022500D02*
Y022850D01*
X021228Y021866D02*
X021672D01*
X021869Y021669*
X022188Y021350*
X022950*
X023450Y021850*
X027172Y023047D02*
X027603D01*
X027700Y022950*
X027609Y022259D02*
X027700Y022350D01*
X027172Y022259D02*
X027609D01*
X027172Y022850D02*
X027650D01*
X027172Y022653D02*
X027697D01*
X027700Y022350D02*
Y022950D01*
X036850Y023750D02*
X037550Y024450D01*
Y025850*
X037344Y026056D02*
X037550Y025850D01*
X037050Y026056D02*
X037344D01*
X020700Y019450D02*
Y020050D01*
X020850Y020200*
X021550*
X021800Y020450*
X022350*
X022428Y020372*
Y019878D02*
Y020372D01*
X017185Y020900D02*
X017850D01*
X019450Y019300*
X020550*
X020700Y019450*
X021017Y018817D02*
X021450Y019250D01*
X021800*
X022822Y019334D02*
Y019878D01*
X022500Y018350D02*
X022625Y018475D01*
Y019878*
X022775Y019287D02*
X022822Y019334D01*
X022925Y019225D02*
X023019Y019319D01*
X023075Y017213D02*
Y019163D01*
X023216Y019304*
X023225Y017425D02*
Y019101D01*
X023413Y019288*
X023375Y017487D02*
Y019039D01*
X023609Y019273*
X022650Y018150D02*
X022775Y018275D01*
Y019287*
X022500Y016850D02*
X022925Y017275D01*
Y019225*
X022212Y016350D02*
X023075Y017213D01*
X023225Y017425D02*
X023500Y017150D01*
X023375Y017487D02*
X023562Y017300D01*
X021765Y018800D02*
Y018915D01*
X022232Y019382*
Y019878*
X019900Y018350D02*
X022500D01*
X018850Y019400D02*
X019900Y018350D01*
X019450Y018150D02*
X022650D01*
X018850Y018750D02*
X019450Y018150D01*
X014765Y019350D02*
X018065D01*
X014365Y019750D02*
X014765Y019350D01*
X017950Y018700D02*
X018065D01*
X017700Y018450D02*
X017950Y018700D01*
X014615Y018450D02*
X017700D01*
X014365Y018700D02*
X014615Y018450D01*
X012950Y018700D02*
X013735D01*
X013251Y019750D02*
X013735D01*
X021910Y023690D02*
Y024190D01*
Y023690D02*
X022850Y022750D01*
Y021950D02*
Y022750D01*
X021750Y023600D02*
Y024100D01*
X022881Y021650D02*
X022900D01*
X022660Y021871D02*
X022881Y021650D01*
X022660Y021871D02*
Y022690D01*
X021750Y023600D02*
X022660Y022690D01*
X021228Y022653D02*
X021747D01*
X021850Y022550*
Y022400D02*
Y022550D01*
X021709Y022259D02*
X021850Y022400D01*
X021228Y022259D02*
X021709D01*
X029516Y023234D02*
Y024161D01*
Y023234D02*
X030028Y022722D01*
Y021839D02*
Y022722D01*
X029772Y024161D02*
Y024472D01*
X029900Y024600*
X030950*
X031435Y024115*
Y023550D02*
Y024115D01*
X031285Y024950D02*
X031450Y024785D01*
X031100Y024950D02*
X031285D01*
X028135Y017600D02*
X028700Y017035D01*
X027835Y017600D02*
X028135D01*
X033745Y027598D02*
Y027845D01*
X033750Y027850*
X033942Y027598D02*
Y027942D01*
X034000Y028000*
X031095Y018698D02*
Y018945D01*
X031292Y018698D02*
Y018892D01*
X031350Y018950*
X022625Y024125D02*
X022650Y024100D01*
X028215Y027500D02*
X028415D01*
X027950Y027235D02*
X028215Y027500D01*
X026700Y027165D02*
X027881D01*
X029085Y027023D02*
Y027500D01*
Y026950D02*
X029600D01*
X011765Y010550D02*
X015565D01*
X016300D02*
X016550Y010800D01*
X011100Y010615D02*
X011215D01*
X011549Y010949*
X012399*
X012950Y011500*
Y012250*
X013800Y013100*
X013132Y013532D02*
Y014682D01*
X013350Y014900*
X011700Y012850D02*
X012450D01*
X013132Y013532*
X011700Y013100D02*
X012350D01*
X011700Y013350D02*
X012250D01*
X012350Y013100D02*
X012950Y013700D01*
Y014850*
X013350Y015250*
X012250Y013350D02*
X012750Y013850D01*
Y015000*
X013350Y015600*
X016665Y045500D02*
X015700D01*
X016665Y044750D02*
X015200D01*
X015158Y044492D02*
X011450D01*
X015650Y044000D02*
X015158Y044492D01*
X016665Y044000D02*
X015650D01*
X015098Y043902D02*
X011450D01*
X015750Y043250D02*
X015098Y043902D01*
X016665Y043250D02*
X015750D01*
X014995Y043705D02*
X011450D01*
X016200Y042500D02*
X014995Y043705D01*
X016665Y042500D02*
X016200D01*
X011500Y046067D02*
X011117D01*
X011500Y046264D02*
X011164D01*
X011117Y046217*
Y046067*
X011500Y045870D02*
X011180D01*
X011117Y045933*
Y046067D02*
Y045933D01*
X011500Y045083D02*
X011167D01*
X011100Y045150*
X011500Y045280D02*
X011130D01*
X011100Y045250*
Y045150*
X011500Y044098D02*
X011202D01*
X011100Y044200*
X011500Y044295D02*
X011195D01*
X011100Y044200*
X011500Y043311D02*
X011211D01*
X011100Y043200*
Y042750D02*
Y042650D01*
X011226Y042524D02*
X011100Y042650D01*
X011500Y042524D02*
X011226D01*
X011100Y043200D02*
Y043100D01*
Y042750*
X011500Y042720D02*
X011130D01*
X011500Y042917D02*
X011108D01*
X011500Y043114D02*
X011114D01*
X011400Y041636D02*
Y041550D01*
X011500Y041736D02*
X011400Y041636D01*
X011500Y041933D02*
X011183D01*
X011500Y042130D02*
X011080D01*
X011499Y038000D02*
X011250D01*
X014019Y039353D02*
X013697D01*
X013079Y039971*
X012750*
X011836*
X014600Y039550D02*
X014019D01*
X015181Y039747D02*
X014797D01*
X015750Y040535D02*
X015219D01*
Y040965D02*
Y040535D01*
X014515Y040500D02*
X013279D01*
X012750Y039971*
X016350Y039865D02*
X016315D01*
X016000Y039550*
X015181*
X015631Y039747D02*
X015181D01*
Y040496D02*
Y039944D01*
X016031Y039353D02*
X015181D01*
X014515Y041000D02*
Y040500D01*
X014019Y039944D02*
X013806D01*
X013650Y040100*
X011080Y042130D02*
X010940Y041990D01*
X011183Y041933D02*
X011110Y041860D01*
Y040740*
X011858Y039992D02*
X011110Y040740D01*
X011500Y042327D02*
X010977D01*
X011080Y042130D02*
X010900Y041950D01*
Y038350*
X011250Y038000D02*
X010900Y038350D01*
X010977Y042327D02*
X010700Y042050D01*
Y037715*
X011215Y037200D02*
X010700Y037715D01*
X015200Y044750D02*
X015139Y044689D01*
X011450*
X015700Y045500D02*
X015086Y044886D01*
X011500*
G54D43*
X032350Y014500D02*
X032600Y014750D01*
X034200*
X031222Y029372D02*
X031950Y030100D01*
X029100Y029372D02*
X031222D01*
X028000Y030828D02*
X029100D01*
X034178Y023450D02*
X035000D01*
X036450Y024900*
X013251Y026900D02*
Y027399D01*
X025700Y029205D02*
X026393D01*
X027950*
X025700Y031295D02*
X026300D01*
X013800Y014950D02*
Y016200D01*
X011421Y016313D02*
X012600D01*
X011333Y016225D02*
X011421Y016313D01*
X010825Y016225D02*
X011333D01*
X010550Y015950D02*
X010825Y016225D01*
X010550Y015400D02*
Y015950D01*
G54D44*
X032350Y014500D02*
X032628Y014222D01*
X028900Y014050D02*
X029350Y014500D01*
X028900Y012500D02*
Y014050D01*
X031950Y011950D02*
X032628Y012628D01*
X025300Y011000D02*
X025950D01*
X026350Y011400*
X027350*
X027750D02*
X027800D01*
X028900Y012500*
X032628Y012628D02*
Y014222D01*
X026350Y011400D02*
Y013050D01*
X027950Y036400D02*
X027195Y035645D01*
X027950Y042700D02*
Y036400D01*
X029190Y040090D02*
Y035890D01*
X029550Y040450D02*
X029190Y040090D01*
X029550Y041784D02*
Y040450D01*
X029190Y035890D02*
X027155Y033855D01*
X031766Y044000D02*
X029550Y041784D01*
X026393Y033855D02*
X025900D01*
X027195Y035645D02*
X026393D01*
X025900*
X027155Y033855D02*
X026393D01*
G54D45*
X012100Y026562D02*
X012288D01*
X011700D02*
X012100D01*
X027750Y028300D02*
X028000Y028550D01*
X021950Y028300D02*
X027750D01*
X028000Y028550D02*
Y028900D01*
X011700Y021812D02*
X012012D01*
X012150Y021950*
X012288Y026562D02*
X012350Y026500D01*
X021700Y027835D02*
Y028050D01*
X021950Y028300*
X022900Y038250D02*
X021150D01*
X020215Y037315*
Y036850*
X028750Y042500D02*
Y042285D01*
Y043400D02*
Y042500D01*
X026585Y037450D02*
Y036850D01*
X028750Y043400D02*
X028534Y043616D01*
X028527*
Y044384D02*
Y043616D01*
X024950Y035776D02*
X024818Y035645D01*
X025915Y036850D02*
X025750D01*
X025200Y036300*
X025915Y037450D02*
X024950Y036485D01*
Y035776*
X026000Y037535D02*
X025915Y037450D01*
X025200Y036300D02*
Y034700D01*
X024818Y034318*
Y033855*
X020881Y036634D02*
Y035645D01*
Y033855D02*
X020750Y033987D01*
X020500Y036565D02*
X020215Y036850D01*
X020750Y034650D02*
Y033987D01*
Y034650D02*
X020500Y034900D01*
Y036565D02*
Y034900D01*
X017800Y046050D02*
X014900D01*
X014326Y045476*
X011500*
X019307Y036793D02*
Y035645D01*
X018500Y045350D02*
X017800Y046050D01*
X018500Y045350D02*
Y037600D01*
X019307Y036793D02*
X018500Y037600D01*
G54D46*
X013251Y021900D02*
X014250Y022899D01*
X026935Y016300D02*
X027735D01*
X027800Y015885D02*
Y016235D01*
X027735Y016300D02*
X027800Y016235D01*
X020495Y016600D02*
X021350D01*
X019550Y020450D02*
X019700Y020300D01*
X019885*
X019550Y020450D02*
Y021700D01*
X019650Y021800*
X019885*
Y022300*
X017950Y017100D02*
X018605D01*
X019215Y020300D02*
Y020800D01*
Y021300*
Y022300D02*
Y022800D01*
Y023300*
X022200Y027835D02*
X022700D01*
X023200*
X016900Y012585D02*
Y013015D01*
X019885Y026100D02*
Y026235D01*
X019799Y022800D02*
X019885D01*
X019550Y023049D02*
X019799Y022800D01*
X019550Y023049D02*
Y024350D01*
X019885Y022300D02*
Y022800D01*
Y026235D02*
X020400Y026750D01*
X017750Y016385D02*
Y016900D01*
X017950Y017100*
X016235Y010550D02*
X016300D01*
X013350Y013445D02*
Y014185D01*
X013465Y014300*
X020719Y050350D02*
X020326Y049957D01*
X021350Y050350D02*
X020719D01*
X021800Y049900D02*
X021350Y050350D01*
X021950Y049900D02*
X021800D01*
X021893Y050843D02*
X020700D01*
X019150Y051800D02*
Y051415D01*
X020700Y050843D02*
X020143Y051400D01*
X019835*
X019165D02*
X018726Y050961D01*
X019435Y050900D02*
Y050433D01*
X018765Y050900D02*
Y050433D01*
X018726Y050961D02*
Y050794D01*
X020326Y049957D02*
X019451D01*
X019100Y049606*
X014019Y039100D02*
Y038769D01*
X015181Y039100D02*
Y038769D01*
X019800Y051800D02*
Y051435D01*
G54D47*
X036450Y024900D02*
X036838Y025288D01*
X037050*
G54D48*
X013251Y024000D02*
Y024749D01*
X012150Y021950D02*
X013100Y022900D01*
X013251*
X012350Y026500D02*
X012935Y025915D01*
X013251*
X013750Y030000D02*
X014537D01*
X013250Y029500D02*
X013750Y030000D01*
X013250Y028050D02*
Y029500D01*
X013251Y017699D02*
Y020900D01*
X013650Y016800D02*
X013850Y016600D01*
X013650Y016800D02*
Y017300D01*
X013251Y017699D02*
X013650Y017300D01*
X011550Y015400D02*
X011600D01*
X012000Y013700D02*
X012100D01*
X012200Y013800*
Y014800*
X011600Y015400D02*
X012200Y014800D01*
G54D49*
X015416Y027600D02*
X016452D01*
X013466Y025650D02*
X015416Y027600D01*
X015470Y027470D02*
X016398D01*
X013520Y025520D02*
X015470Y027470D01*
X015546Y027300D02*
X016384D01*
X014550Y026304D02*
X015546Y027300D01*
X015600Y027170D02*
X016330D01*
X014680Y026250D02*
X015600Y027170D01*
X015834Y029200D02*
X017221Y027813D01*
X015829Y029200D02*
X015834D01*
X015815Y029215D02*
X015829Y029200D01*
X015775Y029070D02*
X015780D01*
X017536Y027660D02*
X017760D01*
X017500Y027950D02*
X017750D01*
X017379Y027829D02*
X017500Y027950D01*
X017379Y027660D02*
Y027829D01*
X017765Y027520D02*
X018185D01*
X017604Y027120D02*
X017780D01*
X017603Y027121D02*
X017604Y027120D01*
X017780D02*
X017850Y027050D01*
Y027300D02*
Y027350D01*
X017682Y027436D02*
X017765Y027520D01*
X017221Y027660D02*
Y027813D01*
X015780Y029070D02*
X017064Y027786D01*
Y027660D02*
Y027786D01*
X015815Y029215D02*
D01*
X015850Y029250*
X017603Y027279D02*
X017779D01*
X017603Y027436D02*
X017682D01*
X017779Y027279D02*
X017850Y027350D01*
X017583Y026964D02*
X017682D01*
X017780Y026865*
X018200*
X012144Y026306D02*
X012800Y025650D01*
X011700Y026306D02*
X012144D01*
X012200Y026050D02*
X012730Y025520D01*
X011700Y026050D02*
X012200D01*
X015670Y029175D02*
Y029325D01*
Y029175D02*
X015775Y029070D01*
X015845Y029500D02*
X015850D01*
X015670Y029325D02*
X015845Y029500D01*
X017379Y026371D02*
Y026740D01*
Y026371D02*
X017525Y026225D01*
X012730Y025520D02*
X013520D01*
X012800Y025650D02*
X013466D01*
X012350Y023400D02*
X013776D01*
X011200Y022250D02*
X012350Y023400D01*
X011200Y021750D02*
Y022250D01*
Y021750D02*
X011394Y021556D01*
X011700*
X012296Y023530D02*
X013722D01*
X011070Y022304D02*
X012296Y023530D01*
X011070Y021630D02*
Y022304D01*
Y021630D02*
X011400Y021300D01*
X011700*
X013722Y023530D02*
X014550Y024358D01*
Y026304*
X014680Y024304D02*
Y026250D01*
X013776Y023400D02*
X014680Y024304D01*
X016330Y027170D02*
X016536Y026964D01*
X016997*
X016384Y027300D02*
X016563Y027121D01*
X016997*
X016589Y027279D02*
X016997D01*
X016615Y027436D02*
X016997D01*
X016452Y027600D02*
X016615Y027436D01*
X016398Y027470D02*
X016589Y027279D01*
X017064Y025836D02*
Y026740D01*
Y025836D02*
X018278Y024622D01*
X021228*
X017221Y025929D02*
Y026740D01*
Y025929D02*
X018332Y024818D01*
X021228*
X036750Y025800D02*
X037050D01*
X036650Y025900D02*
X036750Y025800D01*
X036706Y025544D02*
X037050D01*
X036520Y025730D02*
X036706Y025544D01*
X036520Y025730D02*
Y027670D01*
X036650Y027500D02*
X036700Y027550D01*
X036650Y025900D02*
Y027500D01*
X036520Y027670D02*
X036650Y027800D01*
X036900*
G54D50*
X020502Y027694D02*
X020700Y027495D01*
X019800Y027694D02*
X020502D01*
X019307Y027026D02*
Y029205D01*
X018812Y027520D02*
X019307Y027026D01*
X019426Y026906*
X018185Y027520D02*
X018812D01*
X020250Y026906D02*
X020659D01*
G54D51*
X018605Y016600D02*
X019100D01*
X019215Y016715*
Y017750*
X019885Y016715D02*
Y017750D01*
Y016715D02*
X020000Y016600D01*
X020495*
X026335Y014700D02*
Y016085D01*
X026550Y016300*
X026935*
X025045D02*
X025450D01*
X025665Y016085*
Y014700D02*
Y016085D01*
X026335Y014700D02*
X027500D01*
X027550Y014650*
X024550Y015800D02*
X025045D01*
X024250Y015500D02*
X024550Y015800D01*
X024250Y014935D02*
Y015500D01*
X024650Y016800D02*
X025045D01*
X023650Y015800D02*
X024650Y016800D01*
X023650Y014935D02*
Y015800D01*
X024550Y012950D02*
X024900Y012600D01*
X025345*
X024250Y014265D02*
X024915Y013600D01*
X025345*
X023650Y014258D02*
X024550Y013358D01*
Y012950D02*
Y013358D01*
X023650Y014258D02*
Y014265D01*
X025665Y014285D02*
Y014700D01*
Y014285D02*
X026200Y013750D01*
Y013200D02*
Y013750D01*
X025345Y013100D02*
X026300D01*
X025100Y011900D02*
X025600D01*
G54D52*
X013850Y013445D02*
Y013950D01*
X013800Y014000D02*
X013850Y013950D01*
X013800Y014000D02*
Y014950D01*
G54D53*
X027848Y045000D03*
Y043000D03*
G54D54*
X031766Y044000D03*
G54D55*
X019307Y033855D03*
X020094D03*
X020881D03*
X021669D03*
X022456D03*
X023244D03*
X024031D03*
X024818D03*
X025606D03*
X026393D03*
X019307Y035645D03*
X020094D03*
X020881D03*
X021669D03*
X022456D03*
X023244D03*
X024031D03*
X024818D03*
X025606D03*
X026393D03*
G54D56*
X011499Y038000D03*
X012601D03*
G54D57*
X012750Y038829D03*
Y039971D03*
G54D58*
X026923Y044384D03*
Y044128D03*
Y043872D03*
Y043616D03*
X028577Y044384D03*
Y044128D03*
Y043872D03*
Y043616D03*
G54D59*
X019100Y049606D03*
X018726Y050394D03*
X019474D03*
G54D60*
X020700Y050843D03*
X021074Y049957D03*
X020326D03*
G54D61*
X014600Y039550D03*
G54D62*
X014019Y039944D03*
Y039747D03*
Y039550D03*
Y039353D03*
Y039156D03*
X015181Y039944D03*
Y039747D03*
Y039550D03*
Y039353D03*
Y039156D03*
G54D63*
X013616Y037800D03*
X015584D03*
G54D64*
X012809Y047012D03*
Y040988D03*
G54D65*
X011500Y043114D03*
Y042917D03*
Y042720D03*
Y042524D03*
Y042327D03*
Y042130D03*
Y041933D03*
Y041736D03*
Y043311D03*
Y043508D03*
Y043705D03*
Y043902D03*
Y044098D03*
Y044295D03*
Y044492D03*
Y044689D03*
Y044886D03*
Y045083D03*
Y045280D03*
Y045476D03*
Y045673D03*
Y045870D03*
Y046067D03*
Y046264D03*
G54D66*
X035000Y027650D03*
X034450Y014750D03*
X010550Y015400D03*
G54D67*
X016900Y030000D03*
X016112D03*
X015325D03*
X014537D03*
X035400Y020350D03*
X034400Y019350D03*
X035400D03*
X034400Y018350D03*
X035400D03*
X034400Y017350D03*
X035400D03*
X034400Y016350D03*
X035400D03*
X012550Y015400D03*
X011550D03*
X022150Y049900D03*
G54D68*
X017006Y031071D03*
Y028929D03*
X014250D03*
Y031071D03*
G54D69*
X037974Y030100D03*
X031950D03*
X037974Y011950D03*
X031950D03*
G54D70*
X034400Y020350D03*
X022150Y050900D03*
G54D71*
X038113Y027178D03*
Y024422D03*
X010637Y024672D03*
Y027428D03*
Y019922D03*
Y022678D03*
Y011722D03*
Y014478D03*
G54D72*
X037050Y026784D03*
Y024816D03*
X011700Y025066D03*
Y027034D03*
Y020316D03*
Y022284D03*
Y012116D03*
Y014084D03*
G54D73*
X033550Y016600D03*
X033200D03*
X032850D03*
X031350Y019950D03*
X032600Y018600D03*
X030350Y022550D03*
X029200Y018200D03*
X028500Y017250D03*
X026650Y018850D03*
X024500Y018450D03*
X022950Y020750D03*
X032550Y021900D03*
X031350Y019650D03*
X031900Y019350D03*
Y019600D03*
X017100Y021900D03*
X012750Y027650D03*
Y028750D03*
X026100Y031000D03*
X025900D03*
X026250Y030800D03*
X025750D03*
X029400Y010800D03*
X015500Y021900D03*
X014250Y022899D03*
X013150Y021250D03*
X034650Y025750D03*
X032050Y016800D03*
X032450Y017900D03*
X032350Y016200D03*
X029250D03*
X013450Y024600D03*
Y027500D03*
X013250Y027300D03*
X015250Y028450D03*
X017750Y027950D03*
X017850Y027300D03*
X017800Y027700D03*
X013050Y027100D03*
Y024200D03*
X013250Y024400D03*
X015150Y025300D03*
X025100Y020750D03*
X025800D03*
X025775Y020500D03*
X024600D03*
X026550Y020600D03*
X026350Y020950D03*
Y021866D03*
X026550Y021669D03*
X025100Y011900D03*
X025600D03*
X025350D03*
X017850Y027050D03*
X015850Y029500D03*
Y029250D03*
X020675Y021275D03*
X020500Y021550D03*
X012550Y023850D03*
X017525Y026225D03*
X011500Y012600D03*
X011900D03*
X011700D03*
X030488Y026200D03*
Y025700D03*
Y026700D03*
X031100Y024950D03*
X026350Y026350D03*
X026550Y024500D03*
X026350Y024250D03*
X026150Y023950D03*
X026100Y023650D03*
X027172Y026288D03*
X027750Y026200D03*
X023100Y029700D03*
X023400D03*
X024800Y030800D03*
Y029700D03*
X020703Y025212D03*
X024050Y030800D03*
Y029700D03*
X023250Y030800D03*
X022450Y029700D03*
Y030800D03*
X021650Y029700D03*
X020550Y027800D03*
X020400Y026750D03*
X020850Y029700D03*
X022400Y025200D03*
X023500D03*
X026550Y025050D03*
X023700Y028050D03*
X024200D03*
X024700Y024350D03*
X025000D03*
X023450Y021850D03*
X018450Y026850D03*
X019000Y026100D03*
X025250Y024350D03*
X023216Y024500D03*
X018450Y025000D03*
X016900Y025050D03*
Y024000D03*
Y023700D03*
X023000Y024300D03*
X022100Y023900D03*
X026200Y022500D03*
X022850Y021950D03*
X022900Y021650D03*
X027700Y022650D03*
X028200Y014550D03*
Y014300D03*
Y014050D03*
X027300D03*
Y014300D03*
Y014550D03*
X015450Y016400D03*
X015250Y016200D03*
X015050Y016000D03*
X015450D03*
X014350Y014500D03*
X014450Y013900D03*
X019000Y017650D03*
Y017900D03*
X020100D03*
Y017650D03*
X018150Y016100D03*
X011900Y020788D03*
X011500D03*
X011700D03*
X011500Y025538D03*
X011900D03*
X011700D03*
X037250Y026312D03*
X036850D03*
X037050D03*
X036850Y023750D03*
X036700Y027550D03*
X036900Y027800D03*
X021700Y030800D03*
X021000D03*
X027550Y018850D03*
X019050Y022550D03*
Y021050D03*
Y020050D03*
X020400Y019550D03*
X020350Y018550D03*
X021850Y022450D03*
X024000Y018050D03*
X022100Y028050D03*
X023250D03*
X026650Y027600D03*
X026900Y026950D03*
X028900Y023850D03*
X029250D03*
X030550D03*
X029150Y022150D03*
X029650D03*
X031700Y022700D03*
X032200Y023700D03*
Y023200D03*
Y023450D03*
X037950Y023750D03*
X019000Y021950D03*
X032100Y027100D03*
X031850Y025100D03*
X035000D03*
X034950Y026800D03*
X026950Y017800D03*
X028900Y016150D03*
X019600Y026900D03*
X019450Y030800D03*
X033750Y027850D03*
X034000Y028000D03*
X031100Y018950D03*
X031350D03*
X023050Y026950D03*
X022400Y019050D03*
X019150Y030800D03*
X022650Y024100D03*
X019550Y024350D03*
X011350Y018900D03*
Y019250D03*
Y018550D03*
X013500Y016800D03*
X013750D03*
X018200Y018050D03*
X017300D03*
X017850Y015500D03*
X017650D03*
X013350Y015600D03*
Y015250D03*
Y014900D03*
X022900Y038250D03*
X028750Y041850D03*
X026150Y037450D03*
Y036850D03*
X028750Y042500D03*
X027300Y043600D03*
Y044450D03*
Y044100D03*
X027450Y045250D03*
X027200D03*
X026600Y036600D03*
X019150Y051800D03*
X011100Y046050D03*
Y045150D03*
Y044200D03*
Y043100D03*
Y042750D03*
X011400Y041550D03*
X011950Y036950D03*
X013050Y038150D03*
Y037850D03*
X012500Y039150D03*
X012050Y039250D03*
X017500Y042250D03*
Y043000D03*
Y043750D03*
Y044500D03*
Y045250D03*
X024000Y034500D03*
X022450D03*
X021650D03*
X019300Y035000D03*
Y034500D03*
X022450Y035000D03*
X023250D03*
X024000D03*
X023250Y034500D03*
X021650Y035000D03*
X019300Y050650D03*
X014403Y039747D03*
Y039353D03*
X015900Y039150D03*
X016150Y038350D03*
X016200Y040750D03*
X013350Y039050D03*
X013000Y039150D03*
X013650Y040100D03*
X019800Y051800D03*
X014797Y039747D03*
Y039353D03*
X017200Y047050D03*
X016050D03*
X031766Y044000D03*
X031250D03*
X030750D03*
X030250D03*
X032250D03*
X032750D03*
X033250D03*
Y043500D03*
Y043000D03*
Y042500D03*
X032750D03*
Y043000D03*
Y043500D03*
X032250D03*
X031750D03*
X031250D03*
X030750D03*
X030250D03*
Y043000D03*
X030750D03*
X031250D03*
X031750D03*
X032250D03*
Y042500D03*
X031750D03*
X031250D03*
X030750D03*
X030250D03*
Y044500D03*
Y045000D03*
Y045500D03*
X030750D03*
X031250D03*
X031750D03*
X032250D03*
X032750D03*
X033250D03*
Y045000D03*
Y044500D03*
X032750D03*
X032250D03*
X031750D03*
X031250D03*
X030750D03*
Y045000D03*
X031250D03*
X031750D03*
X032250D03*
X032750D03*
G54D74*
X033667Y026633D03*
X033233D03*
X033667Y027067D03*
X033233D03*
X031017Y017733D03*
X030583D03*
X031017Y018167D03*
X030583D03*
X016550Y010800D03*
G54D75*
X028721Y050641D03*
X032279D03*
Y037359D03*
X031619Y039822D03*
X025639Y048861D03*
X023859Y045779D03*
Y042221D03*
X026322Y042881D03*
Y045119D03*
X027442Y047058D03*
X029381Y048178D03*
X031619D03*
X033558Y047058D03*
X035361Y048861D03*
Y039139D03*
X033558Y040942D03*
X034678Y042881D03*
Y045119D03*
X037141Y045779D03*
Y042221D03*
G54D76*
X030500Y039250D03*
X026540Y040040D03*
X026386Y041625D03*
X025091Y042551D03*
X025750Y044000D03*
X030500Y037550D03*
X031949Y038591D03*
X032875Y039886D03*
X033725Y038414D03*
X034460Y040040D03*
X034614Y041625D03*
X036086Y040775D03*
X035909Y042551D03*
X024914Y040775D03*
X024050Y044000D03*
X025091Y045449D03*
X024914Y047225D03*
X026386Y046375D03*
X026540Y047960D03*
X027275Y049586D03*
X028125Y048114D03*
X029051Y049409D03*
X030500Y050450D03*
Y048750D03*
X031949Y049409D03*
X032875Y048114D03*
X033725Y049586D03*
X034460Y047960D03*
X034614Y046375D03*
X036086Y047225D03*
X035909Y045449D03*
X036950Y044000D03*
X035250D03*
M02*