%FSDAX24Y24*%
%MOIN*%
%SFA1B1*%

%IPPOS*%
%ADD42C,0.010000*%
%ADD127R,0.094600X0.094600*%
%ADD128R,0.094600X0.094600*%
%ADD129R,0.039400X0.043400*%
%ADD130R,0.027600X0.027600*%
%ADD131R,0.027600X0.019700*%
%ADD132R,0.039400X0.027600*%
%ADD133C,0.059000*%
%ADD134R,0.043400X0.039400*%
%ADD135O,0.057200X0.027600*%
%ADD136R,0.043400X0.043400*%
%ADD137R,0.043400X0.043400*%
%ADD138R,0.021700X0.059100*%
%ADD139R,0.044200X0.089000*%
%ADD140R,0.113800X0.033100*%
%ADD141R,0.102400X0.076400*%
%ADD142R,0.026600X0.012800*%
%ADD143R,0.012800X0.026600*%
%ADD144R,0.099500X0.099500*%
%ADD145O,0.090600X0.027600*%
%ADD146R,0.141800X0.082700*%
%ADD147O,0.027600X0.090600*%
%ADD148O,0.015800X0.074900*%
%ADD149O,0.074900X0.015800*%
%ADD150R,0.027600X0.043400*%
%ADD151R,0.082700X0.141800*%
%ADD152R,0.155600X0.220500*%
%ADD153R,0.010900X0.024200*%
%ADD154R,0.024200X0.010900*%
%ADD155R,0.028100X0.010900*%
%ADD156R,0.076400X0.102400*%
%ADD157R,0.057200X0.019700*%
%ADD158R,0.137900X0.067000*%
%ADD159R,0.037400X0.041400*%
%ADD160R,0.153600X0.039400*%
%ADD161R,0.332700X0.399600*%
%ADD162R,0.041400X0.037400*%
%ADD163R,0.042200X0.121100*%
%ADD164R,0.080700X0.049200*%
%ADD165R,0.108300X0.053200*%
%ADD166O,0.068900X0.019700*%
%ADD167R,0.033500X0.037400*%
%ADD168R,0.025600X0.047300*%
%ADD169R,0.067000X0.096500*%
%ADD170R,0.035500X0.013000*%
%ADD171R,0.041400X0.080700*%
%ADD172R,0.088600X0.072900*%
%ADD173R,0.051200X0.013800*%
%ADD174C,0.008000*%
%ADD175R,0.063100X0.063100*%
%ADD176C,0.063100*%
%ADD177C,0.102400*%
%ADD178C,0.114200*%
%ADD179R,0.063100X0.063100*%
%ADD180C,0.004000*%
%ADD181C,0.067000*%
%ADD182C,0.051200*%
%ADD183C,0.031000*%
%ADD184C,0.002000*%
%ADD185R,0.061100X0.061100*%
%ADD186C,0.061100*%
%ADD187C,0.077000*%
%ADD188C,0.152000*%
%LNarray-1*%
%LPD*%
G36*
X019694Y013182D02*
X019696D01*
X019698*
X019701*
X019704Y013181*
X019710Y013180*
X019716Y013178*
X019719Y013177*
X019722Y013176*
X019725Y013174*
X019728Y013172*
X019729Y013171*
X019730Y013170*
X019731Y013169*
X019733Y013168*
X019734Y013166*
X019736Y013165*
X019737Y013162*
X019739Y013160*
X019741Y013158*
X019742Y013155*
X019744Y013152*
X019745Y013149*
X019747Y013145*
X019748Y013142*
X019714Y013135*
Y013136*
Y013137*
X019713Y013139*
Y013141*
X019711Y013143*
X019710Y013146*
X019708Y013148*
X019706Y013150*
Y013151*
X019705*
X019704Y013152*
X019702Y013153*
X019700Y013154*
X019697Y013155*
X019694*
X019691*
X019689*
X019688*
X019686*
X019683Y013154*
X019680Y013153*
X019677Y013152*
X019673Y013149*
X019672Y013148*
X019670Y013147*
Y013146*
X019669Y013145*
Y013144*
X019668Y013143*
X019667Y013141*
Y013140*
X019666Y013138*
X019665Y013135*
Y013133*
X019664Y013130*
Y013127*
X019663Y013124*
Y013121*
Y013117*
Y013116*
Y013115*
Y013113*
Y013111*
Y013109*
Y013107*
X019664Y013104*
X019665Y013099*
X019666Y013093*
X019667Y013091*
X019668Y013088*
X019669Y013086*
X019670Y013084*
X019671*
X019672Y013083*
X019674Y013081*
X019676Y013080*
X019679Y013078*
X019682Y013076*
X019687Y013075*
X019689*
X019691*
X019693*
X019695*
X019697*
X019699Y013076*
X019702Y013077*
X019705Y013078*
X019707Y013080*
X019708Y013081*
X019709Y013083*
X019711Y013085*
X019712Y013087*
X019714Y013091*
X019715Y013095*
X019716Y013100*
X019750Y013094*
Y013093*
X019749Y013092*
Y013090*
X019748Y013088*
X019747Y013086*
X019746Y013083*
X019745Y013081*
X019742Y013075*
X019741Y013072*
X019739Y013069*
X019737Y013066*
X019735Y013064*
X019732Y013061*
X019729Y013059*
Y013058*
X019728*
X019727Y013057*
X019725Y013056*
X019723Y013055*
X019721Y013054*
X019719Y013053*
X019716Y013052*
X019713Y013051*
X019710Y013050*
X019707Y013049*
X019703Y013048*
X019699*
X019694Y013047*
X019690*
X019689*
X019687*
X019685*
X019683Y013048*
X019680*
X019677Y013049*
X019674*
X019670Y013050*
X019666Y013051*
X019663Y013053*
X019659Y013055*
X019655Y013057*
X019651Y013059*
X019648Y013062*
X019644Y013065*
Y013066*
X019643Y013067*
X019642Y013068*
X019641Y013070*
X019639Y013072*
X019638Y013075*
X019636Y013078*
X019635Y013081*
X019633Y013085*
X019632Y013089*
X019630Y013093*
X019629Y013098*
Y013103*
X019628Y013109*
Y013114*
Y013115*
Y013116*
Y013117*
Y013120*
Y013122*
X019629Y013126*
Y013129*
X019630Y013133*
X019631Y013137*
X019632Y013141*
X019633Y013145*
X019635Y013149*
X019637Y013153*
X019639Y013157*
X019641Y013161*
X019644Y013164*
X019645Y013165*
X019646Y013166*
X019648Y013167*
X019649Y013169*
X019651Y013170*
X019654Y013172*
X019657Y013173*
X019660Y013175*
X019663Y013177*
X019667Y013178*
X019671Y013180*
X019675Y013181*
X019680Y013182*
X019685*
X019690*
X019692*
X019694*
G37*
G36*
X021087D02*
X021089D01*
X021092*
X021094*
X021097Y013181*
X021104Y013180*
X021110Y013179*
X021113Y013178*
X021116Y013177*
X021119Y013175*
X021122Y013174*
Y013173*
X021123*
X021124Y013172*
X021125Y013171*
X021126Y013170*
X021129Y013167*
X021132Y013164*
X021135Y013159*
X021138Y013154*
X021140Y013148*
X021108Y013142*
Y013143*
X021107*
Y013145*
X021106Y013146*
X021105Y013148*
X021103Y013150*
X021102Y013152*
X021100Y013153*
X021099Y013154*
X021097Y013155*
X021095Y013156*
X021093*
X021090Y013157*
X021087*
X021083Y013158*
X021081*
X021078Y013157*
X021075*
X021072*
X021069Y013156*
X021066Y013155*
X021064Y013154*
X021063Y013153*
X021062Y013152*
X021061Y013150*
X021060Y013149*
Y013147*
Y013146*
Y013145*
X021061Y013144*
Y013143*
X021062Y013142*
X021063Y013141*
X021064Y013140*
X021065*
X021066Y013139*
X021068*
X021069Y013138*
X021071Y013137*
X021073*
X021076Y013136*
X021079Y013135*
X021082Y013134*
X021086Y013133*
X021090Y013132*
X021095Y013131*
X021096*
X021098Y013130*
X021100*
X021102Y013129*
X021104*
X021107Y013128*
X021110Y013127*
X021116Y013125*
X021123Y013122*
X021126Y013120*
X021129Y013119*
X021131Y013117*
X021133Y013116*
X021134Y013115*
X021135Y013114*
X021136Y013113*
X021137Y013112*
X021139Y013109*
X021141Y013106*
X021143Y013101*
X021144Y013096*
Y013093*
Y013090*
Y013089*
Y013088*
Y013087*
Y013086*
X021143Y013084*
Y013082*
X021142Y013080*
Y013077*
X021141Y013075*
X021139Y013072*
X021138Y013070*
X021136Y013067*
X021134Y013065*
X021132Y013062*
X021129Y013060*
Y013059*
X021128*
X021126Y013058*
X021125Y013057*
X021123Y013056*
X021121Y013055*
X021118Y013053*
X021115Y013052*
X021112Y013051*
X021108Y013050*
X021104Y013049*
X021100Y013048*
X021095*
X021091Y013047*
X021085*
X021083*
X021081*
X021079*
X021076Y013048*
X021073*
X021070*
X021063Y013050*
X021056Y013051*
X021053Y013053*
X021049Y013054*
X021046Y013056*
X021043Y013058*
X021042Y013059*
X021041Y013060*
X021039Y013061*
X021038Y013062*
X021037Y013064*
X021035Y013065*
X021033Y013067*
X021032Y013069*
X021030Y013072*
X021028Y013074*
X021026Y013080*
X021024Y013083*
X021023Y013087*
X021058Y013092*
Y013091*
Y013090*
X021059Y013088*
X021060Y013086*
X021061Y013084*
X021062Y013081*
X021064Y013079*
X021067Y013077*
Y013076*
X021068*
X021069Y013075*
X021071Y013074*
X021074Y013073*
X021077Y013072*
X021081*
X021085*
X021087*
X021090*
X021093*
X021096Y013073*
X021099Y013074*
X021102Y013075*
X021105Y013076*
Y013077*
X021106*
X021107Y013078*
X021108Y013079*
Y013080*
X021109Y013082*
Y013084*
X021110Y013086*
X021109Y013087*
Y013088*
Y013090*
X021108Y013091*
X021107Y013092*
X021106Y013093*
X021105Y013094*
X021103*
X021101Y013095*
X021099Y013096*
X021096Y013097*
X021095*
X021094*
X021092Y013098*
X021089*
X021086Y013099*
X021082Y013100*
X021078Y013101*
X021074Y013102*
X021065Y013105*
X021060Y013106*
X021056Y013108*
X021052Y013109*
X021049Y013111*
X021046Y013112*
X021043Y013113*
Y013114*
X021042*
X021041Y013115*
X021040Y013116*
X021038Y013118*
X021037Y013119*
X021036Y013121*
X021034Y013123*
X021033Y013125*
X021032Y013127*
X021030Y013130*
Y013133*
X021029Y013136*
X021028Y013139*
Y013143*
Y013144*
Y013145*
Y013147*
X021029Y013149*
Y013150*
X021030Y013152*
X021031Y013157*
X021032Y013159*
X021034Y013161*
X021035Y013164*
X021037Y013166*
X021039Y013169*
X021041Y013171*
X021042*
X021043Y013172*
X021044Y013173*
X021045*
X021047Y013174*
X021049Y013176*
X021051Y013177*
X021054Y013178*
X021057Y013179*
X021061Y013180*
X021064Y013181*
X021068*
X021073Y013182*
X021077*
X021082*
X021085*
X021087*
G37*
G36*
X019531Y013050D02*
X019499D01*
Y013069*
X019498*
Y013068*
X019496Y013066*
X019494Y013063*
X019491Y013061*
X019488Y013058*
X019484Y013055*
X019480Y013053*
X019479*
Y013052*
X019478*
X019477*
X019476Y013051*
X019473Y013050*
X019469Y013049*
X019465Y013048*
X019461Y013047*
X019456*
X019454*
X019452*
X019451*
X019448Y013048*
X019444*
X019440Y013049*
X019436Y013051*
X019432Y013053*
X019431Y013054*
X019429Y013055*
X019427Y013057*
X019424Y013059*
X019422Y013062*
X019419Y013065*
X019417Y013069*
Y013070*
Y013071*
X019416Y013072*
Y013073*
Y013074*
X019415Y013076*
Y013078*
X019414Y013080*
Y013083*
Y013085*
X019413Y013088*
Y013091*
Y013097*
Y013180*
X019447*
Y013120*
Y013119*
Y013117*
Y013116*
Y013113*
Y013111*
Y013108*
Y013106*
Y013100*
X019448Y013097*
Y013094*
Y013092*
Y013090*
Y013088*
X019449Y013086*
Y013085*
X019450Y013084*
Y013083*
X019451Y013081*
X019453Y013080*
X019454Y013078*
X019456Y013077*
X019457Y013076*
X019458*
X019459Y013075*
X019461Y013074*
X019463*
X019466Y013073*
X019469*
X019470*
X019472*
X019474Y013074*
X019476*
X019479Y013075*
X019482Y013076*
X019484Y013078*
X019485*
Y013079*
X019487Y013080*
X019488Y013081*
X019490Y013083*
X019491Y013085*
X019493Y013087*
X019494Y013090*
Y013091*
Y013092*
Y013093*
X019495Y013094*
Y013095*
Y013097*
Y013099*
X019496Y013102*
Y013105*
Y013108*
Y013111*
Y013115*
Y013120*
Y013125*
Y013180*
X019531*
Y013050*
G37*
G36*
X019193Y013055D02*
X019185Y013032D01*
Y013031*
X019184*
X019183Y013029*
X019182Y013026*
X019181Y013023*
X019180Y013020*
X019178Y013018*
X019176Y013015*
Y013014*
X019175Y013013*
X019174Y013012*
X019172Y013010*
X019171Y013009*
X019169Y013007*
X019167Y013005*
X019166*
X019165Y013004*
X019163Y013003*
X019161Y013002*
X019159Y013001*
X019157Y013000*
X019154*
X019153Y012999*
X019151*
X019149*
X019146Y012998*
X019143*
X019140*
X019137Y012997*
X019135*
X019133Y012998*
X019130*
X019127*
X019124*
X019121Y012999*
X019117Y013000*
X019114Y013026*
X019115*
X019116*
X019117*
X019119*
X019121Y013025*
X019124*
X019129*
X019130*
X019131*
X019133*
X019135Y013026*
X019138Y013027*
X019141Y013028*
X019144Y013030*
X019146Y013032*
X019147*
Y013033*
X019148Y013035*
X019150Y013037*
X019151Y013039*
X019153Y013042*
X019154Y013046*
X019155Y013050*
X019106Y013180*
X019142*
X019173Y013087*
X019203Y013180*
X019239*
X019193Y013055*
G37*
G36*
X020628Y013050D02*
X020596D01*
Y013069*
X020595*
Y013068*
X020594Y013067*
X020592Y013065*
X020590Y013063*
X020588Y013060*
X020584Y013057*
X020581Y013055*
X020577Y013052*
X020576*
X020575*
X020573Y013051*
X020570Y013050*
X020567Y013049*
X020563Y013048*
X020559Y013047*
X020555*
X020554*
X020553*
X020551*
X020550Y013048*
X020547*
X020545Y013049*
X020542*
X020539Y013050*
X020536Y013051*
X020533Y013053*
X020530Y013055*
X020526Y013057*
X020523Y013059*
X020520Y013062*
X020517Y013065*
X020516Y013066*
X020515Y013067*
X020514Y013068*
X020513Y013070*
X020512Y013072*
X020511Y013075*
X020509Y013078*
X020508Y013081*
X020506Y013085*
X020505Y013089*
X020504Y013094*
X020503Y013099*
X020502Y013104*
X020501Y013109*
Y013115*
Y013116*
Y013118*
Y013120*
X020502Y013123*
Y013126*
Y013130*
X020503Y013134*
X020504Y013138*
X020505Y013142*
X020506Y013146*
X020508Y013150*
X020509Y013154*
X020512Y013158*
X020514Y013162*
X020516Y013165*
X020517*
Y013166*
X020518Y013167*
X020519Y013168*
X020521Y013169*
X020523Y013171*
X020525Y013172*
X020527Y013174*
X020530Y013175*
X020533Y013177*
X020536Y013178*
X020540Y013180*
X020543Y013181*
X020547Y013182*
X020551*
X020556*
X020557*
X020558*
X020559*
X020561*
X020563Y013181*
X020566*
X020569Y013180*
X020571Y013179*
X020574Y013178*
X020578Y013176*
X020581Y013175*
X020584Y013173*
X020587Y013170*
X020590Y013167*
X020593Y013164*
Y013229*
X020628*
Y013050*
G37*
G36*
X021000Y013197D02*
X020966D01*
Y013229*
X021000*
Y013197*
G37*
G36*
X019991Y013182D02*
X019994D01*
X019997Y013181*
X020000*
X020004Y013180*
X020007Y013178*
X020008*
X020009Y013177*
X020011*
X020013Y013175*
X020015Y013174*
X020017Y013172*
X020020Y013170*
X020022Y013168*
Y013167*
X020023Y013165*
X020024Y013163*
X020025Y013161*
X020027Y013159*
X020028Y013156*
Y013153*
X020029Y013152*
Y013150*
Y013148*
X020030Y013144*
Y013140*
Y013136*
Y013130*
Y013050*
X019996*
Y013116*
Y013117*
Y013118*
Y013119*
Y013121*
Y013123*
Y013127*
X019995Y013132*
Y013136*
Y013138*
Y013140*
X019994Y013142*
Y013143*
Y013144*
X019993Y013145*
X019992Y013147*
X019991Y013148*
X019990Y013149*
X019989Y013151*
X019987Y013152*
Y013153*
X019986*
X019985Y013154*
X019983*
X019982Y013155*
X019980*
X019977Y013156*
X019975*
X019973*
X019972*
X019970Y013155*
X019967*
X019964Y013154*
X019962Y013153*
X019959Y013151*
X019958Y013150*
X019956Y013149*
X019955Y013148*
X019954Y013146*
X019952Y013144*
X019951Y013141*
X019949Y013138*
Y013137*
Y013136*
Y013135*
X019948Y013133*
Y013131*
Y013130*
Y013127*
X019947Y013125*
Y013122*
Y013119*
Y013116*
Y013112*
Y013109*
Y013050*
X019913*
Y013180*
X019944*
Y013160*
X019945Y013161*
X019946Y013162*
X019947Y013164*
X019949Y013166*
X019951Y013167*
X019953Y013169*
X019956Y013171*
X019959Y013173*
X019962Y013175*
X019965Y013177*
X019969Y013179*
X019973Y013180*
X019978Y013181*
X019982Y013182*
X019987*
X019989*
X019991*
G37*
G36*
X020197D02*
X020198D01*
X020201*
X020205Y013181*
X020209Y013180*
X020213Y013178*
X020217Y013176*
X020206Y013146*
X020205Y013147*
X020203Y013148*
X020201Y013149*
X020198Y013150*
X020196Y013151*
X020193*
X020190Y013152*
X020189*
X020187Y013151*
X020186*
X020184*
X020182Y013150*
X020180Y013149*
X020178Y013148*
X020177Y013147*
X020176Y013146*
X020175Y013145*
X020174Y013143*
X020172Y013140*
X020171Y013137*
X020170Y013133*
Y013132*
Y013131*
X020169Y013130*
Y013128*
Y013126*
Y013124*
X020168Y013121*
Y013118*
Y013115*
Y013111*
X020167Y013106*
Y013101*
Y013096*
Y013090*
Y013050*
X020133*
Y013180*
X020165*
Y013161*
Y013162*
X020166*
Y013163*
X020168Y013165*
X020170Y013168*
X020172Y013171*
X020174Y013174*
X020177Y013176*
X020178Y013177*
X020179Y013178*
X020180*
X020181Y013179*
X020182Y013180*
X020184*
X020186Y013181*
X020188Y013182*
X020191*
X020194*
X020196*
X020197*
G37*
G36*
X021000Y013050D02*
X020966D01*
Y013180*
X021000*
Y013050*
G37*
G36*
X020284Y013182D02*
X020286D01*
X020288*
X020291Y013181*
X020294*
X020297Y013180*
X020301Y013179*
X020305Y013178*
X020308Y013176*
X020312Y013174*
X020316Y013172*
X020319Y013170*
X020323Y013167*
X020326Y013163*
X020327Y013162*
X020328Y013161*
X020329Y013160*
X020330Y013158*
X020331Y013155*
X020333Y013152*
X020335Y013149*
X020336Y013145*
X020338Y013141*
X020339Y013136*
X020340Y013131*
X020341Y013125*
X020342Y013119*
Y013112*
Y013105*
X020257*
Y013104*
Y013103*
Y013102*
Y013101*
Y013099*
X020258Y013096*
X020259Y013092*
X020260Y013088*
X020262Y013084*
X020265Y013081*
X020266Y013080*
X020268Y013078*
X020270Y013077*
X020273Y013075*
X020276Y013074*
X020280Y013073*
X020285*
X020286*
X020287*
X020289*
X020291Y013074*
X020294*
X020296Y013076*
X020298Y013077*
X020299Y013078*
X020300Y013079*
X020301Y013080*
X020303Y013082*
X020304Y013085*
X020305Y013088*
X020307Y013091*
X020341Y013085*
X020340*
Y013084*
X020339Y013082*
Y013081*
X020338Y013079*
X020335Y013075*
X020332Y013070*
X020329Y013065*
X020325Y013061*
X020322Y013059*
X020320Y013057*
X020319*
Y013056*
X020318*
X020317Y013055*
X020316*
X020314Y013054*
X020312Y013053*
X020310Y013052*
X020308Y013051*
X020305Y013050*
X020302Y013049*
X020299*
X020295Y013048*
X020292Y013047*
X020288*
X020284*
X020283*
X020281*
X020279*
X020276Y013048*
X020273*
X020269Y013049*
X020265Y013050*
X020261Y013051*
X020257Y013052*
X020253Y013054*
X020249Y013056*
X020245Y013059*
X020241Y013062*
X020237Y013065*
X020234Y013069*
Y013070*
X020233Y013071*
X020232Y013072*
X020231Y013074*
X020230Y013076*
X020229Y013078*
X020228Y013081*
X020227Y013084*
X020226Y013088*
X020225Y013091*
X020224Y013095*
X020223Y013100*
X020222Y013104*
Y013109*
Y013114*
Y013115*
Y013117*
Y013119*
Y013122*
Y013125*
X020223Y013128*
X020224Y013132*
X020225Y013136*
X020226Y013140*
X020227Y013144*
X020229Y013149*
X020231Y013153*
X020233Y013157*
X020235Y013160*
X020238Y013164*
X020239Y013165*
X020240Y013166*
X020241Y013167*
X020243Y013168*
X020245Y013170*
X020247Y013171*
X020250Y013173*
X020253Y013175*
X020256Y013177*
X020260Y013178*
X020263Y013180*
X020267Y013181*
X020272Y013182*
X020276*
X020281*
X020282*
X020284*
G37*
G36*
X020766Y013180D02*
X020790D01*
Y013152*
X020766*
Y013100*
Y013099*
Y013097*
Y013096*
Y013095*
Y013092*
X020767Y013088*
Y013085*
Y013084*
Y013083*
Y013082*
Y013081*
X020768Y013080*
X020769Y013078*
X020770Y013077*
X020772Y013076*
X020773*
X020776Y013075*
X020777*
X020778Y013076*
X020779*
X020781*
X020784Y013077*
X020787Y013078*
X020790Y013079*
X020793Y013052*
X020792*
X020791*
Y013051*
X020789*
X020788Y013050*
X020787*
X020785*
X020781Y013049*
X020776Y013048*
X020771Y013047*
X020766*
X020764*
X020762*
X020760*
X020757Y013048*
X020755*
X020752Y013049*
X020749Y013050*
X020748Y013051*
X020746*
X020745Y013052*
X020743Y013053*
X020741Y013055*
X020740Y013056*
X020738Y013058*
X020737Y013059*
Y013060*
X020736Y013062*
X020735Y013064*
Y013066*
X020734Y013069*
X020733Y013071*
Y013072*
Y013073*
Y013074*
Y013075*
Y013077*
Y013078*
Y013080*
X020732Y013082*
Y013084*
Y013087*
Y013089*
Y013092*
Y013096*
Y013152*
X020716*
Y013180*
X020732*
Y013205*
X020766Y013225*
Y013180*
G37*
G36*
X021208Y013060D02*
D01*
Y013059*
Y013058*
Y013057*
Y013056*
X021207Y013055*
Y013051*
Y013048*
Y013044*
X021206Y013040*
X021205Y013036*
X021204Y013035*
Y013033*
X021203Y013031*
X021201Y013029*
X021200Y013026*
X021198Y013024*
X021195Y013021*
X021194Y013020*
X021192Y013019*
X021190Y013017*
X021188Y013015*
X021185Y013014*
X021181Y013012*
X021177Y013010*
X021171Y013024*
Y013025*
X021172*
X021174Y013026*
X021176Y013027*
X021179Y013028*
X021181Y013030*
X021183Y013032*
X021185Y013034*
X021186Y013035*
X021187Y013036*
Y013038*
X021188Y013040*
X021189Y013043*
Y013046*
X021190Y013050*
X021173*
Y013084*
X021208*
Y013060*
G37*
G36*
X019322Y013182D02*
X019324D01*
X019327*
X019330Y013181*
X019333*
X019337Y013180*
X019340Y013179*
X019344Y013178*
X019348Y013176*
X019352Y013174*
X019356Y013172*
X019360Y013170*
X019364Y013167*
X019368Y013163*
Y013162*
X019369Y013161*
X019371Y013160*
X019372Y013158*
X019374Y013156*
X019375Y013153*
X019377Y013150*
X019379Y013147*
X019381Y013143*
X019382Y013139*
X019384Y013135*
X019385Y013130*
X019386Y013125*
Y013120*
X019387Y013115*
Y013114*
X019386Y013112*
Y013110*
Y013108*
Y013105*
X019385Y013101*
X019384Y013098*
X019383Y013094*
X019382Y013090*
X019380Y013086*
X019379Y013082*
X019376Y013078*
X019374Y013074*
X019371Y013070*
X019367Y013066*
X019365Y013065*
X019364Y013063*
X019362Y013062*
X019360Y013060*
X019357Y013059*
X019355Y013057*
X019351Y013055*
X019348Y013053*
X019344Y013052*
X019339Y013050*
X019335Y013049*
X019330Y013048*
X019325Y013047*
X019320*
X019318*
X019317*
X019315*
X019313*
X019311Y013048*
X019309*
X019304Y013049*
X019298Y013050*
X019292Y013052*
X019286Y013055*
X019285*
X019284Y013056*
X019283Y013057*
X019282*
X019280Y013058*
X019277Y013061*
X019273Y013064*
X019269Y013068*
X019265Y013073*
X019261Y013078*
Y013079*
Y013080*
X019260Y013081*
X019259Y013083*
Y013085*
X019258Y013087*
X019257Y013089*
X019256Y013092*
Y013095*
X019255Y013098*
X019254Y013101*
Y013105*
X019253Y013109*
Y013116*
Y013117*
Y013118*
Y013119*
Y013121*
Y013123*
X019254Y013125*
Y013127*
X019255Y013132*
X019257Y013138*
X019259Y013143*
X019261Y013149*
X019262*
Y013150*
Y013151*
X019263Y013152*
X019264Y013153*
X019265Y013155*
X019268Y013158*
X019271Y013162*
X019275Y013166*
X019280Y013170*
X019285Y013174*
X019286*
X019287Y013175*
X019288*
X019289Y013176*
X019291Y013177*
X019293*
X019295Y013178*
X019298Y013179*
X019300Y013180*
X019306Y013181*
X019313Y013182*
X019316*
X019321*
X019322*
G37*
G36*
X020426D02*
X020429D01*
X020431*
X020434*
X020439Y013181*
X020445Y013180*
X020450Y013179*
X020453Y013178*
X020455Y013177*
X020456Y013176*
X020457*
X020459Y013175*
X020461Y013173*
X020464Y013171*
X020466Y013169*
X020469Y013166*
X020471Y013163*
Y013162*
Y013161*
X020472Y013160*
Y013159*
X020473Y013158*
Y013156*
Y013154*
X020474Y013152*
Y013149*
Y013147*
X020475Y013144*
Y013140*
Y013136*
Y013132*
Y013092*
Y013091*
Y013090*
Y013088*
Y013087*
Y013083*
Y013079*
Y013074*
X020476Y013070*
Y013069*
Y013067*
X020477Y013066*
Y013064*
X020478Y013062*
X020479Y013059*
X020480Y013057*
X020481Y013053*
X020483Y013050*
X020449*
Y013051*
X020448*
Y013053*
X020447Y013054*
Y013056*
X020446Y013058*
X020445Y013060*
Y013062*
Y013063*
X020444Y013064*
X020443Y013063*
X020441Y013061*
X020439Y013059*
X020436Y013057*
X020433Y013055*
X020429Y013053*
X020425Y013051*
X020424*
X020422Y013050*
X020419Y013049*
X020416Y013048*
X020412*
X020408Y013047*
X020404*
X020402*
X020401*
X020399*
X020397Y013048*
X020395*
X020393*
X020388Y013050*
X020382Y013052*
X020380Y013053*
X020377Y013054*
X020375Y013056*
X020373Y013058*
X020372*
Y013059*
X020371Y013060*
X020370Y013061*
X020369Y013062*
X020368Y013064*
X020367Y013065*
X020365Y013069*
X020363Y013074*
X020362Y013076*
Y013079*
X020361Y013082*
Y013085*
Y013086*
Y013087*
Y013089*
X020362Y013092*
Y013095*
X020363Y013098*
X020365Y013101*
X020366Y013105*
X020367*
Y013106*
X020369Y013108*
X020370Y013109*
X020372Y013111*
X020375Y013114*
X020378Y013116*
X020381Y013118*
X020382*
X020383*
X020384Y013119*
X020385*
X020386Y013120*
X020388*
X020390Y013121*
X020392Y013122*
X020394*
X020396Y013123*
X020399Y013124*
X020402*
X020408Y013126*
X020409*
X020411*
X020412*
X020414Y013127*
X020416*
X020419Y013128*
X020421*
X020427Y013130*
X020433Y013131*
X020435Y013132*
X020437Y013133*
X020440*
X020442Y013134*
Y013138*
Y013139*
X020441Y013141*
Y013143*
X020440Y013145*
X020439Y013148*
X020438Y013150*
X020437Y013152*
X020436*
X020434Y013153*
X020433Y013154*
X020430Y013155*
X020427*
X020423Y013156*
X020421*
X020417*
X020415*
X020413*
X020411Y013155*
X020408Y013154*
X020406Y013153*
X020404Y013152*
X020403*
X020402Y013151*
X020401Y013149*
X020400Y013148*
X020398Y013145*
X020397Y013143*
X020396Y013140*
X020365Y013145*
Y013146*
Y013147*
X020366Y013148*
Y013150*
X020367Y013152*
X020369Y013156*
X020371Y013160*
X020375Y013165*
X020378Y013169*
X020380Y013171*
X020383Y013173*
Y013174*
X020384*
X020385Y013175*
X020387*
X020388Y013176*
X020390Y013177*
X020392Y013178*
X020395Y013179*
X020398*
X020401Y013180*
X020404Y013181*
X020408Y013182*
X020412*
X020416*
X020425*
X020426*
G37*
G36*
X020848Y013163D02*
D01*
X020849*
Y013164*
X020851Y013166*
X020852Y013167*
X020854Y013169*
X020856Y013171*
X020859Y013173*
X020862Y013174*
X020865Y013176*
X020868Y013178*
X020871Y013179*
X020875Y013181*
X020879Y013182*
X020883*
X020887*
X020889*
X020891*
X020894*
X020898Y013181*
X020901Y013180*
X020905Y013179*
X020909Y013178*
X020910Y013177*
X020912Y013176*
X020914Y013175*
X020916Y013173*
X020919Y013171*
X020921Y013169*
X020923Y013167*
Y013166*
X020924Y013165*
Y013164*
X020926Y013162*
X020927Y013160*
X020928Y013157*
X020929Y013154*
X020930Y013151*
Y013150*
Y013149*
Y013148*
Y013147*
X020931Y013145*
Y013144*
Y013142*
Y013140*
Y013137*
Y013135*
Y013132*
Y013129*
Y013126*
Y013050*
X020897*
Y013118*
Y013119*
Y013120*
Y013121*
Y013123*
Y013125*
Y013129*
Y013133*
X020896Y013138*
Y013140*
Y013141*
Y013143*
X020895Y013144*
Y013145*
X020894Y013146*
Y013147*
X020893Y013149*
X020891Y013150*
X020890Y013151*
X020888Y013153*
X020887*
X020886Y013154*
X020885*
X020883Y013155*
X020881*
X020878Y013156*
X020876*
X020874*
X020873*
X020871Y013155*
X020868*
X020866Y013154*
X020863Y013153*
X020861Y013152*
X020860*
Y013151*
X020858Y013150*
X020857Y013149*
X020855Y013147*
X020854Y013145*
X020852Y013142*
X020851Y013139*
X020850Y013138*
Y013136*
X020849Y013133*
Y013130*
X020848Y013125*
Y013120*
Y013115*
Y013050*
X020814*
Y013229*
X020848*
Y013163*
G37*
G36*
X018936Y013050D02*
X018900D01*
Y013229*
X018936*
Y013050*
G37*
G36*
X019830Y013182D02*
X019832D01*
X019835*
X019837*
X019843Y013181*
X019849Y013180*
X019854Y013179*
X019856Y013178*
X019859Y013177*
X019860Y013176*
X019862Y013175*
X019865Y013173*
X019868Y013171*
X019870Y013169*
X019873Y013166*
X019875Y013163*
Y013162*
Y013161*
X019876Y013160*
Y013159*
Y013158*
X019877Y013156*
Y013154*
X019878Y013152*
Y013149*
Y013147*
X019879Y013144*
Y013140*
Y013136*
Y013132*
Y013092*
Y013091*
Y013090*
Y013088*
Y013087*
Y013083*
Y013079*
Y013074*
X019880Y013070*
Y013069*
Y013067*
X019881Y013066*
Y013064*
X019882Y013062*
Y013059*
X019883Y013057*
X019885Y013053*
X019886Y013050*
X019853*
X019852Y013051*
Y013053*
X019851Y013054*
Y013056*
X019850Y013058*
X019849Y013060*
Y013062*
X019848Y013063*
Y013064*
X019846Y013063*
X019845Y013061*
X019842Y013059*
X019840Y013057*
X019836Y013055*
X019833Y013053*
X019829Y013051*
X019828*
X019827*
X019825Y013050*
X019823Y013049*
X019820Y013048*
X019816*
X019812Y013047*
X019808*
X019806*
X019805*
X019803*
X019801Y013048*
X019799*
X019796*
X019792Y013050*
X019786Y013052*
X019784Y013053*
X019781Y013054*
X019779Y013056*
X019776Y013058*
X019775Y013059*
Y013060*
X019774Y013061*
X019773Y013062*
X019772Y013064*
X019771Y013065*
X019769Y013069*
X019767Y013074*
X019766Y013076*
X019765Y013079*
Y013082*
Y013085*
Y013086*
Y013087*
Y013089*
X019766Y013092*
Y013095*
X019767Y013098*
X019768Y013101*
X019770Y013105*
X019771Y013106*
X019772Y013108*
X019774Y013109*
X019776Y013111*
X019779Y013114*
X019781Y013116*
X019785Y013118*
X019786*
X019787*
X019788Y013119*
X019789*
X019790Y013120*
X019792*
X019794Y013121*
X019796Y013122*
X019798*
X019800Y013123*
X019803Y013124*
X019806*
X019812Y013126*
X019813*
X019814*
X019816*
X019818Y013127*
X019820*
X019823Y013128*
X019825*
X019831Y013130*
X019836Y013131*
X019839Y013132*
X019841Y013133*
X019843*
X019845Y013134*
Y013138*
Y013139*
Y013141*
Y013143*
X019844Y013145*
X019843Y013148*
X019842Y013150*
X019840Y013152*
X019839*
X019838Y013153*
X019836Y013154*
X019834Y013155*
X019831*
X019827Y013156*
X019824*
X019820*
X019819*
X019817*
X019814Y013155*
X019812Y013154*
X019810Y013153*
X019808Y013152*
X019807*
X019806Y013151*
X019805Y013149*
X019803Y013148*
X019802Y013145*
X019801Y013143*
X019799Y013140*
X019769Y013145*
Y013146*
Y013147*
X019770Y013148*
Y013150*
X019771Y013152*
X019773Y013156*
X019775Y013160*
X019778Y013165*
X019782Y013169*
X019784Y013171*
X019787Y013173*
Y013174*
X019788*
X019789Y013175*
X019790*
X019792Y013176*
X019794Y013177*
X019796Y013178*
X019799Y013179*
X019801*
X019804Y013180*
X019808Y013181*
X019812Y013182*
X019816*
X019820*
X019828*
X019830*
G37*
G36*
X020701Y012300D02*
X020666D01*
Y012334*
X020701*
Y012300*
G37*
G36*
X020549Y012437D02*
X020540Y012346D01*
X020521*
X020512Y012437*
Y012479*
X020549*
Y012437*
G37*
G36*
X020084Y012300D02*
X020050D01*
Y012479*
X020084*
Y012300*
G37*
G36*
X020548D02*
X020513D01*
Y012334*
X020548*
Y012300*
G37*
G36*
X020389Y012481D02*
X020391D01*
X020393*
X020395*
X020399*
X020404Y012480*
X020409Y012479*
X020414Y012477*
X020410Y012453*
X020409*
X020408Y012454*
X020407*
X020405*
X020402Y012455*
X020400*
X020394*
X020393*
X020391*
X020390*
X020388*
X020386Y012454*
X020384Y012453*
X020383Y012452*
X020382Y012451*
Y012450*
X020381Y012449*
Y012447*
X020380Y012445*
Y012442*
Y012438*
Y012430*
X020405*
Y012403*
X020380*
Y012300*
X020345*
Y012403*
X020326*
Y012430*
X020345*
Y012439*
Y012440*
Y012441*
Y012442*
X020346Y012443*
Y012445*
Y012448*
Y012452*
X020347Y012456*
X020348Y012460*
X020349Y012463*
Y012464*
X020350Y012465*
Y012466*
X020352Y012468*
X020354Y012470*
X020356Y012472*
X020359Y012475*
X020362Y012477*
X020363*
X020364*
X020366Y012478*
X020368Y012479*
X020372Y012480*
X020376Y012481*
X020380*
X020385Y012482*
X020388*
X020389Y012481*
G37*
G36*
X020472D02*
X020474D01*
X020476*
X020478*
X020482*
X020487Y012480*
X020492Y012479*
X020497Y012477*
X020493Y012453*
X020492Y012454*
X020490*
X020488*
X020485Y012455*
X020483*
X020477*
X020476*
X020474*
X020473*
X020471*
X020469Y012454*
X020467Y012453*
X020466Y012452*
Y012451*
X020465Y012450*
X020464Y012449*
Y012447*
X020463Y012445*
Y012442*
Y012438*
Y012430*
X020489*
Y012403*
X020463*
Y012300*
X020429*
Y012403*
X020410*
Y012430*
X020429*
Y012439*
Y012440*
Y012441*
Y012442*
Y012443*
Y012445*
Y012448*
Y012452*
X020430Y012456*
X020431Y012460*
X020432Y012463*
Y012464*
X020433Y012465*
X020434Y012466*
X020435Y012468*
X020437Y012470*
X020439Y012472*
X020442Y012475*
X020445Y012477*
X020446*
X020447*
X020449Y012478*
X020452Y012479*
X020455Y012480*
X020459Y012481*
X020463*
X020469Y012482*
X020471*
X020472Y012481*
G37*
G36*
X020701Y012395D02*
X020666D01*
Y012430*
X020701*
Y012395*
G37*
G36*
X019807Y012481D02*
X019809D01*
X019811*
X019813*
X019817*
X019822Y012480*
X019827Y012479*
X019832Y012477*
X019828Y012453*
X019827*
X019826Y012454*
X019825*
X019822*
X019820Y012455*
X019818*
X019812*
X019811*
X019809*
X019808*
X019806*
X019804Y012454*
X019802Y012453*
X019801Y012452*
X019800Y012451*
Y012450*
X019799Y012449*
Y012447*
X019798Y012445*
Y012442*
Y012438*
Y012430*
X019823*
Y012403*
X019798*
Y012300*
X019763*
Y012403*
X019744*
Y012430*
X019763*
Y012439*
Y012440*
Y012441*
Y012442*
X019764Y012443*
Y012445*
Y012448*
Y012452*
X019765Y012456*
X019766Y012460*
X019767Y012463*
Y012464*
X019768Y012465*
Y012466*
X019770Y012468*
X019772Y012470*
X019774Y012472*
X019777Y012475*
X019780Y012477*
X019781*
X019783Y012478*
X019786Y012479*
X019790Y012480*
X019794Y012481*
X019798*
X019803Y012482*
X019806*
X019807Y012481*
G37*
G36*
X020250Y012432D02*
X020252D01*
X020255*
X020257Y012431*
X020261*
X020264Y012430*
X020268Y012429*
X020272Y012428*
X020276Y012426*
X020280Y012424*
X020284Y012422*
X020288Y012420*
X020292Y012417*
X020295Y012413*
X020296*
Y012412*
X020297Y012411*
X020298Y012410*
X020300Y012408*
X020301Y012406*
X020303Y012403*
X020305Y012400*
X020306Y012397*
X020308Y012393*
X020310Y012389*
X020311Y012385*
X020312Y012380*
X020313Y012375*
X020314Y012370*
Y012365*
Y012364*
Y012362*
Y012360*
Y012358*
X020313Y012355*
Y012351*
X020312Y012348*
X020311Y012344*
X020310Y012340*
X020308Y012336*
X020306Y012332*
X020304Y012328*
X020301Y012324*
X020298Y012320*
X020295Y012316*
X020294*
X020293Y012315*
X020292Y012313*
X020290Y012312*
X020288Y012310*
X020285Y012309*
X020282Y012307*
X020279Y012305*
X020275Y012303*
X020271Y012302*
X020267Y012300*
X020263Y012299*
X020258Y012298*
X020253Y012297*
X020248*
X020246*
X020245*
X020243*
X020241*
X020239Y012298*
X020237*
X020231Y012299*
X020226Y012300*
X020220Y012302*
X020214Y012305*
X020213*
X020212Y012306*
X020211Y012307*
X020210*
X020208Y012308*
X020204Y012311*
X020200Y012314*
X020196Y012318*
X020192Y012323*
X020189Y012328*
Y012329*
X020188Y012330*
Y012331*
X020187Y012333*
X020186Y012335*
Y012337*
X020185Y012339*
X020184Y012342*
X020183Y012345*
Y012348*
X020182Y012351*
X020181Y012355*
Y012359*
Y012366*
Y012367*
Y012368*
Y012369*
Y012371*
Y012373*
Y012375*
X020182Y012377*
X020183Y012382*
X020184Y012388*
X020186Y012393*
X020189Y012399*
Y012400*
X020190Y012401*
X020191Y012402*
Y012403*
X020192Y012405*
X020195Y012408*
X020199Y012412*
X020203Y012416*
X020207Y012420*
X020213Y012424*
X020214*
Y012425*
X020215*
X020217Y012426*
X020219Y012427*
X020221*
X020223Y012428*
X020225Y012429*
X020228Y012430*
X020234Y012431*
X020240Y012432*
X020244*
X020249*
X020250*
G37*
G36*
X019436Y012330D02*
X019526D01*
Y012300*
X019400*
Y012477*
X019436*
Y012330*
G37*
G36*
X019631Y012300D02*
X019597D01*
Y012429*
X019596Y012428*
X019595Y012427*
X019594Y012426*
X019592Y012425*
X019590Y012423*
X019587Y012421*
X019585Y012419*
X019581Y012417*
X019578Y012415*
X019575Y012413*
X019571Y012411*
X019567Y012409*
X019562Y012407*
X019558Y012405*
X019553Y012403*
Y012434*
X019554*
Y012435*
X019555*
X019557Y012436*
X019558*
X019560Y012437*
X019562Y012438*
X019566Y012440*
X019571Y012443*
X019576Y012446*
X019582Y012451*
X019583*
X019584Y012452*
X019585Y012453*
X019586Y012454*
X019587Y012455*
X019589Y012457*
X019591Y012459*
X019594Y012463*
X019598Y012468*
X019601Y012473*
X019602Y012476*
X019604Y012479*
X019631*
Y012300*
G37*
G36*
X019018Y013231D02*
X019020D01*
X019021*
X019023*
X019028*
X019033Y013230*
X019038Y013229*
X019043Y013227*
X019038Y013203*
X019037Y013204*
X019036*
X019033*
X019031Y013205*
X019028*
X019023*
X019021*
X019020*
X019018*
X019017*
X019015Y013204*
X019013Y013203*
X019012Y013202*
X019011*
Y013201*
Y013200*
X019010Y013199*
X019009Y013197*
Y013195*
Y013192*
X019008Y013189*
Y013180*
X019034*
Y013153*
X019008*
Y013050*
X018974*
Y013153*
X018955*
Y013180*
X018974*
Y013189*
Y013190*
Y013191*
Y013192*
Y013193*
Y013195*
X018975Y013198*
Y013202*
X018976Y013206*
Y013210*
X018978Y013213*
Y013214*
Y013215*
X018979Y013216*
X018981Y013218*
X018982Y013220*
X018985Y013222*
X018987Y013225*
X018991Y013227*
X018992*
X018994Y013228*
X018997Y013229*
X019001Y013230*
X019004Y013231*
X019009*
X019014Y013232*
X019017*
X019018Y013231*
G37*
G36*
X020757Y012481D02*
X020758Y012480D01*
X020759Y012479*
X020760Y012477*
X020761Y012475*
X020763Y012472*
X020765Y012469*
X020767Y012465*
X020770Y012461*
X020772Y012457*
X020774Y012452*
X020776Y012447*
X020779Y012442*
X020781Y012437*
X020785Y012426*
X020786Y012425*
Y012423*
X020787Y012421*
X020788Y012418*
Y012415*
X020789Y012412*
X020790Y012408*
X020791Y012403*
X020792Y012399*
X020793Y012394*
X020794Y012389*
X020795Y012378*
Y012372*
X020796Y012366*
Y012365*
Y012364*
X020795Y012362*
Y012360*
Y012357*
Y012354*
Y012350*
X020794Y012346*
Y012342*
X020793Y012337*
X020792Y012333*
X020791Y012328*
X020790Y012322*
X020787Y012312*
Y012311*
Y012310*
X020786Y012309*
Y012306*
X020785Y012303*
X020783Y012300*
X020782Y012296*
X020780Y012292*
X020778Y012287*
X020776Y012282*
X020774Y012277*
X020771Y012271*
X020768Y012265*
X020765Y012259*
X020761Y012253*
X020758Y012247*
X020734*
Y012248*
X020735Y012249*
Y012251*
X020736Y012253*
X020737Y012255*
X020738Y012257*
X020739Y012260*
X020742Y012265*
X020744Y012271*
X020746Y012276*
X020747Y012279*
X020748Y012281*
Y012282*
X020749Y012283*
Y012284*
X020750Y012285*
X020751Y012288*
X020752Y012292*
X020753Y012297*
X020754Y012302*
X020756Y012307*
Y012308*
Y012309*
Y012310*
Y012311*
X020757Y012313*
Y012315*
X020758Y012317*
X020759Y012321*
Y012326*
X020760Y012331*
X020761Y012336*
Y012337*
Y012338*
Y012340*
X020762Y012341*
Y012343*
Y012345*
Y012349*
X020763Y012354*
Y012359*
Y012364*
Y012365*
Y012367*
Y012369*
Y012371*
X020762Y012374*
Y012378*
Y012382*
Y012386*
X020761Y012390*
Y012395*
X020760Y012399*
X020759Y012409*
X020756Y012419*
Y012420*
Y012421*
X020755Y012423*
X020754Y012426*
Y012429*
X020752Y012432*
X020751Y012436*
X020750Y012441*
X020748Y012445*
X020746Y012451*
X020744Y012456*
X020742Y012462*
X020739Y012468*
X020736Y012475*
X020733Y012482*
X020757*
Y012481*
G37*
G36*
X019895Y012432D02*
X019897D01*
X019899*
X019902Y012431*
X019905*
X019908Y012430*
X019912Y012429*
X019915Y012428*
X019919Y012426*
X019923Y012424*
X019927Y012422*
X019930Y012420*
X019934Y012417*
X019937Y012413*
X019938Y012412*
X019939Y012411*
X019940Y012410*
X019941Y012408*
X019942Y012405*
X019944Y012402*
X019945Y012399*
X019947Y012395*
X019948Y012391*
X019950Y012386*
X019951Y012381*
X019952Y012375*
X019953Y012369*
Y012362*
Y012355*
X019867*
Y012354*
Y012353*
X019868Y012352*
Y012351*
Y012349*
X019869Y012346*
Y012342*
X019871Y012338*
X019873Y012334*
X019876Y012331*
X019877Y012330*
X019879Y012328*
X019881Y012327*
X019884Y012325*
X019887Y012324*
X019891Y012323*
X019896*
X019897*
X019898*
X019900*
X019902Y012324*
X019904*
X019907Y012326*
X019909Y012327*
X019910Y012328*
X019911Y012329*
X019912Y012330*
X019913Y012332*
X019915Y012335*
X019916Y012338*
X019917Y012341*
X019951Y012335*
Y012334*
X019950Y012332*
X019949Y012331*
Y012329*
X019946Y012325*
X019943Y012320*
X019940Y012315*
X019936Y012311*
X019933Y012309*
X019931Y012307*
X019930*
Y012306*
X019929*
X019928Y012305*
X019927*
X019925Y012304*
X019923Y012303*
X019921Y012302*
X019918Y012301*
X019916Y012300*
X019913Y012299*
X019910*
X019906Y012298*
X019903Y012297*
X019899*
X019895*
X019894*
X019892*
X019890*
X019887Y012298*
X019884*
X019880Y012299*
X019876Y012300*
X019872Y012301*
X019868Y012302*
X019864Y012304*
X019860Y012306*
X019856Y012309*
X019852Y012312*
X019848Y012315*
X019845Y012319*
Y012320*
X019844Y012321*
X019843Y012322*
X019842Y012324*
X019841Y012326*
X019840Y012328*
X019839Y012331*
X019838Y012334*
X019836Y012338*
X019835Y012341*
X019834Y012345*
Y012350*
X019833Y012354*
Y012359*
X019832Y012364*
Y012365*
X019833Y012367*
Y012369*
Y012372*
Y012375*
X019834Y012378*
X019835Y012382*
Y012386*
X019837Y012390*
X019838Y012394*
X019839Y012399*
X019841Y012403*
X019844Y012407*
X019846Y012410*
X019849Y012414*
X019850Y012415*
X019851Y012416*
X019852Y012417*
X019854Y012418*
X019856Y012420*
X019858Y012421*
X019861Y012423*
X019864Y012425*
X019867Y012427*
X019870Y012428*
X019874Y012430*
X019878Y012431*
X019883Y012432*
X019887*
X019892*
X019893*
X019895*
G37*
G36*
X020015Y012300D02*
X019981D01*
Y012479*
X020015*
Y012300*
G37*
G36*
X014641Y038871D02*
X014638Y038872D01*
X014636Y038874*
X014635Y038876*
X014634Y038878*
X014633Y038881*
Y039078*
X014634Y039080*
X014635Y039083*
X014636Y039085*
X014638Y039086*
X014641Y039087*
X014643Y039088*
X014754*
X014756Y039087*
X014759Y039086*
X014761Y039085*
X014762Y039083*
X014763Y039080*
X014764Y039078*
Y038881*
X014763Y038878*
X014762Y038876*
X014761Y038874*
X014759Y038872*
X014756Y038871*
X014754*
X014643*
X014641*
G37*
G36*
X014444Y040013D02*
X014441Y040014D01*
X014439Y040015*
X014438Y040017*
X014437Y040020*
X014436Y040022*
Y040219*
X014437Y040222*
X014438Y040224*
X014439Y040226*
X014441Y040228*
X014444Y040229*
X014446*
X014557*
X014559*
X014562Y040228*
X014564Y040226*
X014565Y040224*
X014566Y040222*
X014567Y040219*
Y040022*
X014566Y040020*
X014565Y040017*
X014564Y040015*
X014562Y040014*
X014559Y040013*
X014557Y040012*
X014446*
X014444Y040013*
G37*
G36*
X014641D02*
X014638Y040014D01*
X014636Y040015*
X014635Y040017*
X014634Y040020*
X014633Y040022*
Y040219*
X014634Y040222*
X014635Y040224*
X014636Y040226*
X014638Y040228*
X014641Y040229*
X014643*
X014754*
X014756*
X014759Y040228*
X014761Y040226*
X014762Y040224*
X014763Y040222*
X014764Y040219*
Y040022*
X014763Y040020*
X014762Y040017*
X014761Y040015*
X014759Y040014*
X014756Y040013*
X014754Y040012*
X014643*
X014641Y040013*
G37*
G36*
X014991Y036767D02*
X014989Y036768D01*
X014987Y036769*
X014985Y036771*
X014984Y036774*
Y036776*
Y037209*
Y037210*
Y037211*
Y037212*
Y037213*
X014985Y037214*
X014986Y037215*
Y037216*
X014987Y037217*
X014988Y037218*
X014989*
X014990Y037219*
X014991*
X014992*
X014993Y037220*
Y037219*
X014994Y037220*
X015096Y037304*
X015184Y037410*
X015249Y037531*
X015288Y037663*
X015302Y037800*
X015288Y037937*
X015249Y038069*
X015184Y038190*
X015096Y038296*
X014995Y038380*
X014994*
X014992*
X014990*
X014989Y038381*
X014987*
Y038382*
X014986Y038383*
X014985Y038384*
X014984Y038385*
Y038387*
X014983Y038388*
Y038389*
Y038390*
X014984Y038393*
Y038824*
Y038826*
X014985Y038829*
X014987Y038831*
X014989Y038832*
X014991Y038833*
X014994Y038834*
X015781*
X015784Y038833*
X015786Y038832*
X015788Y038831*
X015790Y038829*
X015791Y038826*
Y038824*
Y036776*
Y036774*
X015790Y036771*
X015788Y036769*
X015786Y036768*
X015784Y036767*
X015781Y036766*
X014994*
X014991Y036767*
G37*
G36*
X013416D02*
X013414Y036768D01*
X013412Y036769*
X013410Y036771*
X013409Y036774*
Y036776*
Y038824*
Y038826*
X013410Y038829*
X013412Y038831*
X013414Y038832*
X013416Y038833*
X013419Y038834*
X014206*
X014209Y038833*
X014211Y038832*
X014213Y038831*
X014215Y038829*
X014216Y038826*
Y038824*
Y038391*
Y038390*
Y038389*
Y038388*
Y038387*
X014215Y038386*
X014214Y038385*
Y038384*
X014213Y038383*
X014212Y038382*
X014211*
X014210Y038381*
X014209*
X014208*
X014207Y038380*
X014206*
X014104Y038296*
X014016Y038190*
X013951Y038069*
X013912Y037937*
X013898Y037800*
X013912Y037663*
X013951Y037531*
X014016Y037410*
X014104Y037304*
X014205Y037220*
X014206*
X014208*
X014210*
X014211Y037219*
X014212*
X014213Y037218*
X014214Y037217*
X014215Y037216*
X014216Y037215*
Y037213*
X014217Y037212*
Y037211*
Y037210*
X014216Y037207*
Y036776*
Y036774*
X014215Y036771*
X014213Y036769*
X014211Y036768*
X014209Y036767*
X014206Y036766*
X013419*
X013416Y036767*
G37*
G36*
X014444Y038871D02*
X014441Y038872D01*
X014439Y038874*
X014438Y038876*
X014437Y038878*
X014436Y038881*
Y039078*
X014437Y039080*
X014438Y039083*
X014439Y039085*
X014441Y039086*
X014444Y039087*
X014446Y039088*
X014557*
X014559Y039087*
X014562Y039086*
X014564Y039085*
X014565Y039083*
X014566Y039080*
X014567Y039078*
Y038881*
X014566Y038878*
X014565Y038876*
X014564Y038874*
X014562Y038872*
X014559Y038871*
X014557*
X014446*
X014444*
G37*
%LNarray-2*%
%LPC*%
G36*
X020442Y013112D02*
X020441D01*
X020440Y013111*
X020439*
X020436*
X020433Y013110*
X020430Y013109*
X020426Y013108*
X020421Y013107*
X020420*
Y013106*
X020419*
X020418*
X020416Y013105*
X020413*
X020410Y013104*
X020407Y013103*
X020404Y013102*
X020403Y013101*
X020402*
Y013100*
X020401*
X020400Y013099*
X020399Y013097*
X020397Y013096*
X020396Y013094*
Y013091*
X020395Y013089*
Y013088*
Y013087*
X020396Y013086*
Y013084*
X020397Y013082*
X020398Y013080*
X020399Y013078*
X020401Y013076*
X020402Y013075*
X020403*
X020404Y013074*
X020406Y013073*
X020409Y013072*
X020411Y013071*
X020414*
X020415*
X020416*
X020418*
X020420Y013072*
X020423*
X020426Y013074*
X020429Y013075*
X020432Y013077*
X020433Y013078*
X020434Y013079*
X020435Y013080*
X020437Y013082*
X020438Y013084*
X020439Y013086*
X020440Y013088*
Y013089*
X020441Y013090*
Y013092*
Y013094*
Y013097*
X020442Y013101*
Y013105*
Y013112*
G37*
G36*
X019320Y013154D02*
X019318D01*
X019316*
X019315*
X019312Y013153*
X019308Y013152*
X019304Y013150*
X019303Y013149*
X019301Y013148*
X019299Y013146*
X019297Y013144*
X019296Y013143*
Y013142*
X019295Y013141*
X019294Y013140*
X019293Y013138*
Y013137*
X019292Y013135*
X019291Y013132*
X019290Y013130*
X019289Y013127*
Y013124*
X019288Y013121*
Y013118*
Y013115*
Y013114*
Y013113*
Y013111*
Y013110*
Y013108*
X019289Y013106*
Y013104*
X019290Y013099*
X019292Y013094*
X019294Y013089*
X019295Y013087*
X019297Y013085*
X019298Y013084*
X019299Y013083*
X019301Y013082*
X019303Y013080*
X019307Y013078*
X019311Y013076*
X019315Y013075*
X019317*
X019320*
X019321*
X019322*
X019323*
X019324*
X019327Y013076*
X019331Y013077*
X019335Y013079*
X019337Y013080*
X019339Y013082*
X019340Y013083*
X019342Y013085*
X019343*
Y013086*
X019344Y013087*
Y013088*
X019345Y013089*
X019346Y013091*
X019347Y013093*
X019348Y013095*
Y013097*
X019349Y013099*
X019350Y013102*
X019351Y013105*
Y013108*
Y013111*
Y013115*
Y013116*
Y013117*
Y013118*
Y013120*
Y013121*
Y013123*
X019350Y013126*
X019349Y013130*
X019348Y013135*
X019345Y013140*
X019344Y013142*
X019342Y013144*
Y013145*
X019341*
Y013146*
X019339Y013147*
X019336Y013149*
X019333Y013151*
X019329Y013153*
X019324Y013154*
X019322*
X019320*
G37*
G36*
X020565Y013156D02*
X020564D01*
X020563*
X020560Y013155*
X020558*
X020554Y013154*
X020551Y013152*
X020549Y013151*
X020548Y013149*
X020546Y013148*
X020544Y013146*
Y013145*
X020543*
Y013144*
X020542Y013142*
X020541Y013141*
X020540Y013139*
Y013137*
X020539Y013135*
X020538Y013133*
X020537Y013130*
Y013127*
Y013124*
X020536Y013121*
Y013117*
Y013116*
Y013115*
Y013114*
Y013112*
X020537Y013110*
Y013108*
Y013106*
X020538Y013101*
X020539Y013096*
X020540Y013091*
X020541Y013089*
X020542Y013087*
X020543Y013086*
Y013085*
X020545Y013083*
X020548Y013081*
X020551Y013078*
X020555Y013076*
X020557Y013075*
X020560*
X020562Y013074*
X020565*
X020566*
X020567*
X020569Y013075*
X020572*
X020575Y013076*
X020579Y013078*
X020580Y013079*
X020582Y013081*
X020584Y013082*
X020585Y013084*
X020586*
Y013085*
X020587Y013086*
Y013087*
X020588Y013088*
X020589Y013090*
Y013092*
X020590Y013094*
X020591Y013096*
Y013098*
X020592Y013101*
X020593Y013104*
Y013107*
Y013111*
Y013114*
Y013115*
Y013116*
Y013118*
Y013120*
Y013122*
Y013124*
X020592Y013126*
X020591Y013132*
X020590Y013137*
X020588Y013142*
X020587Y013144*
X020585Y013146*
Y013147*
X020584Y013148*
X020582Y013149*
X020580Y013151*
X020577Y013153*
X020573Y013154*
X020569Y013156*
X020567*
X020565*
G37*
G36*
X020247Y012404D02*
X020246D01*
X020245*
X020244*
X020243*
X020239Y012403*
X020236Y012402*
X020232Y012400*
X020230Y012399*
X020228Y012398*
X020226Y012396*
X020225Y012394*
X020224*
Y012393*
X020223Y012392*
Y012391*
X020222Y012390*
X020221Y012388*
X020220Y012387*
X020219Y012385*
X020218Y012382*
Y012380*
X020217Y012377*
Y012374*
X020216Y012371*
Y012368*
Y012365*
Y012364*
Y012363*
Y012361*
Y012360*
Y012358*
X020217Y012356*
Y012354*
X020218Y012349*
X020219Y012344*
X020222Y012339*
X020223Y012337*
X020225Y012335*
X020226Y012334*
Y012333*
X020228Y012332*
X020231Y012330*
X020234Y012328*
X020238Y012326*
X020243Y012325*
X020245*
X020247*
X020249*
X020250*
X020251*
X020252*
X020255Y012326*
X020259Y012327*
X020262Y012329*
X020264Y012330*
X020266Y012332*
X020268Y012333*
X020270Y012335*
X020271Y012336*
Y012337*
X020272Y012338*
X020273Y012339*
X020274Y012341*
Y012343*
X020275Y012345*
X020276Y012347*
X020277Y012349*
X020278Y012352*
Y012355*
X020279Y012358*
Y012361*
Y012365*
Y012366*
Y012367*
Y012368*
Y012370*
Y012371*
X020278Y012373*
Y012376*
X020277Y012380*
X020275Y012385*
X020273Y012390*
X020271Y012392*
X020270Y012394*
X020269Y012395*
X020268Y012396*
X020266Y012397*
X020264Y012399*
X020260Y012401*
X020257Y012403*
X020252Y012404*
X020250*
X020247*
G37*
G36*
X020283Y013156D02*
X020282D01*
X020281*
X020279*
X020276Y013155*
X020273Y013154*
X020270Y013152*
X020267Y013151*
X020264Y013148*
Y013147*
X020263Y013146*
X020262Y013144*
X020261Y013142*
X020259Y013139*
X020258Y013135*
X020257Y013131*
Y013126*
X020308*
Y013127*
Y013128*
Y013129*
Y013131*
X020307Y013134*
X020306Y013138*
X020305Y013141*
X020303Y013145*
X020301Y013148*
X020300Y013149*
X020299*
X020298Y013151*
X020296Y013152*
X020293Y013153*
X020290Y013155*
X020287Y013156*
X020283*
G37*
G36*
X019894Y012406D02*
X019893D01*
X019892*
X019890*
X019887Y012405*
X019884Y012404*
X019881Y012402*
X019878Y012400*
X019875Y012398*
Y012397*
X019874Y012396*
X019873Y012394*
X019872Y012392*
X019870Y012389*
X019869Y012385*
X019868Y012381*
Y012376*
X019919*
Y012377*
Y012378*
Y012379*
Y012381*
X019918Y012384*
X019917Y012388*
X019916Y012391*
X019914Y012395*
X019911Y012398*
Y012399*
X019910*
X019909Y012401*
X019906Y012402*
X019904Y012403*
X019901Y012405*
X019898Y012406*
X019894*
G37*
G36*
X019845Y013112D02*
D01*
X019844Y013111*
X019842*
X019840*
X019837Y013110*
X019834Y013109*
X019829Y013108*
X019824Y013107*
Y013106*
X019823*
X019822*
X019820Y013105*
X019817*
X019814Y013104*
X019811Y013103*
X019808Y013102*
X019807Y013101*
X019806*
Y013100*
X019805*
X019804Y013099*
X019803Y013097*
X019801Y013096*
X019800Y013094*
X019799Y013091*
Y013089*
Y013088*
Y013087*
Y013086*
X019800Y013084*
Y013082*
X019801Y013080*
X019803Y013078*
X019804Y013076*
X019805*
Y013075*
X019807*
X019808Y013074*
X019810Y013073*
X019813Y013072*
X019815Y013071*
X019818*
X019819*
X019820*
X019822*
X019824Y013072*
X019827*
X019830Y013074*
X019833Y013075*
X019836Y013077*
X019837Y013078*
X019838Y013079*
X019839Y013080*
X019841Y013082*
X019842Y013084*
X019843Y013086*
X019844Y013088*
Y013089*
Y013090*
X019845Y013092*
Y013094*
Y013097*
Y013101*
Y013105*
Y013112*
G37*
%LNarray-3*%
%LPD*%
G54D42*
X025950Y053467D02*
Y053717D01*
X025867Y053800*
X025783Y053717*
X025700Y053800*
X025617Y053717*
Y053467*
X025200Y053800D02*
X025367D01*
X025450Y053717*
Y053550*
X025367Y053467*
X025200*
X025117Y053550*
Y053633*
X025450*
X024950Y053467D02*
Y053800D01*
Y053633*
X024867Y053550*
X024784Y053467*
X024700*
X024450Y053800D02*
Y053467D01*
X024201*
X024117Y053550*
Y053800*
X023701D02*
X023867D01*
X023951Y053717*
Y053550*
X023867Y053467*
X023701*
X023617Y053550*
Y053633*
X023951*
X023451Y053467D02*
Y053800D01*
Y053633*
X023368Y053550*
X023284Y053467*
X023201*
X022951Y053800D02*
Y053717D01*
X022868*
Y053800*
X022951*
X022534Y053967D02*
X022451D01*
X022368Y053883*
Y053467*
X021951Y053800D02*
X021785D01*
X021701Y053717*
Y053550*
X021785Y053467*
X021951*
X022035Y053550*
Y053717*
X021951Y053800*
X021535Y053300D02*
Y053800D01*
Y053550*
X021451Y053467*
X021285*
X021202Y053550*
Y053800*
X020952Y053467D02*
X020785D01*
X020702Y053550*
Y053800*
X020952*
X021035Y053717*
X020952Y053633*
X020702*
X020535Y053800D02*
Y053467D01*
X020285*
X020202Y053550*
Y053800*
X020035D02*
X019785D01*
X019702Y053717*
X019785Y053633*
X019952*
X020035Y053550*
X019952Y053467*
X019702*
X019535Y053800D02*
X019285D01*
X019202Y053717*
X019285Y053633*
X019452*
X019535Y053550*
X019452Y053467*
X019202*
X018952Y053800D02*
X018786D01*
X018702Y053717*
Y053550*
X018786Y053467*
X018952*
X019036Y053550*
Y053717*
X018952Y053800*
X018536D02*
Y053467D01*
X018286*
X018203Y053550*
Y053800*
X017786Y053633D02*
Y053550D01*
X017869*
Y053633*
X017786*
X017703Y053550*
Y053383*
X017786Y053300*
X017953*
X018036Y053383*
Y053717*
X017953Y053800*
X017703*
X017536D02*
X017286D01*
X017203Y053717*
X017286Y053633*
X017453*
X017536Y053550*
X017453Y053467*
X017203*
X016953Y053800D02*
X016786D01*
X016703Y053717*
Y053550*
X016786Y053467*
X016953*
X017036Y053550*
Y053717*
X016953Y053800*
X016536D02*
Y053467D01*
X016286*
X016203Y053550*
Y053800*
X016037Y053467D02*
Y053717D01*
X015953Y053800*
X015703*
Y053883*
X015787Y053967*
X015870*
X015703Y053800D02*
Y053467D01*
X015537Y053800D02*
Y053467D01*
X015453*
X015370Y053550*
Y053800*
Y053550*
X015287Y053467*
X015203Y053550*
Y053800*
X014954D02*
X014787D01*
X014704Y053717*
Y053550*
X014787Y053467*
X014954*
X015037Y053550*
Y053717*
X014954Y053800*
X014537Y053300D02*
Y053800D01*
X014287*
X014204Y053717*
Y053633*
Y053550*
X014287Y053467*
X014537*
X014037Y053800D02*
X013871D01*
X013954*
Y053467*
X014037*
X013621Y053800D02*
X013454D01*
X013537*
Y053300*
X013621*
X012954Y053800D02*
X013121D01*
X013204Y053717*
Y053550*
X013121Y053467*
X012954*
X012871Y053550*
Y053633*
X013204*
X012704Y053800D02*
Y053717D01*
X012621*
Y053800*
X012704*
X011955Y053467D02*
X012204D01*
X012288Y053550*
Y053717*
X012204Y053800*
X011955*
X011705D02*
X011538D01*
X011455Y053717*
Y053550*
X011538Y053467*
X011705*
X011788Y053550*
Y053717*
X011705Y053800*
X011288D02*
Y053467D01*
X011205*
X011121Y053550*
Y053800*
Y053550*
X011038Y053467*
X010955Y053550*
Y053800*
G54D127*
X033200Y015314D03*
Y017086D03*
X015900Y013386D03*
Y011614D03*
G54D128*
X012636Y018900D03*
X010864D03*
X025236Y011000D03*
X023464D03*
G54D129*
X033485Y018400D03*
X032815D03*
X016515Y021550D03*
X017185D03*
Y022200D03*
X016515D03*
Y020900D03*
X017185D03*
X026865Y019100D03*
X027535D03*
X019885Y022300D03*
X019215D03*
X019885Y022800D03*
X019215D03*
X019885Y023300D03*
X019215D03*
X027165Y017600D03*
X027835D03*
X019885Y021800D03*
X019215D03*
X036685Y022950D03*
X036015D03*
X018065Y018700D03*
X018735D03*
X018065Y019350D03*
X018735D03*
X026315Y010550D03*
X026985D03*
X019885Y020300D03*
X019215D03*
X022335Y018800D03*
X021665D03*
X034265Y025350D03*
X034935D03*
X033115D03*
X033785D03*
X031965D03*
X032635D03*
X019885Y026100D03*
X019215D03*
X031615Y016450D03*
X032285D03*
X019885Y021300D03*
X019215D03*
X019885Y020800D03*
X019215D03*
X021035Y019800D03*
X020365D03*
X021035Y018800D03*
X020365D03*
X029315Y016450D03*
X029985D03*
X030465D03*
X031135D03*
X015565Y010550D03*
X016235D03*
X018085Y017800D03*
X017415D03*
X014135Y014300D03*
X013465D03*
X019885Y017750D03*
X019215D03*
X026335Y014700D03*
X025665D03*
X021985Y016350D03*
X021315D03*
Y016850D03*
X021985D03*
X028415Y027500D03*
X029085D03*
G54D130*
X031546Y019945D03*
Y019355D03*
X032254D03*
Y019945D03*
X032746Y022195D03*
Y021605D03*
X033454D03*
Y022195D03*
G54D131*
X031546Y019650D03*
X032254D03*
X032746Y021900D03*
X033454D03*
G54D132*
X032796Y020172D03*
Y019857D03*
Y019543D03*
Y019228D03*
X033504Y020172D03*
Y019857D03*
Y019543D03*
Y019228D03*
X033996Y022422D03*
Y022107D03*
Y021793D03*
Y021478D03*
X034704Y022422D03*
Y022107D03*
Y021793D03*
Y021478D03*
G54D133*
X020450Y022000D03*
X026400Y018350D03*
X025650Y017850D03*
X024900Y018850D03*
X025650D03*
X024900Y017850D03*
X028100Y021750D03*
G54D134*
X012500Y028535D03*
Y027865D03*
X011900Y028535D03*
Y027865D03*
X031450Y024785D03*
Y024115D03*
Y022865D03*
Y023535D03*
X026700Y027165D03*
Y027835D03*
X025200D03*
Y027165D03*
X025700Y027835D03*
Y027165D03*
X024700Y027835D03*
Y027165D03*
X026200Y027835D03*
Y027165D03*
X028700Y017035D03*
Y016365D03*
X016900Y013685D03*
Y013015D03*
Y011915D03*
Y012585D03*
X020700Y026865D03*
Y027535D03*
X023200Y027165D03*
Y027835D03*
X024300Y018535D03*
Y017865D03*
X023700Y018535D03*
Y017865D03*
X021700Y027165D03*
Y027835D03*
X027450Y027235D03*
Y026565D03*
X022200Y027165D03*
Y027835D03*
X022700Y027165D03*
Y027835D03*
X031150Y015935D03*
Y015265D03*
X030550Y015935D03*
Y015265D03*
X032000Y026885D03*
Y026215D03*
X033750Y024835D03*
Y024165D03*
X033150Y024835D03*
Y024165D03*
X027950Y027235D03*
Y026565D03*
X020450Y025465D03*
Y026135D03*
X029300Y017985D03*
Y017315D03*
X024200Y027165D03*
Y027835D03*
X032250Y017685D03*
Y017015D03*
X023700Y027165D03*
Y027835D03*
X034900Y026585D03*
Y025915D03*
X016550Y025985D03*
Y025315D03*
Y022815D03*
Y023485D03*
Y024735D03*
Y024065D03*
X018200Y026865D03*
Y027535D03*
X017750Y015715D03*
Y016385D03*
X023650Y014935D03*
Y014265D03*
X024250D03*
Y014935D03*
X027800Y015215D03*
Y015885D03*
Y016365D03*
Y017035D03*
G54D135*
X015849Y020900D03*
Y021900D03*
X013251Y020900D03*
Y021900D03*
X015849Y026900D03*
Y027900D03*
X013251Y026900D03*
Y027900D03*
X015849Y024900D03*
Y025900D03*
X013251Y024900D03*
Y025900D03*
X015849Y022900D03*
Y023900D03*
X013251Y022900D03*
Y023900D03*
G54D136*
X029215Y010550D03*
X028585D03*
X014365Y019750D03*
X013735D03*
X014365Y018700D03*
X013735D03*
X011765Y010550D03*
X011135D03*
G54D137*
X038200Y023565D03*
Y022935D03*
G54D138*
X029004Y021839D03*
X029260D03*
X029516D03*
X029772D03*
X030028D03*
X030284D03*
X030540D03*
X030796D03*
X029004Y024161D03*
X029260D03*
X029516D03*
X029772D03*
X030028D03*
X030284D03*
X030540D03*
X030796D03*
G54D139*
X019307Y029205D03*
X020094D03*
X020882D03*
X021669D03*
X022456D03*
X023244D03*
X024031D03*
X024818D03*
X025606D03*
X026393D03*
X019307Y031295D03*
X020094D03*
X020882D03*
X021669D03*
X022456D03*
X023244D03*
X024031D03*
X024818D03*
X025606D03*
X026393D03*
G54D140*
X030488Y024950D03*
Y025450D03*
Y025950D03*
Y026450D03*
Y026950D03*
X029012Y024950D03*
Y025450D03*
Y025950D03*
Y026450D03*
Y026950D03*
G54D141*
X030122Y014550D03*
X031578D03*
X032722Y023450D03*
X034178D03*
G54D142*
X034198Y026358D03*
Y026555D03*
Y026752D03*
Y026948D03*
Y027145D03*
Y027342D03*
X032702D03*
Y027145D03*
Y026948D03*
Y026752D03*
Y026555D03*
Y026358D03*
X031548Y017458D03*
Y017655D03*
Y017852D03*
Y018048D03*
Y018245D03*
Y018442D03*
X030052D03*
Y018245D03*
Y018048D03*
Y017852D03*
Y017655D03*
Y017458D03*
G54D143*
X033942Y027598D03*
X033745D03*
X033548D03*
X033352D03*
X033155D03*
X032958D03*
Y026102D03*
X033155D03*
X033352D03*
X033548D03*
X033745D03*
X033942D03*
X031292Y018698D03*
X031095D03*
X030898D03*
X030702D03*
X030505D03*
X030308D03*
Y017202D03*
X030505D03*
X030702D03*
X030898D03*
X031095D03*
X031292D03*
G54D144*
X033450Y026850D03*
X030800Y017950D03*
G54D145*
X023455Y013600D03*
Y013100D03*
Y012600D03*
Y012100D03*
X025345Y013600D03*
Y013100D03*
Y012600D03*
Y012100D03*
X018605Y017100D03*
Y016600D03*
Y016100D03*
Y015600D03*
X020495Y017100D03*
Y016600D03*
Y016100D03*
Y015600D03*
X026935Y015300D03*
Y015800D03*
Y016300D03*
Y016800D03*
X025045Y015300D03*
Y015800D03*
Y016300D03*
Y016800D03*
G54D146*
X014150Y016350D03*
X016700D03*
G54D147*
X014850Y013445D03*
X014350D03*
X013850D03*
X013350D03*
X014850Y011555D03*
X014350D03*
X013850D03*
X013350D03*
G54D148*
X026562Y019878D03*
X026365D03*
X026168D03*
X025972D03*
X025775D03*
X025578D03*
X025381D03*
X025184D03*
X024987D03*
X024791D03*
X024594D03*
X024397D03*
X024200D03*
X024003D03*
X023806D03*
X023609D03*
X023413D03*
X023216D03*
X023019D03*
X022822D03*
X022625D03*
X022428D03*
X022232D03*
X022035D03*
X021838D03*
Y025822D03*
X022035D03*
X022232D03*
X022428D03*
X022625D03*
X022822D03*
X023019D03*
X023216D03*
X023413D03*
X023609D03*
X023806D03*
X024003D03*
X024200D03*
X024397D03*
X024594D03*
X024791D03*
X024987D03*
X025184D03*
X025381D03*
X025578D03*
X025775D03*
X025972D03*
X026168D03*
X026365D03*
X026562D03*
G54D149*
X021228Y020488D03*
Y020685D03*
Y020882D03*
Y021078D03*
Y021275D03*
Y021472D03*
Y021669D03*
Y021866D03*
Y022063D03*
Y022259D03*
Y022456D03*
Y022653D03*
Y022850D03*
Y023047D03*
Y023244D03*
Y023441D03*
Y023637D03*
Y023834D03*
Y024031D03*
Y024228D03*
Y024425D03*
Y024622D03*
Y024818D03*
Y025015D03*
Y025212D03*
X027172D03*
Y025015D03*
Y024818D03*
Y024622D03*
Y024425D03*
Y024228D03*
Y024031D03*
Y023834D03*
Y023637D03*
Y023441D03*
Y023244D03*
Y023047D03*
Y022850D03*
Y022653D03*
Y022456D03*
Y022259D03*
Y022063D03*
Y021866D03*
Y021669D03*
Y021472D03*
Y021275D03*
Y021078D03*
Y020882D03*
Y020685D03*
Y020488D03*
G54D150*
X019426Y026906D03*
X020174D03*
X019800Y027694D03*
G54D151*
X027750Y011400D03*
Y013950D03*
G54D152*
X022009Y012750D03*
X018091D03*
G54D153*
X017536Y026740D03*
X017379D03*
X017221D03*
X017064D03*
Y027660D03*
X017221D03*
X017379D03*
X017536D03*
G54D154*
X016997Y026964D03*
Y027121D03*
Y027279D03*
Y027436D03*
X017603D03*
Y027279D03*
Y027121D03*
G54D155*
X017583Y026964D03*
G54D156*
X028000Y029372D03*
Y030828D03*
X029100Y029372D03*
Y030828D03*
G54D157*
X037050Y026056D03*
Y025800D03*
Y025544D03*
Y026312D03*
Y025288D03*
X011700Y025794D03*
Y026050D03*
Y026306D03*
Y025538D03*
Y026562D03*
Y021044D03*
Y021300D03*
Y021556D03*
Y020788D03*
Y021812D03*
Y012844D03*
Y013100D03*
Y013356D03*
Y012588D03*
Y013612D03*
G54D158*
X012600Y016313D03*
Y017887D03*
G54D159*
X019165Y051400D03*
X019835D03*
X018765Y050900D03*
X019435D03*
X025915Y037450D03*
X026585D03*
X025915Y036850D03*
X026585D03*
X017335Y044750D03*
X016665D03*
X011885Y037200D03*
X011215D03*
X017335Y045500D03*
X016665D03*
X020885Y036850D03*
X020215D03*
X017335Y043250D03*
X016665D03*
X017335Y044000D03*
X016665D03*
X017335Y042500D03*
X016665D03*
X014515Y041000D03*
X015185D03*
Y040500D03*
X014515D03*
G54D160*
X027848Y045000D03*
Y043000D03*
G54D161*
X031766Y044000D03*
G54D162*
X028750Y041615D03*
Y042285D03*
X011800Y039935D03*
Y039265D03*
X015750Y039865D03*
Y040535D03*
X016350Y039865D03*
Y040535D03*
X016150Y039235D03*
Y038565D03*
X016050Y046835D03*
Y046165D03*
X017200Y046835D03*
Y046165D03*
G54D163*
X019307Y033855D03*
X020094D03*
X020881D03*
X021669D03*
X022456D03*
X023244D03*
X024031D03*
X024818D03*
X025606D03*
X026393D03*
X019307Y035645D03*
X020094D03*
X020881D03*
X021669D03*
X022456D03*
X023244D03*
X024031D03*
X024818D03*
X025606D03*
X026393D03*
G54D164*
X011499Y038000D03*
X012601D03*
G54D165*
X012750Y038829D03*
Y039971D03*
G54D166*
X026923Y044384D03*
Y044128D03*
Y043872D03*
Y043616D03*
X028577Y044384D03*
Y044128D03*
Y043872D03*
Y043616D03*
G54D167*
X019100Y049606D03*
X018726Y050394D03*
X019474D03*
G54D168*
X020700Y050843D03*
X021074Y049957D03*
X020326D03*
G54D169*
X014600Y039550D03*
G54D170*
X014019Y039944D03*
Y039747D03*
Y039550D03*
Y039353D03*
Y039156D03*
X015181Y039944D03*
Y039747D03*
Y039550D03*
Y039353D03*
Y039156D03*
G54D171*
X013616Y037800D03*
X015584D03*
G54D172*
X012809Y047012D03*
Y040988D03*
G54D173*
X011500Y043114D03*
Y042917D03*
Y042720D03*
Y042524D03*
Y042327D03*
Y042130D03*
Y041933D03*
Y041736D03*
Y043311D03*
Y043508D03*
Y043705D03*
Y043902D03*
Y044098D03*
Y044295D03*
Y044492D03*
Y044689D03*
Y044886D03*
Y045083D03*
Y045280D03*
Y045476D03*
Y045673D03*
Y045870D03*
Y046067D03*
Y046264D03*
G54D174*
X018500Y033050D03*
X018950D03*
X019400D03*
X037850D03*
X037400D03*
X036950D03*
X019400Y031950D03*
X018950D03*
X018500D03*
X037850D03*
X037400D03*
X036950D03*
X028650Y033050D03*
X028200D03*
X027750D03*
X028650Y031950D03*
X028200D03*
X027750D03*
G54D175*
X035000Y027650D03*
X034450Y014750D03*
X010550Y015400D03*
G54D176*
X016900Y030000D03*
X016112D03*
X015325D03*
X014537D03*
X035400Y020350D03*
X034400Y019350D03*
X035400D03*
X034400Y018350D03*
X035400D03*
X034400Y017350D03*
X035400D03*
X034400Y016350D03*
X035400D03*
X012550Y015400D03*
X011550D03*
G54D177*
X017006Y031071D03*
Y028929D03*
X014250D03*
Y031071D03*
G54D178*
X037974Y030100D03*
X031950D03*
X037974Y011950D03*
X031950D03*
G54D179*
X034400Y020350D03*
G54D180*
X010950Y017150D03*
G54D181*
X038113Y027178D03*
Y024422D03*
X010637Y024672D03*
Y027428D03*
Y019922D03*
Y022678D03*
Y011722D03*
Y014478D03*
G54D182*
X037050Y026784D03*
Y024816D03*
X011700Y025066D03*
Y027034D03*
Y020316D03*
Y022284D03*
Y012116D03*
Y014084D03*
G54D183*
X033667Y026633D03*
X033233D03*
X033667Y027067D03*
X033233D03*
X031017Y017733D03*
X030583D03*
X031017Y018167D03*
X030583D03*
G54D184*
X024200Y050300D03*
X036800D03*
X024200Y037700D03*
X036800D03*
X010950Y047850D03*
G54D185*
X022150Y050900D03*
G54D186*
X022150Y049900D03*
G54D187*
X028721Y050641D03*
X032279D03*
Y037359D03*
X031619Y039822D03*
X025639Y048861D03*
X023859Y045779D03*
Y042221D03*
X026322Y042881D03*
Y045119D03*
X027442Y047058D03*
X029381Y048178D03*
X031619D03*
X033558Y047058D03*
X035361Y048861D03*
Y039139D03*
X033558Y040942D03*
X034678Y042881D03*
Y045119D03*
X037141Y045779D03*
Y042221D03*
G54D188*
X030500Y039250D03*
X026540Y040040D03*
X026386Y041625D03*
X025091Y042551D03*
X025750Y044000D03*
X030500Y037550D03*
X031949Y038591D03*
X032875Y039886D03*
X033725Y038414D03*
X034460Y040040D03*
X034614Y041625D03*
X036086Y040775D03*
X035909Y042551D03*
X024914Y040775D03*
X024050Y044000D03*
X025091Y045449D03*
X024914Y047225D03*
X026386Y046375D03*
X026540Y047960D03*
X027275Y049586D03*
X028125Y048114D03*
X029051Y049409D03*
X030500Y050450D03*
Y048750D03*
X031949Y049409D03*
X032875Y048114D03*
X033725Y049586D03*
X034460Y047960D03*
X034614Y046375D03*
X036086Y047225D03*
X035909Y045449D03*
X036950Y044000D03*
X035250D03*
M02*