%FSDAX24Y24*%
%MOIN*%
%SFA1B1*%

%IPPOS*%
%ADD43C,0.050000*%
%ADD44C,0.100000*%
%ADD80C,0.005000*%
%LNarray-1*%
%LPD*%
G54D43*
X019500Y046500D02*
Y041500D01*
X022250Y046500D02*
X019500D01*
X022250Y041500D02*
X019500D01*
X022250Y046500D02*
Y041500D01*
G54D44*
X011400Y032500D02*
X018000D01*
X019900D02*
X027250D01*
X029150D02*
X036450D01*
X009500Y011400D02*
D01*
D01*
G75*
G03X011400Y009500I1900J0D01*
G74*G01*
Y032500D02*
D01*
D01*
G75*
G03X009500Y030600I0J-1900D01*
G74*G01*
X038350Y032500D02*
X039250D01*
Y009500D02*
Y032500D01*
X011400Y009500D02*
X039250D01*
X009500Y011400D02*
Y030600D01*
X011400Y055500D02*
D01*
D01*
G75*
G03X009500Y053600I0J-1900D01*
G74*G01*
Y036650D02*
D01*
D01*
G75*
G03X010400Y035750I900J0D01*
G74*G01*
X017100Y033400D02*
D01*
D01*
G75*
G03X018000Y032500I900J0D01*
G74*G01*
X038350D02*
D01*
D01*
G75*
G03X039250Y033400I0J900D01*
G74*G01*
Y054600D02*
D01*
D01*
G75*
G03X038350Y055500I-900J0D01*
G74*G01*
X017100Y035750D02*
X010400D01*
X017100D02*
Y033400D01*
X038350Y055500D02*
X011400D01*
X009500Y053600D02*
Y036650D01*
X039250Y054600D02*
Y033400D01*
G54D80*
X020567Y042467D02*
X020450Y042350D01*
Y042117*
X020567Y042000*
X021033*
X021150Y042117*
Y042350*
X021033Y042467*
X020450Y042700D02*
X021033D01*
X021150Y042816*
Y043050*
X021033Y043166*
X020450*
Y043400D02*
Y043866D01*
Y043633*
X021150*
X020450Y044449D02*
Y044216D01*
X020567Y044099*
X021033*
X021150Y044216*
Y044449*
X021033Y044566*
X020567*
X020450Y044449*
Y044799D02*
X021033D01*
X021150Y044916*
Y045149*
X021033Y045266*
X020450*
Y045499D02*
Y045965D01*
Y045732*
X021150*
M02*